<svg xmlns="http://www.w3.org/2000/svg" xmlns:xlink="http://www.w3.org/1999/xlink" width="500" zoomAndPan="magnify" viewBox="0 0 375 374.999991" height="500" preserveAspectRatio="xMidYMid meet" version="1.0"><defs><g/><clipPath id="d39d298f25"><path d="M 116 4.855469 L 252 4.855469 L 252 203 L 116 203 Z M 116 4.855469 " clip-rule="nonzero"/></clipPath></defs><g clip-path="url(#d39d298f25)"><path fill="#000000" d="M 240.367188 119.113281 C 241.394531 135.113281 233.042969 150.824219 223.25 158.851562 C 215.25 165.058594 206.101562 167.910156 197.046875 167.363281 C 177.496094 166.175781 161.019531 150.496094 163.707031 124.644531 C 169.050781 79.242188 228.277344 51.121094 189.175781 9.363281 C 188.34375 8.433594 182.617188 5.746094 181.71875 4.851562 C 195.988281 24.46875 160.347656 55.632812 149.660156 71.660156 C 136.285156 90.347656 120.09375 110.726562 121.152344 134.886719 C 123.324219 184.960938 159.867188 205.628906 200.664062 202.59375 C 222.226562 200.992188 244.53125 184.0625 250.320312 160.515625 C 253.648438 146.917969 250.769531 129.542969 240.367188 119.113281 Z M 227.445312 103.914062 C 225.363281 89.515625 217.652344 69.867188 209.109375 60.75 C 205.238281 72.105469 199.382812 77.546875 192.34375 87.722656 C 186.554688 96.941406 178.488281 104.070312 174.585938 114.539062 C 170.296875 126.789062 172.601562 141.574219 182.234375 149.921875 C 189.847656 156.546875 204.152344 156.382812 212.851562 150.210938 C 224.882812 141.667969 230.484375 125.0625 227.445312 103.914062 Z M 118.109375 110.984375 C 108.417969 65.550781 151.804688 49.296875 154.203125 23.09375 C 168.503906 43.214844 124.445312 73.550781 118.109375 110.984375 " fill-opacity="1" fill-rule="nonzero"/></g><g fill="#060606" fill-opacity="0.6588"><g transform="translate(87.096283, 117.739617)"><g><path d="M -0.546875 16.421875 L -0.28125 8.359375 L 14.203125 8.84375 L 14.453125 1.296875 L 19.21875 1.46875 L 18.4375 24.625 L 13.671875 24.453125 L 13.9375 16.90625 Z M -0.546875 16.421875 "/></g></g></g><g fill="#060606" fill-opacity="0.6588"><g transform="translate(86.223562, 145.275287)"><g><path d="M 7.21875 27.515625 L 5.28125 20.125 C 5.65625 19.664062 6.191406 19.273438 6.890625 18.953125 C 7.410156 18.679688 7.910156 18.351562 8.390625 17.96875 C 8.878906 17.582031 9.222656 17.046875 9.421875 16.359375 C 9.617188 15.671875 9.582031 14.742188 9.3125 13.578125 L 7.96875 8.5 L 2.59375 9.90625 L 0.546875 2.078125 L 19.1875 -2.8125 L 22.53125 9.90625 C 23.320312 12.9375 23.734375 15.445312 23.765625 17.4375 C 23.804688 19.425781 23.453125 20.972656 22.703125 22.078125 C 21.953125 23.191406 20.789062 23.953125 19.21875 24.359375 C 17.90625 24.703125 16.722656 24.691406 15.671875 24.328125 C 14.628906 23.972656 13.6875 23.222656 12.84375 22.078125 C 12.644531 23.453125 12.238281 24.414062 11.625 24.96875 C 11.007812 25.53125 10.285156 25.972656 9.453125 26.296875 C 8.710938 26.566406 7.96875 26.972656 7.21875 27.515625 Z M 12.5625 7.28125 L 13.75 11.734375 C 14.082031 12.984375 14.398438 13.953125 14.703125 14.640625 C 15.003906 15.335938 15.296875 15.832031 15.578125 16.125 C 15.859375 16.414062 16.128906 16.578125 16.390625 16.609375 C 16.660156 16.640625 16.921875 16.617188 17.171875 16.546875 C 17.421875 16.484375 17.65625 16.375 17.875 16.21875 C 18.09375 16.0625 18.253906 15.785156 18.359375 15.390625 C 18.460938 14.992188 18.476562 14.421875 18.40625 13.671875 C 18.332031 12.921875 18.128906 11.921875 17.796875 10.671875 L 16.625 6.21875 Z M 12.5625 7.28125 "/></g></g></g><g fill="#060606" fill-opacity="0.6588"><g transform="translate(94.777591, 176.795605)"><g><path d="M 17.953125 26.921875 L 13.40625 20.109375 L 15.03125 16.859375 L 8.28125 6.734375 L 4.65625 6.984375 L 0.109375 0.171875 L 22.96875 -0.25 L 27.125 6 Z M 17.484375 11.9375 L 20.484375 5.90625 L 13.765625 6.375 Z M 17.484375 11.9375 "/></g></g></g><g fill="#060606" fill-opacity="0.6588"><g transform="translate(115.169313, 205.997746)"><g><path d="M 14.703125 11.21875 L 8.75 6.671875 L 11.828125 -15.1875 L 18.34375 -10.21875 L 15.0625 4.578125 L 28.453125 -2.515625 L 34.96875 2.453125 Z M 14.703125 11.21875 "/></g></g></g><g fill="#060606" fill-opacity="0.6588"><g transform="translate(141.20799, 225.041044)"><g><path d="M 23.796875 8.765625 L 2.03125 0.75 L 8.6875 -17.328125 L 29.453125 -9.6875 L 27.8125 -5.21875 L 14.625 -10.078125 L 13.578125 -7.25 L 24.71875 -3.140625 L 23.4375 0.34375 L 12.296875 -3.765625 L 11.25 -0.9375 L 25.4375 4.296875 Z M 23.796875 8.765625 "/></g></g></g><g fill="#060606" fill-opacity="0.6588"><g transform="translate(168.571764, 234.638869)"><g><path d="M 24.5625 1.890625 L 2.15625 0.171875 L 3.625 -19.03125 L 11.671875 -18.421875 L 10.5625 -3.96875 L 24.921875 -2.859375 Z M 24.5625 1.890625 "/></g></g></g><g fill="#060606" fill-opacity="0.6588"><g transform="translate(195.379248, 235.755364)"><g/></g></g><g fill="#060606" fill-opacity="0.6588"><g transform="translate(203.116757, 234.972203)"><g/></g></g><g fill="#060606" fill-opacity="0.6588"><g transform="translate(211.676686, 234.111257)"><g><path d="M 15.484375 -5.53125 L 7.875 -2.8125 L 3 -16.46875 L -4.109375 -13.921875 L -5.71875 -18.40625 L 16.109375 -26.203125 L 17.71875 -21.71875 L 10.609375 -19.1875 Z M 15.484375 -5.53125 "/></g></g></g><g fill="#060606" fill-opacity="0.6588"><g transform="translate(237.570918, 224.780404)"><g><path d="M 12 -8.25 C 8.15625 -5.4375 4.75 -4.164062 1.78125 -4.4375 C -0.84375 -4.664062 -3.039062 -5.988281 -4.8125 -8.40625 C -6.570312 -10.820312 -7.160156 -13.316406 -6.578125 -15.890625 C -5.929688 -18.796875 -3.6875 -21.65625 0.15625 -24.46875 C 4.007812 -27.28125 7.421875 -28.554688 10.390625 -28.296875 C 13.015625 -28.066406 15.207031 -26.742188 16.96875 -24.328125 C 18.738281 -21.910156 19.332031 -19.414062 18.75 -16.84375 C 18.101562 -13.925781 15.851562 -11.0625 12 -8.25 Z M 8.953125 -12.421875 C 10.535156 -13.578125 11.359375 -14.878906 11.421875 -16.328125 C 11.492188 -17.484375 11.164062 -18.554688 10.4375 -19.546875 C 9.71875 -20.546875 8.789062 -21.1875 7.65625 -21.46875 C 6.257812 -21.84375 4.769531 -21.453125 3.1875 -20.296875 C 1.613281 -19.148438 0.789062 -17.851562 0.71875 -16.40625 C 0.65625 -15.25 0.984375 -14.171875 1.703125 -13.171875 C 2.429688 -12.179688 3.359375 -11.546875 4.484375 -11.265625 C 5.890625 -10.890625 7.378906 -11.273438 8.953125 -12.421875 Z M 8.953125 -12.421875 "/></g></g></g><g fill="#060606" fill-opacity="0.6588"><g transform="translate(263.200672, 205.509492)"><g><path d="M 16.671875 -23.046875 L 12.203125 -16.859375 C 11.609375 -16.859375 10.960938 -17.023438 10.265625 -17.359375 C 9.722656 -17.585938 9.148438 -17.765625 8.546875 -17.890625 C 7.953125 -18.023438 7.320312 -17.953125 6.65625 -17.671875 C 6 -17.390625 5.304688 -16.769531 4.578125 -15.8125 L 1.5 -11.5625 L 6 -8.296875 L 1.265625 -1.75 L -14.34375 -13.046875 L -6.640625 -23.6875 C -4.804688 -26.226562 -3.128906 -28.144531 -1.609375 -29.4375 C -0.0976562 -30.726562 1.316406 -31.4375 2.640625 -31.5625 C 3.972656 -31.6875 5.300781 -31.269531 6.625 -30.3125 C 7.71875 -29.519531 8.457031 -28.601562 8.84375 -27.5625 C 9.226562 -26.53125 9.253906 -25.328125 8.921875 -23.953125 C 10.097656 -24.679688 11.097656 -24.976562 11.921875 -24.84375 C 12.742188 -24.71875 13.539062 -24.4375 14.3125 -24 C 15 -23.601562 15.785156 -23.285156 16.671875 -23.046875 Z M -2.359375 -14.34375 L 0.328125 -18.078125 C 1.078125 -19.117188 1.625 -19.972656 1.96875 -20.640625 C 2.320312 -21.316406 2.519531 -21.859375 2.5625 -22.265625 C 2.601562 -22.671875 2.550781 -22.988281 2.40625 -23.21875 C 2.269531 -23.445312 2.097656 -23.632812 1.890625 -23.78125 C 1.671875 -23.9375 1.429688 -24.046875 1.171875 -24.109375 C 0.921875 -24.171875 0.609375 -24.117188 0.234375 -23.953125 C -0.140625 -23.785156 -0.59375 -23.429688 -1.125 -22.890625 C -1.65625 -22.359375 -2.296875 -21.570312 -3.046875 -20.53125 L -5.75 -16.796875 Z M -2.359375 -14.34375 "/></g></g></g><g fill="#060606" fill-opacity="0.6588"><g transform="translate(281.794015, 178.941382)"><g><path d="M 4.90625 -13.71875 C 3.4375 -9.195312 1.414062 -6.171875 -1.15625 -4.640625 C -3.40625 -3.285156 -5.957031 -3.070312 -8.8125 -4 C -11.664062 -4.925781 -13.613281 -6.601562 -14.65625 -9.03125 C -15.800781 -11.769531 -15.640625 -15.398438 -14.171875 -19.921875 C -13.296875 -22.585938 -12.269531 -24.6875 -11.09375 -26.21875 C -9.925781 -27.757812 -8.660156 -28.835938 -7.296875 -29.453125 C -5.929688 -30.066406 -4.519531 -30.316406 -3.0625 -30.203125 L -5.703125 -22.125 C -7.378906 -21.769531 -8.570312 -20.503906 -9.28125 -18.328125 C -9.882812 -16.472656 -9.789062 -14.9375 -9 -13.71875 C -8.375 -12.738281 -7.476562 -12.054688 -6.3125 -11.671875 C -5.15625 -11.296875 -4.035156 -11.320312 -2.953125 -11.75 C -1.585938 -12.269531 -0.601562 -13.457031 0 -15.3125 C 0.707031 -17.488281 0.472656 -19.21875 -0.703125 -20.5 L 1.9375 -28.578125 C 3.207031 -27.804688 4.210938 -26.769531 4.953125 -25.46875 C 5.703125 -24.164062 6.097656 -22.546875 6.140625 -20.609375 C 6.191406 -18.679688 5.78125 -16.382812 4.90625 -13.71875 Z M 4.90625 -13.71875 "/></g></g></g><g fill="#060606" fill-opacity="0.6588"><g transform="translate(291.3181, 148.572685)"><g><path d="M -0.078125 -28.46875 L -0.0625 -20.390625 L -7.84375 -20.375 L -7.8125 -10.21875 L -0.03125 -10.234375 L 0 -2.15625 L -19.265625 -2.09375 L -19.296875 -10.171875 L -11.515625 -10.203125 L -11.546875 -20.359375 L -19.328125 -20.328125 L -19.34375 -28.40625 Z M -0.078125 -28.46875 "/></g></g></g><g fill="#03989e" fill-opacity="1"><g transform="translate(85.881047, 116.524384)"><g><path d="M -0.546875 16.421875 L -0.28125 8.359375 L 14.203125 8.84375 L 14.453125 1.296875 L 19.21875 1.46875 L 18.4375 24.625 L 13.671875 24.453125 L 13.9375 16.90625 Z M -0.546875 16.421875 "/></g></g></g><g fill="#03989e" fill-opacity="1"><g transform="translate(85.00832, 144.060037)"><g><path d="M 7.21875 27.515625 L 5.28125 20.125 C 5.65625 19.664062 6.191406 19.273438 6.890625 18.953125 C 7.410156 18.679688 7.910156 18.351562 8.390625 17.96875 C 8.878906 17.582031 9.222656 17.046875 9.421875 16.359375 C 9.617188 15.671875 9.582031 14.742188 9.3125 13.578125 L 7.96875 8.5 L 2.59375 9.90625 L 0.546875 2.078125 L 19.1875 -2.8125 L 22.53125 9.90625 C 23.320312 12.9375 23.734375 15.445312 23.765625 17.4375 C 23.804688 19.425781 23.453125 20.972656 22.703125 22.078125 C 21.953125 23.191406 20.789062 23.953125 19.21875 24.359375 C 17.90625 24.703125 16.722656 24.691406 15.671875 24.328125 C 14.628906 23.972656 13.6875 23.222656 12.84375 22.078125 C 12.644531 23.453125 12.238281 24.414062 11.625 24.96875 C 11.007812 25.53125 10.285156 25.972656 9.453125 26.296875 C 8.710938 26.566406 7.96875 26.972656 7.21875 27.515625 Z M 12.5625 7.28125 L 13.75 11.734375 C 14.082031 12.984375 14.398438 13.953125 14.703125 14.640625 C 15.003906 15.335938 15.296875 15.832031 15.578125 16.125 C 15.859375 16.414062 16.128906 16.578125 16.390625 16.609375 C 16.660156 16.640625 16.921875 16.617188 17.171875 16.546875 C 17.421875 16.484375 17.65625 16.375 17.875 16.21875 C 18.09375 16.0625 18.253906 15.785156 18.359375 15.390625 C 18.460938 14.992188 18.476562 14.421875 18.40625 13.671875 C 18.332031 12.921875 18.128906 11.921875 17.796875 10.671875 L 16.625 6.21875 Z M 12.5625 7.28125 "/></g></g></g><g fill="#03989e" fill-opacity="1"><g transform="translate(93.562356, 175.580372)"><g><path d="M 17.953125 26.921875 L 13.40625 20.109375 L 15.03125 16.859375 L 8.28125 6.734375 L 4.65625 6.984375 L 0.109375 0.171875 L 22.96875 -0.25 L 27.125 6 Z M 17.484375 11.9375 L 20.484375 5.90625 L 13.765625 6.375 Z M 17.484375 11.9375 "/></g></g></g><g fill="#03989e" fill-opacity="1"><g transform="translate(113.95408, 204.78251)"><g><path d="M 14.703125 11.21875 L 8.75 6.671875 L 11.828125 -15.1875 L 18.34375 -10.21875 L 15.0625 4.578125 L 28.453125 -2.515625 L 34.96875 2.453125 Z M 14.703125 11.21875 "/></g></g></g><g fill="#03989e" fill-opacity="1"><g transform="translate(139.992755, 223.825797)"><g><path d="M 23.796875 8.765625 L 2.03125 0.75 L 8.6875 -17.328125 L 29.453125 -9.6875 L 27.8125 -5.21875 L 14.625 -10.078125 L 13.578125 -7.25 L 24.71875 -3.140625 L 23.4375 0.34375 L 12.296875 -3.765625 L 11.25 -0.9375 L 25.4375 4.296875 Z M 23.796875 8.765625 "/></g></g></g><g fill="#03989e" fill-opacity="1"><g transform="translate(167.356529, 233.423637)"><g><path d="M 24.5625 1.890625 L 2.15625 0.171875 L 3.625 -19.03125 L 11.671875 -18.421875 L 10.5625 -3.96875 L 24.921875 -2.859375 Z M 24.5625 1.890625 "/></g></g></g><g fill="#ff914c" fill-opacity="1"><g transform="translate(194.164013, 234.540143)"><g/></g></g><g fill="#ff914c" fill-opacity="1"><g transform="translate(201.901539, 233.756982)"><g/></g></g><g fill="#ff914c" fill-opacity="1"><g transform="translate(210.461468, 232.896007)"><g><path d="M 15.484375 -5.53125 L 7.875 -2.8125 L 3 -16.46875 L -4.109375 -13.921875 L -5.71875 -18.40625 L 16.109375 -26.203125 L 17.71875 -21.71875 L 10.609375 -19.1875 Z M 15.484375 -5.53125 "/></g></g></g><g fill="#ff914c" fill-opacity="1"><g transform="translate(236.3557, 223.565183)"><g><path d="M 12 -8.25 C 8.15625 -5.4375 4.75 -4.164062 1.78125 -4.4375 C -0.84375 -4.664062 -3.039062 -5.988281 -4.8125 -8.40625 C -6.570312 -10.820312 -7.160156 -13.316406 -6.578125 -15.890625 C -5.929688 -18.796875 -3.6875 -21.65625 0.15625 -24.46875 C 4.007812 -27.28125 7.421875 -28.554688 10.390625 -28.296875 C 13.015625 -28.066406 15.207031 -26.742188 16.96875 -24.328125 C 18.738281 -21.910156 19.332031 -19.414062 18.75 -16.84375 C 18.101562 -13.925781 15.851562 -11.0625 12 -8.25 Z M 8.953125 -12.421875 C 10.535156 -13.578125 11.359375 -14.878906 11.421875 -16.328125 C 11.492188 -17.484375 11.164062 -18.554688 10.4375 -19.546875 C 9.71875 -20.546875 8.789062 -21.1875 7.65625 -21.46875 C 6.257812 -21.84375 4.769531 -21.453125 3.1875 -20.296875 C 1.613281 -19.148438 0.789062 -17.851562 0.71875 -16.40625 C 0.65625 -15.25 0.984375 -14.171875 1.703125 -13.171875 C 2.429688 -12.179688 3.359375 -11.546875 4.484375 -11.265625 C 5.890625 -10.890625 7.378906 -11.273438 8.953125 -12.421875 Z M 8.953125 -12.421875 "/></g></g></g><g fill="#ff914c" fill-opacity="1"><g transform="translate(261.985437, 204.294257)"><g><path d="M 16.671875 -23.046875 L 12.203125 -16.859375 C 11.609375 -16.859375 10.960938 -17.023438 10.265625 -17.359375 C 9.722656 -17.585938 9.148438 -17.765625 8.546875 -17.890625 C 7.953125 -18.023438 7.320312 -17.953125 6.65625 -17.671875 C 6 -17.390625 5.304688 -16.769531 4.578125 -15.8125 L 1.5 -11.5625 L 6 -8.296875 L 1.265625 -1.75 L -14.34375 -13.046875 L -6.640625 -23.6875 C -4.804688 -26.226562 -3.128906 -28.144531 -1.609375 -29.4375 C -0.0976562 -30.726562 1.316406 -31.4375 2.640625 -31.5625 C 3.972656 -31.6875 5.300781 -31.269531 6.625 -30.3125 C 7.71875 -29.519531 8.457031 -28.601562 8.84375 -27.5625 C 9.226562 -26.53125 9.253906 -25.328125 8.921875 -23.953125 C 10.097656 -24.679688 11.097656 -24.976562 11.921875 -24.84375 C 12.742188 -24.71875 13.539062 -24.4375 14.3125 -24 C 15 -23.601562 15.785156 -23.285156 16.671875 -23.046875 Z M -2.359375 -14.34375 L 0.328125 -18.078125 C 1.078125 -19.117188 1.625 -19.972656 1.96875 -20.640625 C 2.320312 -21.316406 2.519531 -21.859375 2.5625 -22.265625 C 2.601562 -22.671875 2.550781 -22.988281 2.40625 -23.21875 C 2.269531 -23.445312 2.097656 -23.632812 1.890625 -23.78125 C 1.671875 -23.9375 1.429688 -24.046875 1.171875 -24.109375 C 0.921875 -24.171875 0.609375 -24.117188 0.234375 -23.953125 C -0.140625 -23.785156 -0.59375 -23.429688 -1.125 -22.890625 C -1.65625 -22.359375 -2.296875 -21.570312 -3.046875 -20.53125 L -5.75 -16.796875 Z M -2.359375 -14.34375 "/></g></g></g><g fill="#ff914c" fill-opacity="1"><g transform="translate(280.57878, 177.726147)"><g><path d="M 4.90625 -13.71875 C 3.4375 -9.195312 1.414062 -6.171875 -1.15625 -4.640625 C -3.40625 -3.285156 -5.957031 -3.070312 -8.8125 -4 C -11.664062 -4.925781 -13.613281 -6.601562 -14.65625 -9.03125 C -15.800781 -11.769531 -15.640625 -15.398438 -14.171875 -19.921875 C -13.296875 -22.585938 -12.269531 -24.6875 -11.09375 -26.21875 C -9.925781 -27.757812 -8.660156 -28.835938 -7.296875 -29.453125 C -5.929688 -30.066406 -4.519531 -30.316406 -3.0625 -30.203125 L -5.703125 -22.125 C -7.378906 -21.769531 -8.570312 -20.503906 -9.28125 -18.328125 C -9.882812 -16.472656 -9.789062 -14.9375 -9 -13.71875 C -8.375 -12.738281 -7.476562 -12.054688 -6.3125 -11.671875 C -5.15625 -11.296875 -4.035156 -11.320312 -2.953125 -11.75 C -1.585938 -12.269531 -0.601562 -13.457031 0 -15.3125 C 0.707031 -17.488281 0.472656 -19.21875 -0.703125 -20.5 L 1.9375 -28.578125 C 3.207031 -27.804688 4.210938 -26.769531 4.953125 -25.46875 C 5.703125 -24.164062 6.097656 -22.546875 6.140625 -20.609375 C 6.191406 -18.679688 5.78125 -16.382812 4.90625 -13.71875 Z M 4.90625 -13.71875 "/></g></g></g><g fill="#ff914c" fill-opacity="1"><g transform="translate(290.102894, 147.357452)"><g><path d="M -0.078125 -28.46875 L -0.0625 -20.390625 L -7.84375 -20.375 L -7.8125 -10.21875 L -0.03125 -10.234375 L 0 -2.15625 L -19.265625 -2.09375 L -19.296875 -10.171875 L -11.515625 -10.203125 L -11.546875 -20.359375 L -19.328125 -20.328125 L -19.34375 -28.40625 Z M -0.078125 -28.46875 "/></g></g></g><g fill="#ffffff" fill-opacity="1"><g transform="translate(18.227352, 272.642341)"><g><path d="M 4.96875 0 L -0.4375 -12.875 L 2.875 -12.875 L 6.125 -4.421875 L 9.359375 -12.875 L 12.671875 -12.875 L 7.28125 0 Z M 4.96875 0 "/></g></g></g><g fill="#ffffff" fill-opacity="1"><g transform="translate(33.590378, 272.642341)"><g><path d="M 1.203125 -12.46875 C 1.523438 -12.789062 1.910156 -12.953125 2.359375 -12.953125 C 2.804688 -12.953125 3.191406 -12.789062 3.515625 -12.46875 C 3.835938 -12.144531 4 -11.757812 4 -11.3125 C 4 -10.863281 3.835938 -10.476562 3.515625 -10.15625 C 3.191406 -9.832031 2.804688 -9.671875 2.359375 -9.671875 C 1.910156 -9.671875 1.523438 -9.832031 1.203125 -10.15625 C 0.878906 -10.476562 0.71875 -10.863281 0.71875 -11.3125 C 0.71875 -11.757812 0.878906 -12.144531 1.203125 -12.46875 Z M 0.9375 -8 L 0.9375 0 L 3.703125 0 L 3.703125 -8 Z M 0.9375 -8 "/></g></g></g><g fill="#ffffff" fill-opacity="1"><g transform="translate(41.429107, 272.642341)"><g><path d="M 4.421875 -8.234375 C 4.878906 -8.234375 5.332031 -8.179688 5.78125 -8.078125 C 6.226562 -7.972656 6.5625 -7.867188 6.78125 -7.765625 L 7.109375 -7.625 L 6.203125 -5.8125 C 5.578125 -6.144531 4.984375 -6.3125 4.421875 -6.3125 C 4.109375 -6.3125 3.882812 -6.273438 3.75 -6.203125 C 3.625 -6.140625 3.5625 -6.015625 3.5625 -5.828125 C 3.5625 -5.785156 3.566406 -5.742188 3.578125 -5.703125 C 3.585938 -5.660156 3.609375 -5.617188 3.640625 -5.578125 C 3.671875 -5.546875 3.695312 -5.515625 3.71875 -5.484375 C 3.75 -5.460938 3.796875 -5.4375 3.859375 -5.40625 C 3.921875 -5.375 3.96875 -5.347656 4 -5.328125 C 4.039062 -5.316406 4.101562 -5.296875 4.1875 -5.265625 C 4.269531 -5.234375 4.332031 -5.207031 4.375 -5.1875 C 4.414062 -5.175781 4.484375 -5.15625 4.578125 -5.125 C 4.679688 -5.09375 4.757812 -5.070312 4.8125 -5.0625 C 5.132812 -4.96875 5.414062 -4.863281 5.65625 -4.75 C 5.894531 -4.632812 6.144531 -4.476562 6.40625 -4.28125 C 6.675781 -4.082031 6.882812 -3.832031 7.03125 -3.53125 C 7.175781 -3.226562 7.25 -2.882812 7.25 -2.5 C 7.25 -0.675781 5.984375 0.234375 3.453125 0.234375 C 2.878906 0.234375 2.332031 0.144531 1.8125 -0.03125 C 1.300781 -0.207031 0.929688 -0.382812 0.703125 -0.5625 L 0.359375 -0.84375 L 1.484375 -2.734375 C 1.566406 -2.660156 1.675781 -2.570312 1.8125 -2.46875 C 1.945312 -2.375 2.191406 -2.238281 2.546875 -2.0625 C 2.898438 -1.894531 3.207031 -1.8125 3.46875 -1.8125 C 4.039062 -1.8125 4.328125 -2.003906 4.328125 -2.390625 C 4.328125 -2.566406 4.253906 -2.703125 4.109375 -2.796875 C 3.960938 -2.898438 3.710938 -3.015625 3.359375 -3.140625 C 3.015625 -3.265625 2.742188 -3.378906 2.546875 -3.484375 C 2.046875 -3.742188 1.648438 -4.035156 1.359375 -4.359375 C 1.066406 -4.691406 0.921875 -5.128906 0.921875 -5.671875 C 0.921875 -6.484375 1.234375 -7.113281 1.859375 -7.5625 C 2.492188 -8.007812 3.347656 -8.234375 4.421875 -8.234375 Z M 4.421875 -8.234375 "/></g></g></g><g fill="#ffffff" fill-opacity="1"><g transform="translate(52.233845, 272.642341)"><g><path d="M 3.546875 -8 L 3.546875 -4.203125 C 3.546875 -3.410156 3.664062 -2.847656 3.90625 -2.515625 C 4.144531 -2.179688 4.550781 -2.015625 5.125 -2.015625 C 5.695312 -2.015625 6.101562 -2.179688 6.34375 -2.515625 C 6.582031 -2.847656 6.703125 -3.410156 6.703125 -4.203125 L 6.703125 -8 L 9.453125 -8 L 9.453125 -3.53125 C 9.453125 -2.195312 9.109375 -1.234375 8.421875 -0.640625 C 7.734375 -0.0546875 6.632812 0.234375 5.125 0.234375 C 3.613281 0.234375 2.507812 -0.0546875 1.8125 -0.640625 C 1.125 -1.234375 0.78125 -2.195312 0.78125 -3.53125 L 0.78125 -8 Z M 3.546875 -8 "/></g></g></g><g fill="#ffffff" fill-opacity="1"><g transform="translate(65.598719, 272.642341)"><g><path d="M 1.484375 -0.984375 C 0.734375 -1.804688 0.359375 -2.8125 0.359375 -4 C 0.359375 -5.1875 0.734375 -6.1875 1.484375 -7 C 2.234375 -7.820312 3.1875 -8.234375 4.34375 -8.234375 C 5.40625 -8.234375 6.28125 -7.90625 6.96875 -7.25 L 6.96875 -8 L 9.71875 -8 L 9.71875 0 L 7 0 L 7 -0.90625 L 6.96875 -0.90625 C 6.28125 -0.144531 5.40625 0.234375 4.34375 0.234375 C 3.1875 0.234375 2.234375 -0.171875 1.484375 -0.984375 Z M 3.828125 -5.359375 C 3.472656 -5.003906 3.296875 -4.550781 3.296875 -4 C 3.296875 -3.445312 3.46875 -2.992188 3.8125 -2.640625 C 4.15625 -2.296875 4.609375 -2.125 5.171875 -2.125 C 5.710938 -2.125 6.15625 -2.300781 6.5 -2.65625 C 6.851562 -3.007812 7.03125 -3.457031 7.03125 -4 C 7.03125 -4.550781 6.847656 -5.003906 6.484375 -5.359375 C 6.128906 -5.710938 5.691406 -5.890625 5.171875 -5.890625 C 4.640625 -5.890625 4.191406 -5.710938 3.828125 -5.359375 Z M 3.828125 -5.359375 "/></g></g></g><g fill="#ffffff" fill-opacity="1"><g transform="translate(79.385074, 272.642341)"><g><path d="M 0.9375 0 L 0.9375 -13.421875 L 3.703125 -13.421875 L 3.703125 0 Z M 0.9375 0 "/></g></g></g><g fill="#ffffff" fill-opacity="1"><g transform="translate(87.145748, 272.642341)"><g><path d="M 1.203125 -12.46875 C 1.523438 -12.789062 1.910156 -12.953125 2.359375 -12.953125 C 2.804688 -12.953125 3.191406 -12.789062 3.515625 -12.46875 C 3.835938 -12.144531 4 -11.757812 4 -11.3125 C 4 -10.863281 3.835938 -10.476562 3.515625 -10.15625 C 3.191406 -9.832031 2.804688 -9.671875 2.359375 -9.671875 C 1.910156 -9.671875 1.523438 -9.832031 1.203125 -10.15625 C 0.878906 -10.476562 0.71875 -10.863281 0.71875 -11.3125 C 0.71875 -11.757812 0.878906 -12.144531 1.203125 -12.46875 Z M 0.9375 -8 L 0.9375 0 L 3.703125 0 L 3.703125 -8 Z M 0.9375 -8 "/></g></g></g><g fill="#ffffff" fill-opacity="1"><g transform="translate(94.984474, 272.642341)"><g><path d="M 8.671875 -8 L 4.71875 -2.109375 L 8.359375 -2.109375 L 8.359375 0 L 0.078125 0 L 4.046875 -5.90625 L 0.734375 -5.90625 L 0.734375 -8 Z M 8.671875 -8 "/></g></g></g><g fill="#ffffff" fill-opacity="1"><g transform="translate(106.86634, 272.642341)"><g><path d="M 9.03125 -3.625 L 3.234375 -3.625 C 3.234375 -3.0625 3.414062 -2.644531 3.78125 -2.375 C 4.144531 -2.101562 4.539062 -1.96875 4.96875 -1.96875 C 5.414062 -1.96875 5.769531 -2.023438 6.03125 -2.140625 C 6.289062 -2.265625 6.585938 -2.503906 6.921875 -2.859375 L 8.90625 -1.859375 C 8.082031 -0.460938 6.703125 0.234375 4.765625 0.234375 C 3.554688 0.234375 2.519531 -0.175781 1.65625 -1 C 0.789062 -1.832031 0.359375 -2.832031 0.359375 -4 C 0.359375 -5.164062 0.789062 -6.160156 1.65625 -6.984375 C 2.519531 -7.816406 3.554688 -8.234375 4.765625 -8.234375 C 6.035156 -8.234375 7.066406 -7.867188 7.859375 -7.140625 C 8.648438 -6.410156 9.046875 -5.363281 9.046875 -4 C 9.046875 -3.8125 9.039062 -3.6875 9.03125 -3.625 Z M 3.3125 -5.15625 L 6.359375 -5.15625 C 6.296875 -5.570312 6.128906 -5.890625 5.859375 -6.109375 C 5.597656 -6.335938 5.257812 -6.453125 4.84375 -6.453125 C 4.382812 -6.453125 4.019531 -6.332031 3.75 -6.09375 C 3.476562 -5.851562 3.332031 -5.539062 3.3125 -5.15625 Z M 3.3125 -5.15625 "/></g></g></g><g fill="#ffffff" fill-opacity="1"><g transform="translate(119.403844, 272.642341)"><g><path d="M 2.71875 -3.34375 C 3.21875 -3.34375 3.640625 -3.164062 3.984375 -2.8125 C 4.335938 -2.46875 4.515625 -2.046875 4.515625 -1.546875 C 4.515625 -0.00390625 3.640625 1.488281 1.890625 2.9375 L 1.09375 2.28125 C 1.164062 2.21875 1.253906 2.125 1.359375 2 C 1.472656 1.875 1.632812 1.617188 1.84375 1.234375 C 2.0625 0.859375 2.207031 0.476562 2.28125 0.09375 C 1.882812 0 1.5625 -0.191406 1.3125 -0.484375 C 1.0625 -0.785156 0.9375 -1.140625 0.9375 -1.546875 C 0.9375 -2.046875 1.109375 -2.46875 1.453125 -2.8125 C 1.804688 -3.164062 2.226562 -3.34375 2.71875 -3.34375 Z M 2.71875 -3.34375 "/></g></g></g><g fill="#ffffff" fill-opacity="1"><g transform="translate(127.97627, 272.642341)"><g><path d="M 11.578125 0 L 10.96875 -7.640625 L 10.890625 -7.640625 L 8.25 -0.078125 L 6.515625 -0.078125 L 3.875 -7.640625 L 3.796875 -7.640625 L 3.1875 0 L 0.25 0 L 1.40625 -12.875 L 4.53125 -12.875 L 7.390625 -5.453125 L 10.234375 -12.875 L 13.359375 -12.875 L 14.515625 0 Z M 11.578125 0 "/></g></g></g><g fill="#ffffff" fill-opacity="1"><g transform="translate(145.8682, 272.642341)"><g><path d="M 1.484375 -0.984375 C 0.734375 -1.804688 0.359375 -2.8125 0.359375 -4 C 0.359375 -5.1875 0.734375 -6.1875 1.484375 -7 C 2.234375 -7.820312 3.1875 -8.234375 4.34375 -8.234375 C 5.40625 -8.234375 6.28125 -7.90625 6.96875 -7.25 L 6.96875 -8 L 9.71875 -8 L 9.71875 0 L 7 0 L 7 -0.90625 L 6.96875 -0.90625 C 6.28125 -0.144531 5.40625 0.234375 4.34375 0.234375 C 3.1875 0.234375 2.234375 -0.171875 1.484375 -0.984375 Z M 3.828125 -5.359375 C 3.472656 -5.003906 3.296875 -4.550781 3.296875 -4 C 3.296875 -3.445312 3.46875 -2.992188 3.8125 -2.640625 C 4.15625 -2.296875 4.609375 -2.125 5.171875 -2.125 C 5.710938 -2.125 6.15625 -2.300781 6.5 -2.65625 C 6.851562 -3.007812 7.03125 -3.457031 7.03125 -4 C 7.03125 -4.550781 6.847656 -5.003906 6.484375 -5.359375 C 6.128906 -5.710938 5.691406 -5.890625 5.171875 -5.890625 C 4.640625 -5.890625 4.191406 -5.710938 3.828125 -5.359375 Z M 3.828125 -5.359375 "/></g></g></g><g fill="#ffffff" fill-opacity="1"><g transform="translate(159.654559, 272.642341)"><g><path d="M 0.9375 0 L 0.9375 -8 L 3.703125 -8 L 3.703125 -7.171875 L 3.734375 -7.171875 C 4.453125 -7.878906 5.21875 -8.234375 6.03125 -8.234375 C 6.425781 -8.234375 6.816406 -8.179688 7.203125 -8.078125 C 7.585938 -7.972656 7.957031 -7.8125 8.3125 -7.59375 C 8.675781 -7.382812 8.96875 -7.078125 9.1875 -6.671875 C 9.414062 -6.273438 9.53125 -5.8125 9.53125 -5.28125 L 9.53125 0 L 6.78125 0 L 6.78125 -4.53125 C 6.78125 -4.945312 6.644531 -5.3125 6.375 -5.625 C 6.113281 -5.9375 5.769531 -6.09375 5.34375 -6.09375 C 4.925781 -6.09375 4.546875 -5.929688 4.203125 -5.609375 C 3.867188 -5.285156 3.703125 -4.925781 3.703125 -4.53125 L 3.703125 0 Z M 0.9375 0 "/></g></g></g><g fill="#ffffff" fill-opacity="1"><g transform="translate(173.097482, 272.642341)"><g><path d="M 1.484375 -0.984375 C 0.734375 -1.804688 0.359375 -2.8125 0.359375 -4 C 0.359375 -5.1875 0.734375 -6.1875 1.484375 -7 C 2.234375 -7.820312 3.1875 -8.234375 4.34375 -8.234375 C 5.40625 -8.234375 6.28125 -7.90625 6.96875 -7.25 L 6.96875 -8 L 9.71875 -8 L 9.71875 0 L 7 0 L 7 -0.90625 L 6.96875 -0.90625 C 6.28125 -0.144531 5.40625 0.234375 4.34375 0.234375 C 3.1875 0.234375 2.234375 -0.171875 1.484375 -0.984375 Z M 3.828125 -5.359375 C 3.472656 -5.003906 3.296875 -4.550781 3.296875 -4 C 3.296875 -3.445312 3.46875 -2.992188 3.8125 -2.640625 C 4.15625 -2.296875 4.609375 -2.125 5.171875 -2.125 C 5.710938 -2.125 6.15625 -2.300781 6.5 -2.65625 C 6.851562 -3.007812 7.03125 -3.457031 7.03125 -4 C 7.03125 -4.550781 6.847656 -5.003906 6.484375 -5.359375 C 6.128906 -5.710938 5.691406 -5.890625 5.171875 -5.890625 C 4.640625 -5.890625 4.191406 -5.710938 3.828125 -5.359375 Z M 3.828125 -5.359375 "/></g></g></g><g fill="#ffffff" fill-opacity="1"><g transform="translate(186.883841, 272.642341)"><g><path d="M 0.578125 1.96875 L 2.84375 0.859375 C 3.257812 1.546875 3.984375 1.890625 5.015625 1.890625 C 5.492188 1.890625 5.9375 1.734375 6.34375 1.421875 C 6.757812 1.117188 6.96875 0.648438 6.96875 0.015625 L 6.96875 -0.578125 C 6.476562 -0.0351562 5.601562 0.234375 4.34375 0.234375 C 3.1875 0.234375 2.234375 -0.171875 1.484375 -0.984375 C 0.734375 -1.804688 0.359375 -2.8125 0.359375 -4 C 0.359375 -5.1875 0.734375 -6.1875 1.484375 -7 C 2.234375 -7.820312 3.1875 -8.234375 4.34375 -8.234375 C 5.375 -8.234375 6.234375 -7.921875 6.921875 -7.296875 L 6.96875 -7.296875 L 6.96875 -8 L 9.71875 -8 L 9.71875 0.21875 C 9.71875 1.519531 9.285156 2.523438 8.421875 3.234375 C 7.566406 3.941406 6.429688 4.296875 5.015625 4.296875 C 2.722656 4.296875 1.242188 3.519531 0.578125 1.96875 Z M 3.828125 -5.359375 C 3.472656 -5.003906 3.296875 -4.550781 3.296875 -4 C 3.296875 -3.445312 3.46875 -2.992188 3.8125 -2.640625 C 4.15625 -2.296875 4.609375 -2.125 5.171875 -2.125 C 5.710938 -2.125 6.15625 -2.300781 6.5 -2.65625 C 6.851562 -3.007812 7.03125 -3.457031 7.03125 -4 C 7.03125 -4.550781 6.847656 -5.003906 6.484375 -5.359375 C 6.128906 -5.710938 5.691406 -5.890625 5.171875 -5.890625 C 4.640625 -5.890625 4.191406 -5.710938 3.828125 -5.359375 Z M 3.828125 -5.359375 "/></g></g></g><g fill="#ffffff" fill-opacity="1"><g transform="translate(200.6702, 272.642341)"><g><path d="M 9.03125 -3.625 L 3.234375 -3.625 C 3.234375 -3.0625 3.414062 -2.644531 3.78125 -2.375 C 4.144531 -2.101562 4.539062 -1.96875 4.96875 -1.96875 C 5.414062 -1.96875 5.769531 -2.023438 6.03125 -2.140625 C 6.289062 -2.265625 6.585938 -2.503906 6.921875 -2.859375 L 8.90625 -1.859375 C 8.082031 -0.460938 6.703125 0.234375 4.765625 0.234375 C 3.554688 0.234375 2.519531 -0.175781 1.65625 -1 C 0.789062 -1.832031 0.359375 -2.832031 0.359375 -4 C 0.359375 -5.164062 0.789062 -6.160156 1.65625 -6.984375 C 2.519531 -7.816406 3.554688 -8.234375 4.765625 -8.234375 C 6.035156 -8.234375 7.066406 -7.867188 7.859375 -7.140625 C 8.648438 -6.410156 9.046875 -5.363281 9.046875 -4 C 9.046875 -3.8125 9.039062 -3.6875 9.03125 -3.625 Z M 3.3125 -5.15625 L 6.359375 -5.15625 C 6.296875 -5.570312 6.128906 -5.890625 5.859375 -6.109375 C 5.597656 -6.335938 5.257812 -6.453125 4.84375 -6.453125 C 4.382812 -6.453125 4.019531 -6.332031 3.75 -6.09375 C 3.476562 -5.851562 3.332031 -5.539062 3.3125 -5.15625 Z M 3.3125 -5.15625 "/></g></g></g><g fill="#ffffff" fill-opacity="1"><g transform="translate(213.207705, 272.642341)"><g/></g></g><g fill="#ffffff" fill-opacity="1"><g transform="translate(220.59373, 272.642341)"><g><path d="M 0.453125 -3.390625 C 0.453125 -3.773438 0.539062 -4.144531 0.71875 -4.5 C 0.894531 -4.851562 1.144531 -5.175781 1.46875 -5.46875 C 1.789062 -5.757812 2.117188 -6.015625 2.453125 -6.234375 C 2.785156 -6.453125 3.164062 -6.675781 3.59375 -6.90625 C 2.726562 -7.976562 2.296875 -8.925781 2.296875 -9.75 C 2.296875 -10.769531 2.648438 -11.582031 3.359375 -12.1875 C 4.078125 -12.800781 5.09375 -13.109375 6.40625 -13.109375 C 7.601562 -13.109375 8.535156 -12.769531 9.203125 -12.09375 C 9.878906 -11.414062 10.21875 -10.632812 10.21875 -9.75 C 10.21875 -9.382812 10.128906 -9.023438 9.953125 -8.671875 C 9.773438 -8.328125 9.5625 -8.035156 9.3125 -7.796875 C 9.070312 -7.554688 8.828125 -7.34375 8.578125 -7.15625 C 8.328125 -6.96875 8.113281 -6.828125 7.9375 -6.734375 L 7.6875 -6.59375 L 9.390625 -4.8125 C 9.765625 -4.976562 10.394531 -5.519531 11.28125 -6.4375 L 13.09375 -4.65625 C 12.507812 -3.988281 11.898438 -3.398438 11.265625 -2.890625 L 14.046875 0 L 10.34375 0 L 9.0625 -1.328125 C 8.664062 -1.046875 8.375 -0.84375 8.1875 -0.71875 C 8 -0.601562 7.722656 -0.453125 7.359375 -0.265625 C 6.992188 -0.078125 6.613281 0.0507812 6.21875 0.125 C 5.832031 0.195312 5.40625 0.234375 4.9375 0.234375 C 4.53125 0.234375 4.128906 0.195312 3.734375 0.125 C 3.335938 0.0625 2.9375 -0.0507812 2.53125 -0.21875 C 2.132812 -0.394531 1.785156 -0.613281 1.484375 -0.875 C 1.179688 -1.132812 0.929688 -1.476562 0.734375 -1.90625 C 0.546875 -2.34375 0.453125 -2.835938 0.453125 -3.390625 Z M 6.40625 -11.03125 C 6.03125 -11.03125 5.75 -10.910156 5.5625 -10.671875 C 5.375 -10.429688 5.28125 -10.125 5.28125 -9.75 C 5.28125 -9.53125 5.359375 -9.285156 5.515625 -9.015625 C 5.671875 -8.753906 5.828125 -8.546875 5.984375 -8.390625 L 6.21875 -8.171875 C 7.175781 -8.691406 7.65625 -9.21875 7.65625 -9.75 C 7.65625 -10.601562 7.238281 -11.03125 6.40625 -11.03125 Z M 7.171875 -3.28125 L 5.125 -5.296875 C 5.09375 -5.285156 5.046875 -5.265625 4.984375 -5.234375 C 4.921875 -5.210938 4.8125 -5.148438 4.65625 -5.046875 C 4.5 -4.953125 4.363281 -4.84375 4.25 -4.71875 C 4.132812 -4.601562 4.023438 -4.445312 3.921875 -4.25 C 3.828125 -4.050781 3.78125 -3.84375 3.78125 -3.625 C 3.78125 -3.28125 3.925781 -3.015625 4.21875 -2.828125 C 4.507812 -2.640625 4.847656 -2.546875 5.234375 -2.546875 C 5.546875 -2.546875 5.863281 -2.601562 6.1875 -2.71875 C 6.507812 -2.84375 6.753906 -2.96875 6.921875 -3.09375 Z M 7.171875 -3.28125 "/></g></g></g><g fill="#ffffff" fill-opacity="1"><g transform="translate(236.721679, 272.642341)"><g/></g></g><g fill="#ffffff" fill-opacity="1"><g transform="translate(244.107704, 272.642341)"><g><path d="M 0.9375 -12.875 L 4.9375 -12.875 C 6.144531 -12.875 7.101562 -12.613281 7.8125 -12.09375 C 8.53125 -11.582031 8.890625 -10.75 8.890625 -9.59375 C 8.890625 -8.3125 8.359375 -7.394531 7.296875 -6.84375 C 9.117188 -6.519531 10.03125 -5.4375 10.03125 -3.59375 C 10.03125 -2.507812 9.65625 -1.640625 8.90625 -0.984375 C 8.15625 -0.328125 7.128906 0 5.828125 0 L 0.9375 0 Z M 3.875 -7.828125 L 4.109375 -7.828125 C 4.765625 -7.828125 5.253906 -7.941406 5.578125 -8.171875 C 5.898438 -8.398438 6.0625 -8.773438 6.0625 -9.296875 C 6.0625 -10.171875 5.410156 -10.609375 4.109375 -10.609375 L 3.875 -10.609375 Z M 3.875 -2.265625 L 4.796875 -2.265625 C 6.234375 -2.265625 6.953125 -2.742188 6.953125 -3.703125 C 6.953125 -4.273438 6.769531 -4.6875 6.40625 -4.9375 C 6.050781 -5.1875 5.515625 -5.3125 4.796875 -5.3125 L 3.875 -5.3125 Z M 3.875 -2.265625 "/></g></g></g><g fill="#ffffff" fill-opacity="1"><g transform="translate(257.628686, 272.642341)"><g><path d="M 1.6875 -0.953125 C 0.800781 -1.742188 0.359375 -2.757812 0.359375 -4 C 0.359375 -5.238281 0.820312 -6.253906 1.75 -7.046875 C 2.675781 -7.835938 3.820312 -8.234375 5.1875 -8.234375 C 6.53125 -8.234375 7.660156 -7.832031 8.578125 -7.03125 C 9.492188 -6.238281 9.953125 -5.226562 9.953125 -4 C 9.953125 -2.769531 9.503906 -1.753906 8.609375 -0.953125 C 7.710938 -0.160156 6.570312 0.234375 5.1875 0.234375 C 3.75 0.234375 2.582031 -0.160156 1.6875 -0.953125 Z M 3.828125 -5.359375 C 3.472656 -5.003906 3.296875 -4.550781 3.296875 -4 C 3.296875 -3.445312 3.46875 -2.992188 3.8125 -2.640625 C 4.15625 -2.296875 4.609375 -2.125 5.171875 -2.125 C 5.710938 -2.125 6.15625 -2.300781 6.5 -2.65625 C 6.851562 -3.007812 7.03125 -3.457031 7.03125 -4 C 7.03125 -4.550781 6.847656 -5.003906 6.484375 -5.359375 C 6.128906 -5.710938 5.691406 -5.890625 5.171875 -5.890625 C 4.640625 -5.890625 4.191406 -5.710938 3.828125 -5.359375 Z M 3.828125 -5.359375 "/></g></g></g><g fill="#ffffff" fill-opacity="1"><g transform="translate(271.071609, 272.642341)"><g><path d="M 1.6875 -0.953125 C 0.800781 -1.742188 0.359375 -2.757812 0.359375 -4 C 0.359375 -5.238281 0.820312 -6.253906 1.75 -7.046875 C 2.675781 -7.835938 3.820312 -8.234375 5.1875 -8.234375 C 6.53125 -8.234375 7.660156 -7.832031 8.578125 -7.03125 C 9.492188 -6.238281 9.953125 -5.226562 9.953125 -4 C 9.953125 -2.769531 9.503906 -1.753906 8.609375 -0.953125 C 7.710938 -0.160156 6.570312 0.234375 5.1875 0.234375 C 3.75 0.234375 2.582031 -0.160156 1.6875 -0.953125 Z M 3.828125 -5.359375 C 3.472656 -5.003906 3.296875 -4.550781 3.296875 -4 C 3.296875 -3.445312 3.46875 -2.992188 3.8125 -2.640625 C 4.15625 -2.296875 4.609375 -2.125 5.171875 -2.125 C 5.710938 -2.125 6.15625 -2.300781 6.5 -2.65625 C 6.851562 -3.007812 7.03125 -3.457031 7.03125 -4 C 7.03125 -4.550781 6.847656 -5.003906 6.484375 -5.359375 C 6.128906 -5.710938 5.691406 -5.890625 5.171875 -5.890625 C 4.640625 -5.890625 4.191406 -5.710938 3.828125 -5.359375 Z M 3.828125 -5.359375 "/></g></g></g><g fill="#ffffff" fill-opacity="1"><g transform="translate(284.514546, 272.642341)"><g><path d="M 10.078125 -8 L 6.28125 -4.1875 L 10.453125 0 L 6.90625 0 L 3.703125 -3.203125 L 3.703125 0 L 0.9375 0 L 0.9375 -13.421875 L 3.703125 -13.421875 L 3.703125 -5.21875 L 6.5 -8 Z M 10.078125 -8 "/></g></g></g><g fill="#ffffff" fill-opacity="1"><g transform="translate(297.723304, 272.642341)"><g/></g></g><g fill="#ffffff" fill-opacity="1"><g transform="translate(305.109314, 272.642341)"><g><path d="M 11.578125 0 L 10.96875 -7.640625 L 10.890625 -7.640625 L 8.25 -0.078125 L 6.515625 -0.078125 L 3.875 -7.640625 L 3.796875 -7.640625 L 3.1875 0 L 0.25 0 L 1.40625 -12.875 L 4.53125 -12.875 L 7.390625 -5.453125 L 10.234375 -12.875 L 13.359375 -12.875 L 14.515625 0 Z M 11.578125 0 "/></g></g></g><g fill="#ffffff" fill-opacity="1"><g transform="translate(323.001251, 272.642341)"><g><path d="M 1.6875 -0.953125 C 0.800781 -1.742188 0.359375 -2.757812 0.359375 -4 C 0.359375 -5.238281 0.820312 -6.253906 1.75 -7.046875 C 2.675781 -7.835938 3.820312 -8.234375 5.1875 -8.234375 C 6.53125 -8.234375 7.660156 -7.832031 8.578125 -7.03125 C 9.492188 -6.238281 9.953125 -5.226562 9.953125 -4 C 9.953125 -2.769531 9.503906 -1.753906 8.609375 -0.953125 C 7.710938 -0.160156 6.570312 0.234375 5.1875 0.234375 C 3.75 0.234375 2.582031 -0.160156 1.6875 -0.953125 Z M 3.828125 -5.359375 C 3.472656 -5.003906 3.296875 -4.550781 3.296875 -4 C 3.296875 -3.445312 3.46875 -2.992188 3.8125 -2.640625 C 4.15625 -2.296875 4.609375 -2.125 5.171875 -2.125 C 5.710938 -2.125 6.15625 -2.300781 6.5 -2.65625 C 6.851562 -3.007812 7.03125 -3.457031 7.03125 -4 C 7.03125 -4.550781 6.847656 -5.003906 6.484375 -5.359375 C 6.128906 -5.710938 5.691406 -5.890625 5.171875 -5.890625 C 4.640625 -5.890625 4.191406 -5.710938 3.828125 -5.359375 Z M 3.828125 -5.359375 "/></g></g></g><g fill="#ffffff" fill-opacity="1"><g transform="translate(336.444189, 272.642341)"><g><path d="M 0.9375 0 L 0.9375 -8 L 3.703125 -8 L 3.703125 -6.859375 L 3.734375 -6.859375 C 3.753906 -6.898438 3.785156 -6.953125 3.828125 -7.015625 C 3.878906 -7.078125 3.984375 -7.1875 4.140625 -7.34375 C 4.296875 -7.5 4.460938 -7.632812 4.640625 -7.75 C 4.816406 -7.875 5.046875 -7.984375 5.328125 -8.078125 C 5.609375 -8.179688 5.894531 -8.234375 6.1875 -8.234375 C 6.488281 -8.234375 6.785156 -8.191406 7.078125 -8.109375 C 7.367188 -8.023438 7.582031 -7.941406 7.71875 -7.859375 L 7.921875 -7.75 L 6.78125 -5.40625 C 6.4375 -5.695312 5.957031 -5.84375 5.34375 -5.84375 C 5.007812 -5.84375 4.722656 -5.769531 4.484375 -5.625 C 4.242188 -5.476562 4.070312 -5.300781 3.96875 -5.09375 C 3.875 -4.882812 3.804688 -4.707031 3.765625 -4.5625 C 3.722656 -4.414062 3.703125 -4.300781 3.703125 -4.21875 L 3.703125 0 Z M 0.9375 0 "/></g></g></g><g fill="#ffffff" fill-opacity="1"><g transform="translate(347.342598, 272.642341)"><g><path d="M 9.03125 -3.625 L 3.234375 -3.625 C 3.234375 -3.0625 3.414062 -2.644531 3.78125 -2.375 C 4.144531 -2.101562 4.539062 -1.96875 4.96875 -1.96875 C 5.414062 -1.96875 5.769531 -2.023438 6.03125 -2.140625 C 6.289062 -2.265625 6.585938 -2.503906 6.921875 -2.859375 L 8.90625 -1.859375 C 8.082031 -0.460938 6.703125 0.234375 4.765625 0.234375 C 3.554688 0.234375 2.519531 -0.175781 1.65625 -1 C 0.789062 -1.832031 0.359375 -2.832031 0.359375 -4 C 0.359375 -5.164062 0.789062 -6.160156 1.65625 -6.984375 C 2.519531 -7.816406 3.554688 -8.234375 4.765625 -8.234375 C 6.035156 -8.234375 7.066406 -7.867188 7.859375 -7.140625 C 8.648438 -6.410156 9.046875 -5.363281 9.046875 -4 C 9.046875 -3.8125 9.039062 -3.6875 9.03125 -3.625 Z M 3.3125 -5.15625 L 6.359375 -5.15625 C 6.296875 -5.570312 6.128906 -5.890625 5.859375 -6.109375 C 5.597656 -6.335938 5.257812 -6.453125 4.84375 -6.453125 C 4.382812 -6.453125 4.019531 -6.332031 3.75 -6.09375 C 3.476562 -5.851562 3.332031 -5.539062 3.3125 -5.15625 Z M 3.3125 -5.15625 "/></g></g></g></svg>