<svg xmlns="http://www.w3.org/2000/svg" xmlns:xlink="http://www.w3.org/1999/xlink" width="500" zoomAndPan="magnify" viewBox="0 0 375 374.999991" height="500" preserveAspectRatio="xMidYMid meet" version="1.0"><defs><g/><clipPath id="bee2216815"><path d="M 118 48.28125 L 254 48.28125 L 254 247 L 118 247 Z M 118 48.28125 " clip-rule="nonzero"/></clipPath></defs><g clip-path="url(#bee2216815)"><path fill="#000000" d="M 241.761719 162.539062 C 242.789062 178.539062 234.433594 194.25 224.644531 202.28125 C 216.644531 208.484375 207.492188 211.335938 198.4375 210.792969 C 178.890625 209.605469 162.410156 193.925781 165.097656 168.070312 C 170.441406 122.671875 229.667969 94.546875 190.566406 52.789062 C 189.734375 51.863281 184.007812 49.175781 183.113281 48.277344 C 197.382812 67.894531 161.738281 99.058594 151.050781 115.089844 C 137.675781 133.773438 121.488281 154.15625 122.542969 178.3125 C 124.71875 228.390625 161.257812 249.054688 202.054688 246.019531 C 223.621094 244.417969 245.921875 227.488281 251.710938 203.941406 C 255.039062 190.34375 252.160156 172.972656 241.761719 162.539062 Z M 228.835938 147.34375 C 226.753906 132.945312 219.042969 113.296875 210.5 104.179688 C 206.628906 115.53125 200.773438 120.976562 193.734375 131.148438 C 187.945312 140.367188 179.878906 147.5 175.976562 157.964844 C 171.6875 170.214844 173.992188 185 183.625 193.351562 C 191.238281 199.972656 205.542969 199.8125 214.246094 193.636719 C 226.277344 185.09375 231.875 168.488281 228.835938 147.34375 Z M 119.503906 154.410156 C 109.808594 108.976562 153.195312 92.722656 155.59375 66.519531 C 169.898438 86.640625 125.835938 116.976562 119.503906 154.410156 " fill-opacity="1" fill-rule="nonzero"/></g><g fill="#060606" fill-opacity="0.6588"><g transform="translate(87.096283, 169.09377)"><g><path d="M -0.546875 16.421875 L -0.28125 8.359375 L 14.203125 8.84375 L 14.453125 1.296875 L 19.21875 1.46875 L 18.4375 24.625 L 13.671875 24.453125 L 13.9375 16.90625 Z M -0.546875 16.421875 "/></g></g></g><g fill="#060606" fill-opacity="0.6588"><g transform="translate(86.223562, 196.629423)"><g><path d="M 7.21875 27.515625 L 5.28125 20.125 C 5.65625 19.664062 6.191406 19.273438 6.890625 18.953125 C 7.410156 18.679688 7.910156 18.351562 8.390625 17.96875 C 8.878906 17.582031 9.222656 17.046875 9.421875 16.359375 C 9.617188 15.671875 9.582031 14.742188 9.3125 13.578125 L 7.96875 8.5 L 2.59375 9.90625 L 0.546875 2.078125 L 19.1875 -2.8125 L 22.53125 9.90625 C 23.320312 12.9375 23.734375 15.445312 23.765625 17.4375 C 23.804688 19.425781 23.453125 20.972656 22.703125 22.078125 C 21.953125 23.191406 20.789062 23.953125 19.21875 24.359375 C 17.90625 24.703125 16.722656 24.691406 15.671875 24.328125 C 14.628906 23.972656 13.6875 23.222656 12.84375 22.078125 C 12.644531 23.453125 12.238281 24.414062 11.625 24.96875 C 11.007812 25.53125 10.285156 25.972656 9.453125 26.296875 C 8.710938 26.566406 7.96875 26.972656 7.21875 27.515625 Z M 12.5625 7.28125 L 13.75 11.734375 C 14.082031 12.984375 14.398438 13.953125 14.703125 14.640625 C 15.003906 15.335938 15.296875 15.832031 15.578125 16.125 C 15.859375 16.414062 16.128906 16.578125 16.390625 16.609375 C 16.660156 16.640625 16.921875 16.617188 17.171875 16.546875 C 17.421875 16.484375 17.65625 16.375 17.875 16.21875 C 18.09375 16.0625 18.253906 15.785156 18.359375 15.390625 C 18.460938 14.992188 18.476562 14.421875 18.40625 13.671875 C 18.332031 12.921875 18.128906 11.921875 17.796875 10.671875 L 16.625 6.21875 Z M 12.5625 7.28125 "/></g></g></g><g fill="#060606" fill-opacity="0.6588"><g transform="translate(94.777591, 228.149758)"><g><path d="M 17.953125 26.921875 L 13.40625 20.109375 L 15.03125 16.859375 L 8.28125 6.734375 L 4.65625 6.984375 L 0.109375 0.171875 L 22.96875 -0.25 L 27.125 6 Z M 17.484375 11.9375 L 20.484375 5.90625 L 13.765625 6.375 Z M 17.484375 11.9375 "/></g></g></g><g fill="#060606" fill-opacity="0.6588"><g transform="translate(115.169313, 257.351881)"><g><path d="M 14.703125 11.21875 L 8.75 6.671875 L 11.828125 -15.1875 L 18.34375 -10.21875 L 15.0625 4.578125 L 28.453125 -2.515625 L 34.96875 2.453125 Z M 14.703125 11.21875 "/></g></g></g><g fill="#060606" fill-opacity="0.6588"><g transform="translate(141.20799, 276.395182)"><g><path d="M 23.796875 8.765625 L 2.03125 0.75 L 8.6875 -17.328125 L 29.453125 -9.6875 L 27.8125 -5.21875 L 14.625 -10.078125 L 13.578125 -7.25 L 24.71875 -3.140625 L 23.4375 0.34375 L 12.296875 -3.765625 L 11.25 -0.9375 L 25.4375 4.296875 Z M 23.796875 8.765625 "/></g></g></g><g fill="#060606" fill-opacity="0.6588"><g transform="translate(168.571764, 285.993037)"><g><path d="M 24.5625 1.890625 L 2.15625 0.171875 L 3.625 -19.03125 L 11.671875 -18.421875 L 10.5625 -3.96875 L 24.921875 -2.859375 Z M 24.5625 1.890625 "/></g></g></g><g fill="#060606" fill-opacity="0.6588"><g transform="translate(195.379248, 287.109517)"><g/></g></g><g fill="#060606" fill-opacity="0.6588"><g transform="translate(203.116757, 286.326356)"><g/></g></g><g fill="#060606" fill-opacity="0.6588"><g transform="translate(211.676686, 285.465409)"><g><path d="M 15.484375 -5.53125 L 7.875 -2.8125 L 3 -16.46875 L -4.109375 -13.921875 L -5.71875 -18.40625 L 16.109375 -26.203125 L 17.71875 -21.71875 L 10.609375 -19.1875 Z M 15.484375 -5.53125 "/></g></g></g><g fill="#060606" fill-opacity="0.6588"><g transform="translate(237.570918, 276.134571)"><g><path d="M 12 -8.25 C 8.15625 -5.4375 4.75 -4.164062 1.78125 -4.4375 C -0.84375 -4.664062 -3.039062 -5.988281 -4.8125 -8.40625 C -6.570312 -10.820312 -7.160156 -13.316406 -6.578125 -15.890625 C -5.929688 -18.796875 -3.6875 -21.65625 0.15625 -24.46875 C 4.007812 -27.28125 7.421875 -28.554688 10.390625 -28.296875 C 13.015625 -28.066406 15.207031 -26.742188 16.96875 -24.328125 C 18.738281 -21.910156 19.332031 -19.414062 18.75 -16.84375 C 18.101562 -13.925781 15.851562 -11.0625 12 -8.25 Z M 8.953125 -12.421875 C 10.535156 -13.578125 11.359375 -14.878906 11.421875 -16.328125 C 11.492188 -17.484375 11.164062 -18.554688 10.4375 -19.546875 C 9.71875 -20.546875 8.789062 -21.1875 7.65625 -21.46875 C 6.257812 -21.84375 4.769531 -21.453125 3.1875 -20.296875 C 1.613281 -19.148438 0.789062 -17.851562 0.71875 -16.40625 C 0.65625 -15.25 0.984375 -14.171875 1.703125 -13.171875 C 2.429688 -12.179688 3.359375 -11.546875 4.484375 -11.265625 C 5.890625 -10.890625 7.378906 -11.273438 8.953125 -12.421875 Z M 8.953125 -12.421875 "/></g></g></g><g fill="#060606" fill-opacity="0.6588"><g transform="translate(263.200672, 256.863627)"><g><path d="M 16.671875 -23.046875 L 12.203125 -16.859375 C 11.609375 -16.859375 10.960938 -17.023438 10.265625 -17.359375 C 9.722656 -17.585938 9.148438 -17.765625 8.546875 -17.890625 C 7.953125 -18.023438 7.320312 -17.953125 6.65625 -17.671875 C 6 -17.390625 5.304688 -16.769531 4.578125 -15.8125 L 1.5 -11.5625 L 6 -8.296875 L 1.265625 -1.75 L -14.34375 -13.046875 L -6.640625 -23.6875 C -4.804688 -26.226562 -3.128906 -28.144531 -1.609375 -29.4375 C -0.0976562 -30.726562 1.316406 -31.4375 2.640625 -31.5625 C 3.972656 -31.6875 5.300781 -31.269531 6.625 -30.3125 C 7.71875 -29.519531 8.457031 -28.601562 8.84375 -27.5625 C 9.226562 -26.53125 9.253906 -25.328125 8.921875 -23.953125 C 10.097656 -24.679688 11.097656 -24.976562 11.921875 -24.84375 C 12.742188 -24.71875 13.539062 -24.4375 14.3125 -24 C 15 -23.601562 15.785156 -23.285156 16.671875 -23.046875 Z M -2.359375 -14.34375 L 0.328125 -18.078125 C 1.078125 -19.117188 1.625 -19.972656 1.96875 -20.640625 C 2.320312 -21.316406 2.519531 -21.859375 2.5625 -22.265625 C 2.601562 -22.671875 2.550781 -22.988281 2.40625 -23.21875 C 2.269531 -23.445312 2.097656 -23.632812 1.890625 -23.78125 C 1.671875 -23.9375 1.429688 -24.046875 1.171875 -24.109375 C 0.921875 -24.171875 0.609375 -24.117188 0.234375 -23.953125 C -0.140625 -23.785156 -0.59375 -23.429688 -1.125 -22.890625 C -1.65625 -22.359375 -2.296875 -21.570312 -3.046875 -20.53125 L -5.75 -16.796875 Z M -2.359375 -14.34375 "/></g></g></g><g fill="#060606" fill-opacity="0.6588"><g transform="translate(281.794015, 230.295535)"><g><path d="M 4.90625 -13.71875 C 3.4375 -9.195312 1.414062 -6.171875 -1.15625 -4.640625 C -3.40625 -3.285156 -5.957031 -3.070312 -8.8125 -4 C -11.664062 -4.925781 -13.613281 -6.601562 -14.65625 -9.03125 C -15.800781 -11.769531 -15.640625 -15.398438 -14.171875 -19.921875 C -13.296875 -22.585938 -12.269531 -24.6875 -11.09375 -26.21875 C -9.925781 -27.757812 -8.660156 -28.835938 -7.296875 -29.453125 C -5.929688 -30.066406 -4.519531 -30.316406 -3.0625 -30.203125 L -5.703125 -22.125 C -7.378906 -21.769531 -8.570312 -20.503906 -9.28125 -18.328125 C -9.882812 -16.472656 -9.789062 -14.9375 -9 -13.71875 C -8.375 -12.738281 -7.476562 -12.054688 -6.3125 -11.671875 C -5.15625 -11.296875 -4.035156 -11.320312 -2.953125 -11.75 C -1.585938 -12.269531 -0.601562 -13.457031 0 -15.3125 C 0.707031 -17.488281 0.472656 -19.21875 -0.703125 -20.5 L 1.9375 -28.578125 C 3.207031 -27.804688 4.210938 -26.769531 4.953125 -25.46875 C 5.703125 -24.164062 6.097656 -22.546875 6.140625 -20.609375 C 6.191406 -18.679688 5.78125 -16.382812 4.90625 -13.71875 Z M 4.90625 -13.71875 "/></g></g></g><g fill="#060606" fill-opacity="0.6588"><g transform="translate(291.3181, 199.926852)"><g><path d="M -0.078125 -28.46875 L -0.0625 -20.390625 L -7.84375 -20.375 L -7.8125 -10.21875 L -0.03125 -10.234375 L 0 -2.15625 L -19.265625 -2.09375 L -19.296875 -10.171875 L -11.515625 -10.203125 L -11.546875 -20.359375 L -19.328125 -20.328125 L -19.34375 -28.40625 Z M -0.078125 -28.46875 "/></g></g></g><g fill="#03989e" fill-opacity="1"><g transform="translate(85.881047, 167.87852)"><g><path d="M -0.546875 16.421875 L -0.28125 8.359375 L 14.203125 8.84375 L 14.453125 1.296875 L 19.21875 1.46875 L 18.4375 24.625 L 13.671875 24.453125 L 13.9375 16.90625 Z M -0.546875 16.421875 "/></g></g></g><g fill="#03989e" fill-opacity="1"><g transform="translate(85.00832, 195.414188)"><g><path d="M 7.21875 27.515625 L 5.28125 20.125 C 5.65625 19.664062 6.191406 19.273438 6.890625 18.953125 C 7.410156 18.679688 7.910156 18.351562 8.390625 17.96875 C 8.878906 17.582031 9.222656 17.046875 9.421875 16.359375 C 9.617188 15.671875 9.582031 14.742188 9.3125 13.578125 L 7.96875 8.5 L 2.59375 9.90625 L 0.546875 2.078125 L 19.1875 -2.8125 L 22.53125 9.90625 C 23.320312 12.9375 23.734375 15.445312 23.765625 17.4375 C 23.804688 19.425781 23.453125 20.972656 22.703125 22.078125 C 21.953125 23.191406 20.789062 23.953125 19.21875 24.359375 C 17.90625 24.703125 16.722656 24.691406 15.671875 24.328125 C 14.628906 23.972656 13.6875 23.222656 12.84375 22.078125 C 12.644531 23.453125 12.238281 24.414062 11.625 24.96875 C 11.007812 25.53125 10.285156 25.972656 9.453125 26.296875 C 8.710938 26.566406 7.96875 26.972656 7.21875 27.515625 Z M 12.5625 7.28125 L 13.75 11.734375 C 14.082031 12.984375 14.398438 13.953125 14.703125 14.640625 C 15.003906 15.335938 15.296875 15.832031 15.578125 16.125 C 15.859375 16.414062 16.128906 16.578125 16.390625 16.609375 C 16.660156 16.640625 16.921875 16.617188 17.171875 16.546875 C 17.421875 16.484375 17.65625 16.375 17.875 16.21875 C 18.09375 16.0625 18.253906 15.785156 18.359375 15.390625 C 18.460938 14.992188 18.476562 14.421875 18.40625 13.671875 C 18.332031 12.921875 18.128906 11.921875 17.796875 10.671875 L 16.625 6.21875 Z M 12.5625 7.28125 "/></g></g></g><g fill="#03989e" fill-opacity="1"><g transform="translate(93.562356, 226.934508)"><g><path d="M 17.953125 26.921875 L 13.40625 20.109375 L 15.03125 16.859375 L 8.28125 6.734375 L 4.65625 6.984375 L 0.109375 0.171875 L 22.96875 -0.25 L 27.125 6 Z M 17.484375 11.9375 L 20.484375 5.90625 L 13.765625 6.375 Z M 17.484375 11.9375 "/></g></g></g><g fill="#03989e" fill-opacity="1"><g transform="translate(113.95408, 256.136646)"><g><path d="M 14.703125 11.21875 L 8.75 6.671875 L 11.828125 -15.1875 L 18.34375 -10.21875 L 15.0625 4.578125 L 28.453125 -2.515625 L 34.96875 2.453125 Z M 14.703125 11.21875 "/></g></g></g><g fill="#03989e" fill-opacity="1"><g transform="translate(139.992755, 275.179947)"><g><path d="M 23.796875 8.765625 L 2.03125 0.75 L 8.6875 -17.328125 L 29.453125 -9.6875 L 27.8125 -5.21875 L 14.625 -10.078125 L 13.578125 -7.25 L 24.71875 -3.140625 L 23.4375 0.34375 L 12.296875 -3.765625 L 11.25 -0.9375 L 25.4375 4.296875 Z M 23.796875 8.765625 "/></g></g></g><g fill="#03989e" fill-opacity="1"><g transform="translate(167.356529, 284.777773)"><g><path d="M 24.5625 1.890625 L 2.15625 0.171875 L 3.625 -19.03125 L 11.671875 -18.421875 L 10.5625 -3.96875 L 24.921875 -2.859375 Z M 24.5625 1.890625 "/></g></g></g><g fill="#ff914c" fill-opacity="1"><g transform="translate(194.164013, 285.894282)"><g/></g></g><g fill="#ff914c" fill-opacity="1"><g transform="translate(201.901539, 285.111121)"><g/></g></g><g fill="#ff914c" fill-opacity="1"><g transform="translate(210.461468, 284.250174)"><g><path d="M 15.484375 -5.53125 L 7.875 -2.8125 L 3 -16.46875 L -4.109375 -13.921875 L -5.71875 -18.40625 L 16.109375 -26.203125 L 17.71875 -21.71875 L 10.609375 -19.1875 Z M 15.484375 -5.53125 "/></g></g></g><g fill="#ff914c" fill-opacity="1"><g transform="translate(236.3557, 274.919335)"><g><path d="M 12 -8.25 C 8.15625 -5.4375 4.75 -4.164062 1.78125 -4.4375 C -0.84375 -4.664062 -3.039062 -5.988281 -4.8125 -8.40625 C -6.570312 -10.820312 -7.160156 -13.316406 -6.578125 -15.890625 C -5.929688 -18.796875 -3.6875 -21.65625 0.15625 -24.46875 C 4.007812 -27.28125 7.421875 -28.554688 10.390625 -28.296875 C 13.015625 -28.066406 15.207031 -26.742188 16.96875 -24.328125 C 18.738281 -21.910156 19.332031 -19.414062 18.75 -16.84375 C 18.101562 -13.925781 15.851562 -11.0625 12 -8.25 Z M 8.953125 -12.421875 C 10.535156 -13.578125 11.359375 -14.878906 11.421875 -16.328125 C 11.492188 -17.484375 11.164062 -18.554688 10.4375 -19.546875 C 9.71875 -20.546875 8.789062 -21.1875 7.65625 -21.46875 C 6.257812 -21.84375 4.769531 -21.453125 3.1875 -20.296875 C 1.613281 -19.148438 0.789062 -17.851562 0.71875 -16.40625 C 0.65625 -15.25 0.984375 -14.171875 1.703125 -13.171875 C 2.429688 -12.179688 3.359375 -11.546875 4.484375 -11.265625 C 5.890625 -10.890625 7.378906 -11.273438 8.953125 -12.421875 Z M 8.953125 -12.421875 "/></g></g></g><g fill="#ff914c" fill-opacity="1"><g transform="translate(261.985437, 255.648395)"><g><path d="M 16.671875 -23.046875 L 12.203125 -16.859375 C 11.609375 -16.859375 10.960938 -17.023438 10.265625 -17.359375 C 9.722656 -17.585938 9.148438 -17.765625 8.546875 -17.890625 C 7.953125 -18.023438 7.320312 -17.953125 6.65625 -17.671875 C 6 -17.390625 5.304688 -16.769531 4.578125 -15.8125 L 1.5 -11.5625 L 6 -8.296875 L 1.265625 -1.75 L -14.34375 -13.046875 L -6.640625 -23.6875 C -4.804688 -26.226562 -3.128906 -28.144531 -1.609375 -29.4375 C -0.0976562 -30.726562 1.316406 -31.4375 2.640625 -31.5625 C 3.972656 -31.6875 5.300781 -31.269531 6.625 -30.3125 C 7.71875 -29.519531 8.457031 -28.601562 8.84375 -27.5625 C 9.226562 -26.53125 9.253906 -25.328125 8.921875 -23.953125 C 10.097656 -24.679688 11.097656 -24.976562 11.921875 -24.84375 C 12.742188 -24.71875 13.539062 -24.4375 14.3125 -24 C 15 -23.601562 15.785156 -23.285156 16.671875 -23.046875 Z M -2.359375 -14.34375 L 0.328125 -18.078125 C 1.078125 -19.117188 1.625 -19.972656 1.96875 -20.640625 C 2.320312 -21.316406 2.519531 -21.859375 2.5625 -22.265625 C 2.601562 -22.671875 2.550781 -22.988281 2.40625 -23.21875 C 2.269531 -23.445312 2.097656 -23.632812 1.890625 -23.78125 C 1.671875 -23.9375 1.429688 -24.046875 1.171875 -24.109375 C 0.921875 -24.171875 0.609375 -24.117188 0.234375 -23.953125 C -0.140625 -23.785156 -0.59375 -23.429688 -1.125 -22.890625 C -1.65625 -22.359375 -2.296875 -21.570312 -3.046875 -20.53125 L -5.75 -16.796875 Z M -2.359375 -14.34375 "/></g></g></g><g fill="#ff914c" fill-opacity="1"><g transform="translate(280.57878, 229.080285)"><g><path d="M 4.90625 -13.71875 C 3.4375 -9.195312 1.414062 -6.171875 -1.15625 -4.640625 C -3.40625 -3.285156 -5.957031 -3.070312 -8.8125 -4 C -11.664062 -4.925781 -13.613281 -6.601562 -14.65625 -9.03125 C -15.800781 -11.769531 -15.640625 -15.398438 -14.171875 -19.921875 C -13.296875 -22.585938 -12.269531 -24.6875 -11.09375 -26.21875 C -9.925781 -27.757812 -8.660156 -28.835938 -7.296875 -29.453125 C -5.929688 -30.066406 -4.519531 -30.316406 -3.0625 -30.203125 L -5.703125 -22.125 C -7.378906 -21.769531 -8.570312 -20.503906 -9.28125 -18.328125 C -9.882812 -16.472656 -9.789062 -14.9375 -9 -13.71875 C -8.375 -12.738281 -7.476562 -12.054688 -6.3125 -11.671875 C -5.15625 -11.296875 -4.035156 -11.320312 -2.953125 -11.75 C -1.585938 -12.269531 -0.601562 -13.457031 0 -15.3125 C 0.707031 -17.488281 0.472656 -19.21875 -0.703125 -20.5 L 1.9375 -28.578125 C 3.207031 -27.804688 4.210938 -26.769531 4.953125 -25.46875 C 5.703125 -24.164062 6.097656 -22.546875 6.140625 -20.609375 C 6.191406 -18.679688 5.78125 -16.382812 4.90625 -13.71875 Z M 4.90625 -13.71875 "/></g></g></g><g fill="#ff914c" fill-opacity="1"><g transform="translate(290.102894, 198.711602)"><g><path d="M -0.078125 -28.46875 L -0.0625 -20.390625 L -7.84375 -20.375 L -7.8125 -10.21875 L -0.03125 -10.234375 L 0 -2.15625 L -19.265625 -2.09375 L -19.296875 -10.171875 L -11.515625 -10.203125 L -11.546875 -20.359375 L -19.328125 -20.328125 L -19.34375 -28.40625 Z M -0.078125 -28.46875 "/></g></g></g></svg>