<svg xmlns="http://www.w3.org/2000/svg" xmlns:xlink="http://www.w3.org/1999/xlink" width="500" zoomAndPan="magnify" viewBox="0 0 375 374.999991" height="500" preserveAspectRatio="xMidYMid meet" version="1.0"><defs><filter x="0%" y="0%" width="100%" height="100%" id="9d728cad4f"><feColorMatrix values="0 0 0 0 1 0 0 0 0 1 0 0 0 0 1 0 0 0 1 0" color-interpolation-filters="sRGB"/></filter><g/><mask id="1996f3e3bf"><g filter="url(#9d728cad4f)"><rect x="-37.5" width="450" fill="#000000" y="-37.499999" height="449.999989" fill-opacity="0.25"/></g></mask><clipPath id="58c0ed02b4"><path d="M 7 22 L 102 22 L 102 95 L 7 95 Z M 7 22 " clip-rule="nonzero"/></clipPath><clipPath id="d2efa0e020"><path d="M 119.492188 78.109375 L 22.324219 117.902344 L -12.351562 33.226562 L 84.816406 -6.566406 Z M 119.492188 78.109375 " clip-rule="nonzero"/></clipPath><clipPath id="7426786139"><path d="M 119.492188 78.109375 L 22.324219 117.902344 L -12.351562 33.226562 L 84.816406 -6.566406 Z M 119.492188 78.109375 " clip-rule="nonzero"/></clipPath><clipPath id="0c77ee47f1"><rect x="0" width="108" y="0" height="110"/></clipPath><clipPath id="137b564a49"><path d="M 78 26 L 279 26 L 279 226.9375 L 78 226.9375 Z M 78 26 " clip-rule="nonzero"/></clipPath><clipPath id="72bfd988fe"><path d="M 184 9.4375 L 234 9.4375 L 234 90 L 184 90 Z M 184 9.4375 " clip-rule="nonzero"/></clipPath></defs><g mask="url(#1996f3e3bf)"><g transform="matrix(1, 0, 0, 1, 114, 109)"><g clip-path="url(#0c77ee47f1)"><g clip-path="url(#58c0ed02b4)"><g clip-path="url(#d2efa0e020)"><g clip-path="url(#7426786139)"><path fill="#0097b2" d="M 42.820312 91.621094 C 25.070312 85.203125 -8.3125 42.507812 17.089844 25.769531 C 34.269531 14.4375 36.996094 32.5625 60.535156 46.742188 C 68.335938 51.433594 106.496094 46.550781 100.878906 70.726562 C 97.546875 85.054688 66.027344 100.003906 42.820312 91.621094 Z M 42.820312 91.621094 " fill-opacity="1" fill-rule="nonzero"/></g></g></g></g></g></g><g clip-path="url(#137b564a49)"><path fill="#000000" d="M 238.039062 46.417969 C 237.910156 46.3125 237.761719 46.242188 237.601562 46.195312 C 237.441406 46.152344 237.28125 46.140625 237.113281 46.164062 C 236.949219 46.183594 236.796875 46.238281 236.652344 46.320312 C 236.507812 46.40625 236.386719 46.515625 236.289062 46.648438 C 236.1875 46.78125 236.121094 46.929688 236.078125 47.089844 C 236.039062 47.25 236.035156 47.414062 236.058594 47.578125 C 236.085938 47.742188 236.144531 47.894531 236.230469 48.035156 C 236.320312 48.175781 236.433594 48.296875 236.570312 48.390625 C 261.140625 66.667969 275.441406 94.785156 275.8125 125.542969 C 275.9375 135.742188 274.503906 145.722656 271.515625 155.476562 C 269.621094 157.886719 267.738281 160.304688 265.792969 162.667969 C 263.597656 165.394531 261.265625 167.996094 258.796875 170.476562 C 258.238281 171.027344 257.667969 171.558594 257.082031 172.074219 C 256.800781 172.324219 256.515625 172.570312 256.230469 172.808594 L 255.828125 173.132812 L 255.652344 173.269531 C 255.785156 173.164062 255.617188 173.269531 255.582031 173.320312 C 254.171875 174.390625 252.65625 175.316406 251.207031 176.328125 C 249.625 177.367188 248.203125 178.589844 246.933594 180 C 245.710938 181.417969 244.855469 183.035156 244.363281 184.84375 C 243.894531 186.585938 243.792969 188.351562 244.058594 190.136719 C 244.324219 191.925781 244.933594 193.585938 245.886719 195.117188 C 246.140625 195.503906 246.421875 195.871094 246.710938 196.230469 C 244.46875 198.453125 242.121094 200.5625 239.671875 202.558594 C 237.222656 204.550781 234.683594 206.421875 232.050781 208.167969 C 229.417969 209.914062 226.707031 211.527344 223.917969 213.007812 C 221.125 214.488281 218.269531 215.828125 215.347656 217.027344 C 212.429688 218.230469 209.453125 219.285156 206.429688 220.195312 C 203.40625 221.105469 200.34375 221.867188 197.246094 222.476562 C 194.144531 223.085938 191.023438 223.546875 187.882812 223.851562 C 184.738281 224.15625 181.585938 224.308594 178.425781 224.304688 L 178.257812 224.304688 C 175.136719 224.316406 172.019531 224.179688 168.910156 223.890625 C 165.800781 223.601562 162.710938 223.164062 159.644531 222.574219 C 156.578125 221.988281 153.546875 221.253906 150.550781 220.375 C 147.550781 219.496094 144.605469 218.472656 141.707031 217.308594 C 138.808594 216.144531 135.976562 214.84375 133.203125 213.40625 C 130.429688 211.964844 127.734375 210.398438 125.113281 208.699219 C 122.492188 207 119.960938 205.179688 117.515625 203.234375 C 115.070312 201.292969 112.726562 199.234375 110.480469 197.066406 C 111.21875 195.773438 111.789062 194.414062 112.183594 192.980469 C 112.582031 191.546875 112.796875 190.085938 112.828125 188.601562 C 112.859375 187.113281 112.707031 185.644531 112.367188 184.199219 C 112.03125 182.75 111.519531 181.367188 110.835938 180.046875 C 109.46875 177.429688 107.308594 175.46875 105.277344 173.402344 C 104.765625 172.894531 104.304688 172.382812 103.855469 171.875 L 103.546875 171.5 L 103.515625 171.464844 C 103.46875 171.414062 103.429688 171.347656 103.386719 171.289062 C 103.191406 171.027344 103 170.75 102.828125 170.46875 C 102.660156 170.203125 102.507812 169.929688 102.371094 169.648438 L 102.265625 169.414062 C 102.203125 169.257812 102.148438 169.097656 102.089844 168.9375 C 101.996094 168.640625 101.917969 168.335938 101.863281 168.03125 C 101.863281 167.96875 101.832031 167.886719 101.828125 167.816406 L 101.828125 167.753906 C 101.828125 167.585938 101.828125 167.425781 101.796875 167.246094 C 101.796875 166.984375 101.796875 166.738281 101.832031 166.457031 C 101.832031 166.457031 101.832031 166.484375 101.832031 166.5 C 101.847656 166.429688 101.859375 166.359375 101.867188 166.285156 C 101.867188 166.148438 101.917969 166.011719 101.953125 165.875 C 102.011719 165.621094 102.085938 165.371094 102.171875 165.125 C 102.21875 164.992188 102.269531 164.867188 102.316406 164.734375 L 102.390625 164.5625 C 102.878906 163.53125 103.46875 162.566406 104.160156 161.660156 C 104.207031 161.601562 104.257812 161.539062 104.296875 161.480469 L 104.542969 161.167969 L 105.132812 160.445312 C 105.507812 159.984375 105.890625 159.53125 106.261719 159.066406 C 107.0625 158.117188 107.792969 157.117188 108.453125 156.066406 C 109.757812 153.90625 110.417969 151.320312 109.613281 148.851562 C 108.664062 145.960938 106.144531 143.878906 103.480469 142.585938 C 100.316406 141.125 96.992188 140.3125 93.511719 140.148438 C 89.972656 139.933594 86.511719 140.332031 83.117188 141.355469 C 82.675781 141.488281 82.242188 141.636719 81.816406 141.789062 C 81.089844 137.027344 80.707031 132.238281 80.675781 127.421875 C 80.578125 115.972656 82.445312 104.851562 86.269531 94.058594 C 86.542969 93.316406 86.898438 92.617188 87.339844 91.960938 C 87.777344 91.304688 88.289062 90.707031 88.871094 90.175781 C 89.457031 89.640625 90.09375 89.183594 90.785156 88.804688 C 91.480469 88.421875 92.207031 88.128906 92.96875 87.925781 C 97.101562 86.769531 100.210938 86.761719 101.710938 87.925781 C 102.539062 88.550781 102.941406 89.578125 102.941406 91.054688 C 102.941406 95.886719 100.722656 100.519531 98.363281 105.429688 C 96.003906 110.335938 93.554688 115.472656 93.554688 120.867188 C 93.554688 123.796875 93.839844 126.914062 95.953125 127.789062 C 98.851562 128.988281 102.898438 125.601562 114.394531 114.105469 C 121.050781 107.453125 127.484375 105.96875 132.652344 104.75 C 138.558594 103.378906 143.660156 102.207031 145.394531 94 C 146.964844 86.554688 144.265625 79.394531 141.882812 73.070312 C 139.585938 66.96875 137.417969 61.234375 139.371094 56.285156 C 141.523438 50.832031 143.898438 48.558594 145.933594 47.046875 C 146.460938 46.667969 146.953125 46.25 147.414062 45.789062 C 147.871094 45.332031 148.292969 44.839844 148.675781 44.316406 C 149.058594 43.789062 149.394531 43.238281 149.6875 42.660156 C 149.984375 42.082031 150.230469 41.484375 150.429688 40.867188 C 150.628906 40.246094 150.777344 39.617188 150.875 38.976562 C 150.976562 38.335938 151.023438 37.691406 151.019531 37.039062 C 151.015625 36.390625 150.960938 35.746094 150.855469 35.105469 C 150.75 34.464844 150.59375 33.839844 150.390625 33.222656 C 158.777344 30.734375 167.34375 29.398438 176.085938 29.207031 L 176.117188 29.207031 C 177.136719 29.207031 178.101562 29.179688 179.09375 29.207031 C 179.257812 29.207031 179.414062 29.175781 179.566406 29.113281 C 179.714844 29.050781 179.847656 28.964844 179.964844 28.847656 C 180.078125 28.734375 180.167969 28.601562 180.230469 28.449219 C 180.292969 28.296875 180.324219 28.140625 180.324219 27.976562 C 180.324219 27.816406 180.292969 27.65625 180.230469 27.507812 C 180.167969 27.355469 180.078125 27.222656 179.964844 27.105469 C 179.847656 26.992188 179.714844 26.902344 179.566406 26.839844 C 179.414062 26.777344 179.257812 26.746094 179.09375 26.746094 L 178.003906 26.746094 C 174.589844 26.75 171.1875 26.925781 167.789062 27.277344 C 164.394531 27.625 161.023438 28.148438 157.683594 28.847656 C 154.339844 29.542969 151.042969 30.40625 147.789062 31.441406 C 144.535156 32.472656 141.34375 33.671875 138.210938 35.03125 C 135.078125 36.390625 132.027344 37.910156 129.050781 39.582031 C 126.074219 41.253906 123.191406 43.074219 120.402344 45.042969 C 117.613281 47.011719 114.933594 49.117188 112.359375 51.363281 C 109.785156 53.605469 107.332031 55.972656 105 58.46875 C 104.886719 58.585938 104.800781 58.722656 104.742188 58.875 C 104.683594 59.03125 104.65625 59.1875 104.660156 59.355469 C 104.664062 59.519531 104.699219 59.675781 104.769531 59.824219 C 104.835938 59.976562 104.929688 60.105469 105.050781 60.21875 C 105.171875 60.332031 105.308594 60.414062 105.464844 60.472656 C 105.617188 60.53125 105.777344 60.554688 105.941406 60.546875 C 106.105469 60.542969 106.261719 60.503906 106.410156 60.433594 C 106.5625 60.363281 106.691406 60.269531 106.800781 60.144531 C 112.445312 54.097656 118.753906 48.855469 125.734375 44.414062 C 132.710938 39.972656 140.136719 36.476562 148.003906 33.925781 C 148.34375 34.917969 148.515625 35.941406 148.527344 36.996094 C 148.535156 38.046875 148.378906 39.074219 148.058594 40.074219 C 147.738281 41.074219 147.269531 42 146.652344 42.851562 C 146.03125 43.703125 145.296875 44.433594 144.441406 45.050781 C 142.128906 46.761719 139.441406 49.328125 137.058594 55.359375 C 134.757812 61.1875 137.085938 67.375 139.554688 73.914062 C 141.929688 80.214844 144.386719 86.722656 142.964844 93.464844 C 141.554688 100.117188 137.984375 100.953125 132.070312 102.324219 C 126.597656 103.601562 119.78125 105.183594 112.636719 112.335938 C 107.089844 117.875 98.722656 126.238281 96.867188 125.484375 C 96.71875 125.425781 95.992188 124.914062 95.992188 120.839844 C 95.992188 116.007812 98.210938 111.375 100.570312 106.464844 C 102.929688 101.558594 105.382812 96.417969 105.382812 91.027344 C 105.382812 88.757812 104.640625 87.042969 103.179688 85.941406 C 100.988281 84.277344 97.320312 84.144531 92.285156 85.554688 C 91.332031 85.816406 90.425781 86.1875 89.566406 86.667969 C 88.703125 87.148438 87.910156 87.722656 87.1875 88.390625 C 86.460938 89.0625 85.828125 89.808594 85.28125 90.628906 C 84.738281 91.453125 84.296875 92.328125 83.960938 93.253906 C 83.292969 95.132812 82.675781 97.03125 82.121094 98.945312 C 81.5625 100.859375 81.0625 102.789062 80.621094 104.734375 C 80.179688 106.679688 79.796875 108.636719 79.472656 110.605469 C 79.148438 112.574219 78.882812 114.546875 78.675781 116.53125 C 78.46875 118.515625 78.320312 120.503906 78.234375 122.496094 C 78.148438 124.488281 78.121094 126.484375 78.152344 128.476562 C 78.183594 130.472656 78.277344 132.460938 78.429688 134.449219 C 78.578125 136.441406 78.789062 138.421875 79.058594 140.398438 C 79.332031 142.375 79.660156 144.339844 80.046875 146.296875 C 80.4375 148.253906 80.882812 150.195312 81.386719 152.125 C 81.890625 154.054688 82.453125 155.96875 83.070312 157.863281 C 83.691406 159.761719 84.363281 161.636719 85.097656 163.492188 C 85.828125 165.347656 86.613281 167.179688 87.453125 168.988281 C 88.296875 170.796875 89.191406 172.578125 90.136719 174.332031 C 91.085938 176.085938 92.085938 177.8125 93.136719 179.507812 C 94.1875 181.203125 95.285156 182.863281 96.4375 184.496094 C 97.589844 186.125 98.785156 187.714844 100.03125 189.273438 C 101.277344 190.832031 102.570312 192.351562 103.90625 193.832031 C 105.242188 195.308594 106.625 196.75 108.046875 198.144531 C 109.46875 199.542969 110.933594 200.898438 112.4375 202.207031 C 113.941406 203.515625 115.484375 204.78125 117.0625 205.996094 C 118.644531 207.214844 120.257812 208.382812 121.90625 209.503906 C 123.558594 210.625 125.238281 211.695312 126.953125 212.714844 C 128.667969 213.734375 130.410156 214.703125 132.183594 215.617188 C 133.953125 216.535156 135.753906 217.394531 137.574219 218.203125 C 139.398438 219.011719 141.246094 219.765625 143.113281 220.460938 C 144.980469 221.160156 146.871094 221.800781 148.777344 222.382812 C 150.683594 222.96875 152.605469 223.496094 154.546875 223.964844 C 156.484375 224.433594 158.433594 224.84375 160.398438 225.195312 C 162.359375 225.546875 164.332031 225.84375 166.3125 226.074219 C 168.292969 226.308594 170.28125 226.484375 172.269531 226.601562 C 174.261719 226.714844 176.253906 226.769531 178.25 226.765625 L 178.425781 226.765625 C 180.074219 226.765625 181.722656 226.71875 183.367188 226.636719 C 185.015625 226.550781 186.65625 226.425781 188.296875 226.261719 C 189.9375 226.097656 191.570312 225.890625 193.199219 225.644531 C 194.832031 225.398438 196.453125 225.109375 198.066406 224.785156 C 199.683594 224.457031 201.289062 224.09375 202.886719 223.6875 C 204.484375 223.28125 206.070312 222.835938 207.644531 222.351562 C 209.222656 221.867188 210.785156 221.34375 212.332031 220.78125 C 213.882812 220.222656 215.417969 219.621094 216.9375 218.984375 C 218.457031 218.347656 219.960938 217.671875 221.445312 216.960938 C 222.933594 216.25 224.402344 215.5 225.851562 214.71875 C 227.300781 213.933594 228.730469 213.113281 230.136719 212.257812 C 231.546875 211.402344 232.933594 210.515625 234.300781 209.589844 C 235.664062 208.667969 237.007812 207.710938 238.324219 206.722656 C 239.640625 205.730469 240.933594 204.710938 242.203125 203.65625 C 243.46875 202.601562 244.710938 201.519531 245.921875 200.402344 C 247.136719 199.289062 248.324219 198.144531 249.480469 196.972656 C 250.636719 195.796875 251.765625 194.597656 252.863281 193.367188 C 253.960938 192.136719 255.027344 190.882812 256.0625 189.601562 C 257.097656 188.320312 258.101562 187.011719 259.074219 185.679688 C 260.042969 184.347656 260.980469 182.996094 261.886719 181.617188 C 262.789062 180.238281 263.660156 178.839844 264.496094 177.417969 C 265.328125 176 266.128906 174.558594 266.894531 173.097656 C 267.65625 171.636719 268.382812 170.160156 269.074219 168.664062 C 269.765625 167.164062 270.417969 165.652344 271.035156 164.125 C 271.652344 162.597656 272.230469 161.054688 272.769531 159.496094 C 273.308594 157.9375 273.808594 156.371094 274.273438 154.789062 C 274.734375 153.207031 275.15625 151.613281 275.539062 150.011719 C 275.925781 148.40625 276.269531 146.796875 276.570312 145.175781 C 276.875 143.558594 277.140625 141.929688 277.363281 140.296875 C 277.585938 138.664062 277.769531 137.027344 277.914062 135.386719 C 278.054688 133.742188 278.15625 132.101562 278.21875 130.453125 C 278.277344 128.804688 278.300781 127.160156 278.28125 125.511719 C 277.898438 93.984375 263.234375 65.152344 238.039062 46.417969 Z M 82.234375 144.285156 C 83.539062 143.800781 84.871094 143.414062 86.234375 143.132812 C 86.636719 143.050781 87.042969 142.972656 87.453125 142.90625 L 88.09375 142.808594 L 88.128906 142.808594 L 88.574219 142.753906 C 89.394531 142.667969 90.21875 142.613281 91.046875 142.589844 C 91.878906 142.570312 92.773438 142.589844 93.636719 142.648438 C 94.050781 142.671875 94.457031 142.707031 94.867188 142.753906 L 95.347656 142.808594 L 95.542969 142.839844 L 95.878906 142.890625 C 97.539062 143.148438 99.160156 143.554688 100.742188 144.113281 L 101.25 144.304688 L 101.5 144.40625 C 101.835938 144.546875 102.167969 144.703125 102.488281 144.867188 C 103.105469 145.171875 103.695312 145.523438 104.261719 145.914062 C 104.394531 146.011719 104.542969 146.101562 104.671875 146.207031 L 104.882812 146.382812 C 105.164062 146.617188 105.433594 146.859375 105.6875 147.117188 C 105.898438 147.324219 106.097656 147.542969 106.277344 147.773438 C 106.246094 147.734375 106.226562 147.714844 106.277344 147.820312 L 106.429688 148.035156 C 106.527344 148.175781 106.625 148.324219 106.710938 148.476562 C 106.800781 148.625 106.882812 148.777344 106.960938 148.933594 C 106.988281 148.984375 107.011719 149.039062 107.035156 149.09375 C 107.035156 149.105469 107.035156 149.121094 107.035156 149.132812 C 107.191406 149.445312 107.292969 149.769531 107.335938 150.113281 C 107.378906 150.242188 107.40625 150.375 107.417969 150.511719 L 107.417969 150.582031 C 107.421875 150.648438 107.421875 150.714844 107.417969 150.78125 C 107.4375 151.058594 107.4375 151.335938 107.417969 151.609375 C 107.417969 151.722656 107.320312 152.195312 107.417969 151.773438 C 107.390625 151.890625 107.382812 152.007812 107.355469 152.117188 C 107.324219 152.394531 107.277344 152.664062 107.214844 152.933594 C 107.140625 153.15625 107.054688 153.371094 106.972656 153.589844 L 106.898438 153.757812 L 106.703125 154.144531 C 106.441406 154.640625 106.152344 155.121094 105.835938 155.582031 C 105.6875 155.800781 105.535156 156.015625 105.378906 156.230469 C 105.296875 156.339844 105.214844 156.453125 105.128906 156.558594 C 105.078125 156.617188 105.035156 156.683594 104.984375 156.742188 C 104.269531 157.652344 103.515625 158.539062 102.789062 159.445312 C 101.332031 161.265625 99.859375 163.273438 99.445312 165.625 C 99.1875 166.988281 99.273438 168.332031 99.707031 169.652344 C 100.207031 171.023438 100.933594 172.265625 101.886719 173.371094 C 102.78125 174.417969 103.722656 175.414062 104.714844 176.363281 C 105.222656 176.871094 105.703125 177.339844 106.175781 177.84375 C 106.394531 178.078125 106.609375 178.3125 106.816406 178.550781 L 107.164062 178.960938 L 107.28125 179.105469 L 107.367188 179.210938 C 107.789062 179.777344 108.171875 180.371094 108.515625 180.992188 C 108.671875 181.277344 108.820312 181.570312 108.964844 181.867188 C 109.035156 182.023438 109.105469 182.175781 109.171875 182.335938 L 109.308594 182.683594 C 109.558594 183.351562 109.765625 184.027344 109.929688 184.71875 C 110 185.039062 110.066406 185.367188 110.128906 185.691406 C 110.128906 185.847656 110.1875 186.015625 110.203125 186.199219 C 110.203125 186.328125 110.230469 186.449219 110.246094 186.578125 C 110.3125 187.265625 110.339844 187.957031 110.328125 188.648438 C 110.328125 188.992188 110.300781 189.339844 110.269531 189.664062 C 110.269531 189.851562 110.234375 190.039062 110.214844 190.230469 C 110.214844 190.230469 110.214844 190.359375 110.214844 190.398438 C 110.214844 190.433594 110.214844 190.503906 110.1875 190.554688 C 110.082031 191.242188 109.929688 191.921875 109.738281 192.589844 C 109.640625 192.917969 109.53125 193.246094 109.417969 193.570312 L 109.210938 194.078125 L 109.074219 194.390625 C 108.9375 194.679688 108.796875 194.960938 108.644531 195.238281 C 105.222656 191.777344 102.082031 188.082031 99.21875 184.148438 C 96.359375 180.214844 93.808594 176.085938 91.570312 171.765625 C 89.332031 167.449219 87.429688 162.984375 85.863281 158.378906 C 84.300781 153.773438 83.089844 149.074219 82.234375 144.285156 Z M 246.476562 186.714844 Z M 247.175781 192.285156 L 247.210938 192.371094 C 247.191406 192.339844 247.179688 192.308594 247.175781 192.273438 Z M 248.457031 194.492188 L 248.292969 194.269531 C 248.175781 194.105469 248.0625 193.933594 247.957031 193.757812 C 247.738281 193.417969 247.542969 193.066406 247.367188 192.699219 L 247.230469 192.40625 C 247.148438 192.203125 247.074219 192 247 191.796875 C 246.871094 191.414062 246.757812 191.023438 246.664062 190.628906 C 246.625 190.449219 246.589844 190.265625 246.554688 190.082031 C 246.554688 189.972656 246.519531 189.871094 246.503906 189.765625 C 246.488281 189.660156 246.503906 189.683594 246.503906 189.667969 C 246.457031 189.265625 246.433594 188.859375 246.421875 188.453125 C 246.410156 188.046875 246.421875 187.644531 246.460938 187.242188 C 246.460938 187.136719 246.460938 187.023438 246.496094 186.917969 L 246.496094 186.871094 C 246.558594 186.660156 246.59375 186.449219 246.605469 186.230469 C 246.6875 185.832031 246.789062 185.441406 246.90625 185.054688 C 246.960938 184.882812 247.023438 184.703125 247.089844 184.546875 C 247.152344 184.390625 247.167969 184.34375 247.203125 184.242188 C 247.242188 184.140625 247.167969 184.316406 247.167969 184.316406 C 247.1875 184.257812 247.214844 184.203125 247.246094 184.148438 C 247.410156 183.78125 247.597656 183.425781 247.804688 183.078125 C 247.90625 182.902344 248.019531 182.730469 248.128906 182.566406 L 248.304688 182.324219 L 248.425781 182.15625 C 248.96875 181.472656 249.570312 180.84375 250.226562 180.269531 C 250.558594 179.980469 250.898438 179.699219 251.242188 179.425781 L 251.316406 179.367188 L 251.601562 179.15625 L 252.140625 178.761719 C 253.59375 177.746094 255.109375 176.792969 256.550781 175.746094 C 257.777344 174.839844 258.941406 173.855469 260.042969 172.796875 C 262.46875 170.4375 264.75 167.945312 266.886719 165.324219 C 267.632812 164.429688 268.367188 163.519531 269.097656 162.613281 C 266.738281 168.550781 263.820312 174.199219 260.347656 179.5625 C 256.875 184.925781 252.910156 189.898438 248.457031 194.480469 Z M 248.457031 194.492188 " fill-opacity="1" fill-rule="nonzero"/></g><path fill="#000000" d="M 174.761719 104.96875 C 175.113281 106.0625 175.652344 107.054688 176.378906 107.945312 C 177.105469 108.835938 177.96875 109.5625 178.964844 110.128906 C 180.09375 110.726562 181.289062 111.082031 182.558594 111.195312 C 183.828125 111.3125 185.070312 111.175781 186.285156 110.789062 C 188.664062 110.0625 190.78125 108.875 192.640625 107.230469 C 193.058594 107.671875 193.488281 108.109375 193.9375 108.527344 C 195.820312 110.378906 198.046875 111.59375 200.625 112.171875 C 203.453125 112.734375 206.324219 112.4375 209.171875 112.238281 C 211.75 112.015625 214.3125 112.125 216.863281 112.558594 C 221.785156 113.5 226.375 115.808594 229.660156 119.636719 C 231.242188 121.445312 232.410156 123.488281 233.175781 125.765625 C 233.941406 128.042969 234.238281 130.378906 234.070312 132.773438 C 233.96875 133.871094 233.753906 134.945312 233.425781 135.996094 C 233.117188 137.019531 232.707031 137.996094 232.195312 138.933594 C 231.136719 140.90625 229.796875 142.65625 228.164062 144.1875 C 226.519531 145.78125 224.703125 147.136719 222.707031 148.257812 C 220.582031 149.46875 218.351562 150.425781 216.007812 151.128906 C 210.484375 152.839844 204.710938 153.472656 198.984375 154.144531 C 193.621094 154.769531 188.238281 155.449219 183.0625 157.039062 C 178.121094 158.5625 173.371094 160.894531 169.621094 164.503906 C 165.710938 168.269531 163.167969 173.214844 159.164062 176.890625 C 157.414062 178.582031 155.378906 179.796875 153.058594 180.527344 C 151.929688 180.871094 150.777344 180.984375 149.601562 180.871094 C 149.5 180.867188 149.398438 180.855469 149.296875 180.839844 L 148.878906 180.757812 C 148.578125 180.691406 148.285156 180.605469 148 180.496094 C 147.546875 180.308594 147.144531 180.050781 146.78125 179.71875 C 146.605469 179.558594 146.453125 179.371094 146.332031 179.164062 C 146.207031 178.964844 146.097656 178.753906 146 178.539062 C 145.890625 178.257812 145.808594 177.972656 145.746094 177.679688 C 145.6875 177.445312 145.652344 177.207031 145.632812 176.96875 C 145.578125 176.371094 145.578125 175.777344 145.632812 175.183594 C 145.632812 175.054688 145.660156 174.929688 145.675781 174.800781 C 145.675781 174.765625 145.675781 174.628906 145.710938 174.585938 C 145.75 174.328125 145.800781 174.078125 145.863281 173.8125 C 145.976562 173.296875 146.117188 172.789062 146.289062 172.289062 C 146.375 172.042969 146.46875 171.78125 146.5625 171.5625 C 146.566406 171.535156 146.566406 171.507812 146.5625 171.484375 L 146.601562 171.414062 C 146.65625 171.285156 146.710938 171.152344 146.773438 171.027344 C 147.222656 170.074219 147.738281 169.160156 148.328125 168.289062 C 148.625 167.84375 148.933594 167.40625 149.261719 166.976562 C 149.53125 166.609375 149.769531 166.289062 150.152344 165.839844 C 150.847656 164.976562 151.574219 164.144531 152.3125 163.292969 C 153.792969 161.617188 155.308594 159.960938 156.691406 158.207031 C 158.226562 156.378906 159.476562 154.371094 160.445312 152.1875 C 161.414062 150.007812 162.0625 147.734375 162.394531 145.367188 C 163.164062 140.449219 162.933594 135.464844 162.738281 130.511719 C 162.644531 128.039062 162.558594 125.566406 162.609375 123.09375 C 162.636719 121.878906 162.695312 120.667969 162.8125 119.457031 C 162.914062 118.328125 163.085938 117.210938 163.320312 116.101562 C 163.746094 113.875 164.476562 111.753906 165.511719 109.738281 C 165.589844 109.59375 165.640625 109.441406 165.660156 109.28125 C 165.679688 109.121094 165.667969 108.960938 165.625 108.804688 C 165.585938 108.648438 165.515625 108.503906 165.421875 108.371094 C 165.324219 108.242188 165.207031 108.132812 165.070312 108.046875 C 164.929688 107.96875 164.777344 107.917969 164.617188 107.894531 C 164.453125 107.875 164.296875 107.886719 164.136719 107.925781 C 163.980469 107.96875 163.835938 108.039062 163.707031 108.136719 C 163.578125 108.230469 163.46875 108.351562 163.386719 108.492188 C 161 113.039062 160.261719 118.15625 160.160156 123.242188 C 160.058594 128.328125 160.546875 133.414062 160.488281 138.503906 C 160.5 140.957031 160.296875 143.394531 159.882812 145.8125 C 159.453125 148.175781 158.683594 150.425781 157.570312 152.554688 C 155.425781 156.574219 152.195312 159.652344 149.210938 163.167969 C 146.222656 166.683594 143.566406 170.570312 143.160156 175.277344 C 142.933594 177.980469 143.730469 180.910156 146.214844 182.339844 C 148.574219 183.699219 151.65625 183.558594 154.175781 182.734375 C 159.574219 180.972656 163.15625 176.429688 166.441406 172.054688 C 168.054688 169.765625 169.871094 167.648438 171.890625 165.707031 C 173.796875 164.011719 175.898438 162.617188 178.199219 161.519531 C 182.777344 159.265625 188.046875 158.085938 193.167969 157.316406 C 199.089844 156.433594 205.082031 156.039062 210.972656 154.886719 C 216.296875 153.839844 221.546875 152.117188 226.054688 149.027344 C 230.125 146.253906 233.523438 142.535156 235.335938 137.925781 C 237.261719 133.050781 236.828125 127.632812 234.660156 122.917969 C 233.519531 120.511719 231.992188 118.378906 230.085938 116.519531 C 228.175781 114.660156 226.007812 113.191406 223.570312 112.113281 C 221.015625 110.964844 218.351562 110.21875 215.570312 109.875 C 212.796875 109.519531 210.058594 109.707031 207.28125 109.90625 C 205.824219 110.03125 204.367188 110.058594 202.910156 109.992188 C 202.253906 109.957031 201.601562 109.867188 200.960938 109.722656 C 200.652344 109.65625 200.347656 109.574219 200.039062 109.476562 L 199.53125 109.300781 L 199.191406 109.160156 C 197.367188 108.285156 195.792969 107.085938 194.464844 105.554688 C 196.023438 104.03125 197.480469 102.402344 198.972656 100.871094 C 200.675781 99.003906 202.640625 97.476562 204.875 96.292969 C 205.011719 96.207031 205.132812 96.101562 205.230469 95.972656 C 205.328125 95.839844 205.394531 95.699219 205.4375 95.539062 C 205.480469 95.382812 205.488281 95.222656 205.46875 95.0625 C 205.445312 94.902344 205.394531 94.75 205.316406 94.609375 C 205.230469 94.46875 205.121094 94.351562 204.992188 94.253906 C 204.863281 94.160156 204.71875 94.089844 204.558594 94.046875 C 204.402344 94.007812 204.242188 93.996094 204.082031 94.015625 C 203.921875 94.039062 203.769531 94.085938 203.628906 94.167969 C 199.203125 96.363281 196.296875 100.414062 192.832031 103.78125 C 191.535156 102.199219 190.085938 100.769531 188.492188 99.488281 C 186.640625 98.117188 184.570312 97.296875 182.285156 97.023438 C 181.207031 96.863281 180.144531 96.9375 179.101562 97.246094 C 178.054688 97.558594 177.128906 98.078125 176.316406 98.804688 C 175.917969 99.199219 175.578125 99.636719 175.296875 100.125 C 175.019531 100.609375 174.808594 101.125 174.671875 101.667969 C 174.535156 102.214844 174.472656 102.765625 174.488281 103.324219 C 174.503906 103.886719 174.59375 104.433594 174.761719 104.96875 Z M 178.117188 106.179688 C 178.015625 106.058594 178.097656 106.160156 178.117188 106.179688 Z M 177.179688 101.769531 Z M 176.960938 102.59375 C 176.960938 102.667969 176.960938 102.671875 176.960938 102.59375 Z M 176.960938 102.722656 C 176.964844 102.675781 176.964844 102.628906 176.960938 102.585938 C 177.007812 102.371094 177.054688 102.164062 177.121094 101.953125 C 177.121094 101.894531 177.164062 101.832031 177.1875 101.765625 C 177.207031 101.699219 177.292969 101.546875 177.355469 101.433594 L 177.53125 101.140625 L 177.648438 100.976562 C 177.792969 100.796875 177.953125 100.625 178.121094 100.46875 C 178.179688 100.417969 178.238281 100.363281 178.304688 100.3125 L 178.449219 100.203125 C 178.648438 100.070312 178.859375 99.949219 179.078125 99.84375 C 179.125 99.84375 179.214844 99.78125 179.242188 99.773438 L 179.460938 99.695312 C 179.695312 99.621094 179.933594 99.558594 180.175781 99.507812 L 180.410156 99.464844 L 180.59375 99.464844 C 180.851562 99.441406 181.109375 99.433594 181.367188 99.441406 C 181.589844 99.441406 181.816406 99.441406 182.039062 99.476562 L 182.242188 99.476562 L 182.625 99.542969 C 183.125 99.640625 183.621094 99.769531 184.105469 99.933594 C 184.316406 100.003906 184.519531 100.082031 184.730469 100.167969 L 184.980469 100.273438 L 185.359375 100.453125 C 185.824219 100.6875 186.269531 100.945312 186.703125 101.230469 C 186.886719 101.355469 187.066406 101.480469 187.242188 101.613281 L 187.441406 101.769531 L 187.746094 102.035156 C 188.1875 102.433594 188.617188 102.847656 189.027344 103.28125 C 189.699219 103.972656 190.34375 104.695312 190.988281 105.417969 C 189.460938 106.738281 187.746094 107.71875 185.832031 108.363281 C 184.699219 108.71875 183.535156 108.847656 182.347656 108.746094 L 182.210938 108.746094 L 181.871094 108.679688 C 181.601562 108.617188 181.339844 108.539062 181.082031 108.445312 L 180.890625 108.375 L 180.625 108.25 C 180.375 108.128906 180.136719 107.992188 179.902344 107.84375 C 179.714844 107.726562 179.53125 107.601562 179.351562 107.46875 C 179.316406 107.433594 179.179688 107.320312 179.15625 107.300781 C 179.046875 107.207031 178.945312 107.117188 178.851562 107.019531 C 178.671875 106.859375 178.5 106.691406 178.339844 106.511719 C 178.253906 106.414062 178.171875 106.3125 178.089844 106.210938 L 177.953125 106.027344 C 177.828125 105.835938 177.699219 105.640625 177.589844 105.445312 C 177.523438 105.328125 177.460938 105.210938 177.398438 105.09375 C 177.398438 105.050781 177.324219 104.917969 177.296875 104.875 C 177.132812 104.460938 177.015625 104.039062 176.941406 103.601562 C 176.941406 103.5625 176.941406 103.488281 176.941406 103.445312 C 176.941406 103.398438 176.941406 103.230469 176.941406 103.125 C 176.941406 103.015625 176.945312 102.84375 176.953125 102.722656 Z M 176.960938 102.722656 " fill-opacity="1" fill-rule="nonzero"/><path fill="#000000" d="M 221.101562 204.070312 C 221.421875 204.070312 221.742188 204.070312 222.054688 204.070312 C 222.320312 204.0625 222.582031 204.078125 222.839844 204.121094 L 222.914062 204.121094 L 223.082031 204.152344 C 223.25 204.1875 223.414062 204.226562 223.59375 204.273438 C 223.726562 204.308594 223.855469 204.351562 223.984375 204.402344 L 224.035156 204.402344 L 224.136719 204.445312 C 224.253906 204.503906 224.371094 204.566406 224.484375 204.632812 L 224.644531 204.742188 C 224.742188 204.824219 224.835938 204.914062 224.925781 205.003906 L 225.027344 205.117188 C 225.09375 205.21875 225.160156 205.316406 225.214844 205.421875 C 225.269531 205.53125 225.277344 205.535156 225.300781 205.589844 C 225.304688 205.601562 225.304688 205.613281 225.300781 205.625 C 225.347656 205.78125 225.421875 205.925781 225.527344 206.050781 C 225.628906 206.179688 225.75 206.28125 225.890625 206.363281 C 226.035156 206.441406 226.1875 206.492188 226.347656 206.515625 C 226.507812 206.535156 226.667969 206.527344 226.828125 206.484375 C 226.984375 206.441406 227.128906 206.367188 227.257812 206.265625 C 227.386719 206.164062 227.492188 206.042969 227.570312 205.898438 C 227.652344 205.757812 227.703125 205.605469 227.722656 205.441406 C 227.742188 205.277344 227.730469 205.117188 227.6875 204.960938 C 227.4375 204.273438 227.054688 203.667969 226.539062 203.152344 C 226.019531 202.636719 225.414062 202.253906 224.726562 202.007812 C 223.457031 201.566406 222.152344 201.421875 220.816406 201.566406 C 219.457031 201.734375 218.117188 202 216.796875 202.359375 C 216.476562 202.433594 216.15625 202.503906 215.832031 202.558594 C 215.671875 202.589844 215.507812 202.621094 215.347656 202.640625 L 215.152344 202.671875 L 214.992188 202.671875 C 214.335938 202.773438 213.679688 202.8125 213.015625 202.78125 L 212.808594 202.78125 C 212.660156 202.757812 212.519531 202.722656 212.375 202.6875 C 212.234375 202.648438 212.097656 202.605469 211.960938 202.554688 L 211.882812 202.523438 L 211.820312 202.523438 L 211.710938 202.457031 C 211.582031 202.390625 211.464844 202.308594 211.34375 202.238281 L 211.210938 202.125 C 211.105469 202.023438 211.007812 201.914062 210.90625 201.8125 L 210.734375 201.542969 C 210.675781 201.445312 210.625 201.34375 210.574219 201.242188 L 210.574219 201.210938 C 210.5 201.027344 210.4375 200.835938 210.386719 200.640625 C 210.28125 200.261719 210.203125 199.863281 210.132812 199.472656 C 210.027344 198.703125 209.859375 197.953125 209.625 197.210938 C 209.132812 195.910156 208.398438 194.757812 207.425781 193.761719 C 206.453125 192.765625 205.320312 192.007812 204.027344 191.484375 C 202.710938 190.914062 201.332031 190.566406 199.902344 190.441406 C 198.46875 190.320312 197.054688 190.425781 195.65625 190.761719 C 192.394531 191.5625 189.523438 193.433594 187.007812 195.636719 C 184.597656 197.761719 182.59375 200.253906 180.46875 202.652344 C 179.421875 203.847656 178.304688 204.96875 177.109375 206.019531 L 176.683594 206.375 L 176.453125 206.558594 L 176.402344 206.59375 C 176.078125 206.835938 175.742188 207.101562 175.386719 207.300781 C 174.714844 207.738281 174.011719 208.117188 173.273438 208.4375 L 173.238281 208.4375 L 173.167969 208.464844 L 172.871094 208.578125 L 172.214844 208.804688 C 171.792969 208.941406 171.367188 209.058594 170.941406 209.167969 C 170.054688 209.386719 169.160156 209.546875 168.265625 209.675781 C 166.523438 209.914062 164.796875 210.238281 163.085938 210.652344 C 160.222656 211.429688 157.292969 213.007812 155.746094 215.636719 C 155.359375 216.292969 155.078125 216.996094 154.90625 217.738281 C 154.863281 217.894531 154.851562 218.054688 154.871094 218.214844 C 154.890625 218.378906 154.941406 218.53125 155.023438 218.671875 C 155.105469 218.8125 155.210938 218.933594 155.335938 219.035156 C 155.464844 219.136719 155.609375 219.207031 155.765625 219.25 C 155.925781 219.292969 156.082031 219.304688 156.246094 219.285156 C 156.40625 219.265625 156.558594 219.214844 156.703125 219.136719 C 156.84375 219.054688 156.964844 218.949219 157.066406 218.824219 C 157.167969 218.695312 157.238281 218.550781 157.28125 218.394531 C 157.351562 218.105469 157.4375 217.820312 157.542969 217.539062 C 157.542969 217.570312 157.652344 217.28125 157.683594 217.21875 C 157.777344 217.046875 157.871094 216.875 157.972656 216.710938 C 158.058594 216.574219 158.152344 216.441406 158.242188 216.308594 L 158.40625 216.109375 C 158.628906 215.851562 158.867188 215.605469 159.125 215.378906 C 159.246094 215.265625 159.371094 215.160156 159.5 215.050781 L 159.601562 214.976562 L 159.730469 214.878906 C 160.019531 214.675781 160.320312 214.480469 160.625 214.304688 C 160.929688 214.125 161.222656 213.972656 161.53125 213.824219 L 161.953125 213.636719 L 162.039062 213.597656 L 162.375 213.46875 C 165.507812 212.296875 168.925781 212.269531 172.136719 211.382812 C 173.789062 210.9375 175.328125 210.242188 176.757812 209.300781 C 178.101562 208.386719 179.339844 207.347656 180.472656 206.1875 C 182.667969 203.972656 184.542969 201.480469 186.734375 199.246094 C 187.292969 198.667969 187.867188 198.109375 188.46875 197.570312 C 188.738281 197.324219 189.011719 197.089844 189.289062 196.855469 L 189.730469 196.492188 L 189.953125 196.3125 L 190.011719 196.265625 L 190.066406 196.230469 C 191.308594 195.277344 192.640625 194.476562 194.0625 193.832031 L 194.203125 193.773438 L 194.390625 193.699219 L 194.898438 193.503906 C 195.269531 193.371094 195.644531 193.261719 196.027344 193.160156 C 196.410156 193.058594 196.6875 192.996094 197.042969 192.933594 C 197.117188 192.933594 197.605469 192.8125 197.261719 192.898438 C 197.445312 192.863281 197.628906 192.84375 197.8125 192.84375 C 198.433594 192.796875 199.054688 192.796875 199.675781 192.84375 L 200.136719 192.890625 L 200.179688 192.890625 L 200.363281 192.914062 C 200.703125 192.976562 201.03125 193.042969 201.378906 193.128906 C 201.726562 193.214844 201.972656 193.292969 202.265625 193.394531 L 202.703125 193.550781 L 202.871094 193.617188 L 202.898438 193.617188 L 202.957031 193.640625 C 203.523438 193.898438 204.066406 194.199219 204.582031 194.542969 L 204.867188 194.75 L 205.117188 194.945312 C 205.363281 195.15625 205.601562 195.382812 205.824219 195.617188 C 205.925781 195.722656 206.023438 195.835938 206.121094 195.945312 L 206.230469 196.078125 C 206.398438 196.316406 206.566406 196.558594 206.714844 196.8125 C 206.84375 197.042969 206.964844 197.28125 207.070312 197.527344 C 207.070312 197.597656 207.164062 197.761719 207.183594 197.8125 C 207.238281 197.984375 207.292969 198.160156 207.339844 198.320312 C 207.550781 199.101562 207.628906 199.902344 207.804688 200.6875 C 207.933594 201.472656 208.21875 202.199219 208.664062 202.859375 C 209.105469 203.523438 209.667969 204.0625 210.347656 204.480469 C 212.820312 205.871094 215.941406 205.203125 218.542969 204.511719 C 219.144531 204.320312 219.757812 204.195312 220.386719 204.125 C 220.035156 204.152344 220.523438 204.125 220.605469 204.125 Z M 176.453125 206.414062 Z M 210.472656 201.054688 C 210.449219 201.007812 210.472656 201.023438 210.472656 201.054688 Z M 211.816406 202.460938 L 211.929688 202.507812 C 211.929688 202.507812 211.863281 202.488281 211.816406 202.460938 Z M 212.871094 202.757812 L 212.972656 202.757812 C 212.9375 202.773438 212.90625 202.78125 212.871094 202.78125 Z M 212.871094 202.757812 " fill-opacity="1" fill-rule="nonzero"/><path fill="#000000" d="M 104.308594 161.492188 L 104.269531 161.542969 C 104.222656 161.582031 104.160156 161.722656 104.308594 161.492188 Z M 104.308594 161.492188 " fill-opacity="1" fill-rule="nonzero"/><path fill="#000000" d="M 105.144531 156.566406 C 104.933594 156.800781 105.09375 156.632812 105.144531 156.566406 Z M 105.144531 156.566406 " fill-opacity="1" fill-rule="nonzero"/><path fill="#000000" d="M 101.820312 166.4375 C 101.894531 166.160156 101.832031 166.339844 101.820312 166.4375 Z M 101.820312 166.4375 " fill-opacity="1" fill-rule="nonzero"/><path fill="#000000" d="M 189.273438 26.914062 L 189.308594 26.832031 Z M 189.273438 26.914062 " fill-opacity="1" fill-rule="nonzero"/><g clip-path="url(#72bfd988fe)"><path fill="#000000" d="M 195.753906 67.984375 C 199.441406 73.988281 203.351562 79.847656 207.023438 85.859375 C 207.546875 86.71875 208.070312 87.582031 208.589844 88.449219 C 208.648438 88.539062 208.714844 88.621094 208.789062 88.695312 C 208.867188 88.769531 208.953125 88.832031 209.046875 88.886719 C 209.136719 88.9375 209.238281 88.976562 209.339844 89.003906 C 209.441406 89.03125 209.546875 89.042969 209.65625 89.042969 C 209.761719 89.042969 209.867188 89.03125 209.96875 89.003906 C 210.074219 88.976562 210.171875 88.9375 210.265625 88.886719 C 210.355469 88.832031 210.441406 88.769531 210.519531 88.695312 C 210.597656 88.621094 210.664062 88.539062 210.71875 88.449219 C 214.351562 83.128906 217.648438 77.609375 220.605469 71.886719 C 222.027344 69.226562 223.410156 66.546875 224.824219 63.886719 C 226.289062 61.128906 227.722656 58.386719 228.894531 55.496094 C 231.292969 49.679688 232.757812 43.636719 233.289062 37.367188 C 233.5625 34.386719 233.5625 31.402344 233.289062 28.421875 C 233.074219 25.894531 232.433594 23.484375 231.363281 21.1875 C 230.273438 18.972656 228.714844 17.167969 226.679688 15.769531 C 224.289062 14.175781 221.660156 13.246094 218.800781 12.972656 C 215.878906 12.648438 213.121094 13.167969 210.519531 14.535156 C 209.257812 15.246094 208.09375 16.09375 207.03125 17.078125 C 206.035156 17.964844 205.125 18.929688 204.296875 19.976562 C 200.84375 24.351562 198.882812 29.894531 199.5625 35.496094 C 200.222656 40.855469 203.066406 46.449219 208.0625 48.960938 C 210.40625 50.140625 213.300781 50.742188 215.820312 49.734375 C 218.710938 48.578125 220.242188 45.878906 221.101562 43.023438 C 221.960938 40.171875 222.269531 36.808594 221.246094 33.867188 C 220.785156 32.488281 220.046875 31.277344 219.03125 30.234375 C 218.019531 29.1875 216.828125 28.414062 215.464844 27.910156 C 214.160156 27.457031 212.832031 27.367188 211.480469 27.648438 C 211.324219 27.691406 211.179688 27.765625 211.050781 27.863281 C 210.921875 27.964844 210.816406 28.089844 210.734375 28.230469 C 210.652344 28.375 210.601562 28.527344 210.582031 28.691406 C 210.5625 28.855469 210.578125 29.015625 210.621094 29.171875 C 210.667969 29.328125 210.742188 29.472656 210.84375 29.601562 C 210.945312 29.726562 211.066406 29.832031 211.210938 29.914062 C 211.351562 29.992188 211.503906 30.042969 211.667969 30.066406 C 211.828125 30.085938 211.988281 30.078125 212.148438 30.039062 C 212.199219 30.039062 212.46875 29.992188 212.453125 29.988281 L 212.8125 29.988281 C 213.082031 29.984375 213.347656 29.996094 213.613281 30.023438 L 213.914062 30.074219 C 214.058594 30.105469 214.203125 30.132812 214.34375 30.175781 L 214.710938 30.292969 L 215.035156 30.414062 C 215.554688 30.644531 216.042969 30.929688 216.496094 31.269531 L 216.734375 31.460938 L 217.03125 31.726562 C 217.265625 31.949219 217.488281 32.1875 217.695312 32.433594 L 217.824219 32.597656 L 217.855469 32.632812 C 217.929688 32.742188 218.007812 32.851562 218.078125 32.960938 C 218.257812 33.230469 218.417969 33.507812 218.5625 33.796875 C 218.683594 34.023438 218.78125 34.257812 218.863281 34.5 C 218.984375 34.851562 219.089844 35.207031 219.175781 35.566406 C 219.335938 36.1875 219.417969 36.816406 219.429688 37.453125 C 219.457031 38.164062 219.425781 38.875 219.34375 39.582031 C 219.34375 39.648438 219.34375 39.710938 219.34375 39.777344 C 219.34375 39.796875 219.34375 39.816406 219.34375 39.835938 C 219.316406 40.011719 219.289062 40.1875 219.253906 40.34375 C 219.191406 40.695312 219.117188 41.039062 219.03125 41.390625 C 218.867188 42.0625 218.664062 42.722656 218.425781 43.371094 C 218.367188 43.527344 218.308594 43.6875 218.246094 43.839844 L 218.246094 43.867188 L 218.105469 44.078125 C 217.949219 44.398438 217.78125 44.710938 217.59375 45.011719 C 217.316406 45.542969 216.960938 46.011719 216.523438 46.417969 C 216.40625 46.527344 216.289062 46.636719 216.160156 46.742188 L 216.128906 46.742188 L 215.988281 46.84375 C 215.734375 47.019531 215.46875 47.175781 215.1875 47.308594 L 215.078125 47.363281 L 215.042969 47.363281 L 214.640625 47.5 C 214.355469 47.582031 214.066406 47.648438 213.773438 47.695312 L 213.605469 47.695312 C 213.464844 47.695312 213.324219 47.695312 213.175781 47.695312 C 212.867188 47.703125 212.558594 47.691406 212.253906 47.664062 L 212.003906 47.632812 L 211.652344 47.566406 C 211.359375 47.511719 211.070312 47.433594 210.785156 47.351562 C 210.5 47.273438 210.210938 47.160156 209.925781 47.054688 L 209.863281 47.128906 L 209.722656 47.0625 C 209.578125 47.003906 209.441406 46.9375 209.304688 46.863281 C 208.753906 46.589844 208.230469 46.273438 207.730469 45.917969 L 207.476562 45.726562 L 207.175781 45.480469 C 206.945312 45.28125 206.71875 45.074219 206.507812 44.859375 C 206.0625 44.417969 205.644531 43.949219 205.253906 43.457031 L 205.222656 43.417969 L 205.082031 43.222656 L 204.808594 42.839844 C 204.628906 42.582031 204.460938 42.332031 204.296875 42.042969 C 203.96875 41.503906 203.671875 40.949219 203.410156 40.375 L 203.242188 39.996094 L 203.132812 39.742188 C 203.011719 39.433594 202.898438 39.117188 202.792969 38.796875 C 202.589844 38.195312 202.421875 37.585938 202.285156 36.964844 C 202.222656 36.675781 202.167969 36.382812 202.117188 36.089844 C 202.085938 35.933594 202.066406 35.777344 202.039062 35.617188 C 202.039062 35.515625 202.039062 35.410156 202 35.308594 C 201.933594 34.675781 201.898438 34.042969 201.890625 33.40625 C 201.886719 32.769531 201.917969 32.136719 201.980469 31.503906 L 202.023438 31.089844 L 202.023438 31.054688 L 202.054688 30.832031 C 202.105469 30.511719 202.160156 30.195312 202.226562 29.886719 C 202.359375 29.253906 202.523438 28.632812 202.710938 28.023438 C 202.804688 27.738281 202.898438 27.453125 203 27.175781 C 203.058594 27.023438 203.113281 26.875 203.175781 26.722656 C 203.199219 26.648438 203.230469 26.574219 203.261719 26.503906 L 203.261719 26.40625 C 203.765625 25.222656 204.378906 24.097656 205.09375 23.027344 C 205.253906 22.777344 205.429688 22.519531 205.601562 22.285156 C 205.691406 22.152344 205.789062 22.027344 205.886719 21.898438 L 205.941406 21.824219 L 206.105469 21.625 C 206.507812 21.117188 206.929688 20.636719 207.375 20.167969 C 207.824219 19.703125 208.257812 19.285156 208.71875 18.867188 C 208.957031 18.652344 209.226562 18.445312 209.453125 18.238281 L 209.828125 17.9375 L 209.894531 17.886719 L 210.058594 17.765625 C 210.582031 17.367188 211.136719 17.011719 211.714844 16.695312 C 211.988281 16.546875 212.269531 16.410156 212.554688 16.285156 C 212.605469 16.285156 212.773438 16.195312 212.804688 16.183594 L 213.3125 16 C 213.925781 15.796875 214.550781 15.640625 215.1875 15.53125 L 215.515625 15.484375 C 215.65625 15.464844 215.800781 15.449219 215.941406 15.4375 C 216.261719 15.410156 216.589844 15.394531 216.914062 15.386719 C 219.472656 15.339844 221.878906 15.917969 224.136719 17.117188 C 224.648438 17.394531 225.140625 17.699219 225.613281 18.035156 L 225.898438 18.246094 L 226.054688 18.378906 C 226.285156 18.570312 226.503906 18.761719 226.710938 18.960938 C 227.089844 19.320312 227.441406 19.703125 227.769531 20.109375 C 227.808594 20.160156 227.851562 20.207031 227.886719 20.257812 C 227.953125 20.351562 228.027344 20.445312 228.09375 20.535156 C 228.257812 20.769531 228.414062 21.007812 228.5625 21.25 C 228.847656 21.707031 229.101562 22.179688 229.332031 22.667969 C 229.386719 22.789062 229.4375 22.917969 229.5 23.039062 C 229.515625 23.078125 229.535156 23.117188 229.550781 23.160156 C 229.660156 23.429688 229.761719 23.703125 229.855469 23.980469 C 230.21875 25.058594 230.488281 26.15625 230.667969 27.28125 C 230.667969 27.40625 230.703125 27.535156 230.722656 27.664062 C 230.722656 27.707031 230.722656 27.753906 230.722656 27.800781 C 230.726562 27.828125 230.726562 27.855469 230.722656 27.882812 C 230.757812 28.175781 230.796875 28.472656 230.820312 28.769531 C 230.882812 29.425781 230.917969 30.09375 230.941406 30.753906 C 231 32.230469 231 33.707031 230.941406 35.175781 C 230.828125 38.0625 230.476562 40.921875 229.894531 43.75 C 229.300781 46.648438 228.503906 49.488281 227.5 52.273438 C 226.523438 54.980469 225.359375 57.605469 224.003906 60.144531 C 222.6875 62.640625 221.355469 65.132812 220.042969 67.628906 C 217.238281 72.980469 214.378906 78.3125 211.121094 83.398438 C 210.652344 84.128906 210.167969 84.863281 209.679688 85.585938 C 206.277344 79.988281 202.703125 74.511719 199.21875 68.972656 C 197.640625 66.457031 196.09375 63.925781 194.640625 61.339844 C 193.960938 60.121094 193.304688 58.878906 192.6875 57.625 C 192.386719 57.019531 192.097656 56.410156 191.816406 55.792969 L 191.449219 54.96875 L 191.25 54.511719 L 191.210938 54.417969 C 191.210938 54.386719 191.113281 54.183594 191.105469 54.160156 C 190.09375 51.710938 189.285156 49.199219 188.675781 46.621094 C 188.363281 45.296875 188.101562 43.957031 187.902344 42.605469 L 187.84375 42.179688 C 187.84375 42.179688 187.808594 41.90625 187.796875 41.84375 C 187.75 41.472656 187.710938 41.101562 187.671875 40.730469 C 187.597656 40.011719 187.539062 39.289062 187.496094 38.5625 C 187.394531 37.085938 187.394531 35.609375 187.496094 34.132812 C 187.496094 33.785156 187.558594 33.445312 187.597656 33.117188 C 187.597656 33.050781 187.644531 32.804688 187.597656 33.066406 L 187.628906 32.847656 C 187.660156 32.632812 187.695312 32.417969 187.734375 32.199219 C 187.863281 31.484375 188.019531 30.777344 188.214844 30.074219 C 188.40625 29.371094 188.625 28.675781 188.875 27.992188 C 188.996094 27.648438 189.136719 27.3125 189.273438 26.976562 C 189.285156 26.949219 189.296875 26.921875 189.308594 26.894531 C 189.332031 26.84375 189.355469 26.789062 189.378906 26.738281 C 189.460938 26.546875 189.542969 26.371094 189.628906 26.1875 C 190.25 24.859375 190.972656 23.59375 191.800781 22.382812 C 192.007812 22.082031 192.21875 21.78125 192.4375 21.488281 L 192.570312 21.3125 L 192.679688 21.167969 C 192.722656 21.117188 192.78125 21.035156 192.78125 21.039062 L 192.984375 20.785156 C 193.449219 20.214844 193.933594 19.667969 194.433594 19.136719 C 194.945312 18.628906 195.453125 18.121094 196.011719 17.609375 C 196.28125 17.367188 196.5625 17.132812 196.839844 16.898438 L 197.226562 16.589844 L 197.375 16.472656 L 197.539062 16.34375 C 198.707031 15.464844 199.941406 14.691406 201.242188 14.023438 C 201.5625 13.863281 201.890625 13.699219 202.222656 13.546875 L 202.730469 13.328125 L 202.792969 13.328125 L 203.042969 13.226562 C 203.71875 12.953125 204.410156 12.71875 205.105469 12.503906 C 205.804688 12.289062 206.519531 12.121094 207.238281 11.996094 C 207.398438 11.949219 207.539062 11.878906 207.667969 11.777344 C 207.796875 11.675781 207.902344 11.554688 207.984375 11.410156 C 208.0625 11.265625 208.113281 11.113281 208.132812 10.949219 C 208.152344 10.789062 208.140625 10.628906 208.097656 10.46875 C 208.050781 10.3125 207.976562 10.171875 207.875 10.042969 C 207.773438 9.914062 207.652344 9.8125 207.507812 9.730469 C 207.367188 9.652344 207.214844 9.601562 207.050781 9.578125 C 206.890625 9.558594 206.730469 9.570312 206.574219 9.609375 C 203.566406 10.25 200.753906 11.378906 198.136719 12.988281 C 195.515625 14.597656 193.242188 16.597656 191.3125 18.988281 C 187.40625 23.757812 184.96875 29.742188 184.945312 35.949219 C 184.945312 41.734375 185.945312 47.339844 187.945312 52.769531 C 189.929688 58.082031 192.75 63.117188 195.753906 67.984375 Z M 217.792969 32.550781 Z M 217.792969 32.550781 " fill-opacity="1" fill-rule="nonzero"/></g><g fill="#000000" fill-opacity="1"><g transform="translate(7.378903, 267.681166)"><g><path d="M 14.148438 0 L 14.148438 -23.730469 L 21.53125 -23.730469 L 21.53125 -29.621094 L 0.828125 -29.621094 L 0.828125 -23.730469 L 8.214844 -23.730469 L 8.214844 0 Z M 14.148438 0 "/></g></g></g><g fill="#000000" fill-opacity="1"><g transform="translate(30.069356, 267.681166)"><g><path d="M 18.089844 0 L 24.808594 0 L 17.921875 -12.238281 C 26.636719 -14.769531 25.597656 -29.664062 15.019531 -29.664062 L 3.320312 -29.664062 L 3.320312 0 L 9.25 0 L 9.25 -11.328125 L 12.113281 -11.328125 Z M 9.25 -17.09375 L 9.25 -23.730469 L 14.480469 -23.730469 C 18.503906 -23.730469 18.503906 -17.09375 14.480469 -17.09375 Z M 9.25 -17.09375 "/></g></g></g><g fill="#000000" fill-opacity="1"><g transform="translate(55.497597, 267.681166)"><g><path d="M 0.664062 0 L 7.386719 0 L 8.546875 -3.195312 L 18.378906 -3.195312 L 19.582031 0 L 26.261719 0 L 13.773438 -30.742188 L 13.152344 -30.742188 Z M 10.703125 -8.753906 L 13.484375 -16.472656 L 16.179688 -8.753906 Z M 10.703125 -8.753906 "/></g></g></g><g fill="#000000" fill-opacity="1"><g transform="translate(82.585111, 267.681166)"><g><path d="M 12.53125 0.621094 L 13.855469 0.621094 L 26.136719 -29.664062 L 19.292969 -29.664062 L 15.308594 -19.582031 L 13.191406 -13.648438 L 11.035156 -19.789062 L 7.09375 -29.664062 L 0.25 -29.664062 Z M 12.53125 0.621094 "/></g></g></g><g fill="#000000" fill-opacity="1"><g transform="translate(109.008917, 267.681166)"><g><path d="M 18.667969 0 L 18.667969 -5.933594 L 9.25 -5.933594 L 9.25 -11.867188 L 17.050781 -11.867188 L 17.050781 -17.796875 L 9.25 -17.796875 L 9.25 -23.730469 L 18.171875 -23.730469 L 18.171875 -29.664062 L 3.320312 -29.664062 L 3.320312 0 Z M 18.667969 0 "/></g></g></g><g fill="#000000" fill-opacity="1"><g transform="translate(129.915663, 267.681166)"><g><path d="M 3.320312 -29.664062 L 3.320312 0 L 18.667969 0 L 18.667969 -5.933594 L 9.25 -5.933594 L 9.25 -29.664062 Z M 3.320312 -29.664062 "/></g></g></g><g fill="#000000" fill-opacity="1"><g transform="translate(150.366109, 267.681166)"><g/></g></g><g fill="#000000" fill-opacity="1"><g transform="translate(162.146901, 267.681166)"><g><path d="M 1.949219 -1.910156 C 5.972656 0.164062 9.667969 0.375 11.328125 0.25 C 16.886719 -0.0429688 20.289062 -3.816406 20.289062 -8.753906 C 20.289062 -13.484375 16.304688 -16.140625 11.699219 -17.839844 C 10 -18.421875 8.546875 -19.167969 8.378906 -20.828125 C 8.257812 -22.488281 9.210938 -24.023438 11.328125 -24.144531 C 12.238281 -24.1875 14.105469 -24.230469 17.382812 -22.902344 L 18.128906 -28.625 C 14.3125 -29.953125 12.28125 -29.953125 10.746094 -29.871094 C 5.808594 -29.621094 2.363281 -25.804688 2.363281 -20.828125 C 2.363281 -15.847656 6.511719 -13.484375 11.160156 -11.78125 C 12.820312 -11.203125 14.105469 -10.453125 14.230469 -8.753906 C 14.394531 -7.136719 12.902344 -5.890625 11.160156 -5.765625 C 9.792969 -5.640625 6.097656 -5.726562 2.695312 -8.132812 Z M 1.949219 -1.910156 "/></g></g></g><g fill="#000000" fill-opacity="1"><g transform="translate(184.090693, 267.681166)"><g><path d="M 0.664062 0 L 7.386719 0 L 8.546875 -3.195312 L 18.378906 -3.195312 L 19.582031 0 L 26.261719 0 L 13.773438 -30.742188 L 13.152344 -30.742188 Z M 10.703125 -8.753906 L 13.484375 -16.472656 L 16.179688 -8.753906 Z M 10.703125 -8.753906 "/></g></g></g><g fill="#000000" fill-opacity="1"><g transform="translate(211.178207, 267.681166)"><g><path d="M 3.320312 -29.664062 L 3.320312 0 L 18.667969 0 L 18.667969 -5.933594 L 9.25 -5.933594 L 9.25 -29.664062 Z M 3.320312 -29.664062 "/></g></g></g><g fill="#000000" fill-opacity="1"><g transform="translate(231.628666, 267.681166)"><g><path d="M 18.667969 0 L 18.667969 -5.933594 L 9.25 -5.933594 L 9.25 -11.867188 L 17.050781 -11.867188 L 17.050781 -17.796875 L 9.25 -17.796875 L 9.25 -23.730469 L 18.171875 -23.730469 L 18.171875 -29.664062 L 3.320312 -29.664062 L 3.320312 0 Z M 18.667969 0 "/></g></g></g><g fill="#000000" fill-opacity="1"><g transform="translate(252.535412, 267.681166)"><g><path d="M 1.949219 -1.910156 C 5.972656 0.164062 9.667969 0.375 11.328125 0.25 C 16.886719 -0.0429688 20.289062 -3.816406 20.289062 -8.753906 C 20.289062 -13.484375 16.304688 -16.140625 11.699219 -17.839844 C 10 -18.421875 8.546875 -19.167969 8.378906 -20.828125 C 8.257812 -22.488281 9.210938 -24.023438 11.328125 -24.144531 C 12.238281 -24.1875 14.105469 -24.230469 17.382812 -22.902344 L 18.128906 -28.625 C 14.3125 -29.953125 12.28125 -29.953125 10.746094 -29.871094 C 5.808594 -29.621094 2.363281 -25.804688 2.363281 -20.828125 C 2.363281 -15.847656 6.511719 -13.484375 11.160156 -11.78125 C 12.820312 -11.203125 14.105469 -10.453125 14.230469 -8.753906 C 14.394531 -7.136719 12.902344 -5.890625 11.160156 -5.765625 C 9.792969 -5.640625 6.097656 -5.726562 2.695312 -8.132812 Z M 1.949219 -1.910156 "/></g></g></g><g fill="#000000" fill-opacity="1"><g transform="translate(274.479204, 267.681166)"><g><path d="M 16.925781 -17.09375 L 5.226562 -30.121094 L 3.320312 -30.121094 L 3.320312 0 L 9.335938 0 L 9.335938 -16.554688 L 16.925781 -8.589844 L 24.519531 -16.554688 L 24.476562 0 L 30.492188 0 L 30.492188 -30.121094 L 28.625 -30.121094 Z M 16.925781 -17.09375 "/></g></g></g><g fill="#000000" fill-opacity="1"><g transform="translate(308.328209, 267.681166)"><g><path d="M 0.664062 0 L 7.386719 0 L 8.546875 -3.195312 L 18.378906 -3.195312 L 19.582031 0 L 26.261719 0 L 13.773438 -30.742188 L 13.152344 -30.742188 Z M 10.703125 -8.753906 L 13.484375 -16.472656 L 16.179688 -8.753906 Z M 10.703125 -8.753906 "/></g></g></g><g fill="#000000" fill-opacity="1"><g transform="translate(335.415724, 267.681166)"><g><path d="M 9.25 -16.140625 L 24.269531 0.621094 L 25.847656 0.621094 L 25.847656 -29.621094 L 19.871094 -29.621094 L 19.871094 -12.863281 L 4.894531 -30.285156 L 3.320312 -30.285156 L 3.320312 0 L 9.25 0 Z M 9.25 -16.140625 "/></g></g></g><g fill="#ffffff" fill-opacity="1"><g transform="translate(103.852044, 325.778974)"><g><path d="M 5.976562 -6.035156 L 1.84375 -10.632812 L 1.171875 -10.632812 L 1.171875 0 L 3.296875 0 L 3.296875 -5.84375 L 5.976562 -3.03125 L 8.65625 -5.84375 L 8.640625 0 L 10.765625 0 L 10.765625 -10.632812 L 10.105469 -10.632812 Z M 5.976562 -6.035156 "/></g></g></g><g fill="#ffffff" fill-opacity="1"><g transform="translate(117.084709, 325.778974)"><g><path d="M 0.234375 0 L 2.605469 0 L 3.015625 -1.128906 L 6.488281 -1.128906 L 6.914062 0 L 9.273438 0 L 4.863281 -10.855469 L 4.644531 -10.855469 Z M 3.777344 -3.089844 L 4.761719 -5.816406 L 5.710938 -3.089844 Z M 3.777344 -3.089844 "/></g></g></g><g fill="#ffffff" fill-opacity="1"><g transform="translate(127.931602, 325.778974)"><g><path d="M 3.265625 -5.699219 L 8.570312 0.21875 L 9.125 0.21875 L 9.125 -10.457031 L 7.015625 -10.457031 L 7.015625 -4.539062 L 1.726562 -10.691406 L 1.171875 -10.691406 L 1.171875 0 L 3.265625 0 Z M 3.265625 -5.699219 "/></g></g></g><g fill="#ffffff" fill-opacity="1"><g transform="translate(139.524958, 325.778974)"><g><path d="M 0.234375 0 L 2.605469 0 L 3.015625 -1.128906 L 6.488281 -1.128906 L 6.914062 0 L 9.273438 0 L 4.863281 -10.855469 L 4.644531 -10.855469 Z M 3.777344 -3.089844 L 4.761719 -5.816406 L 5.710938 -3.089844 Z M 3.777344 -3.089844 "/></g></g></g><g fill="#ffffff" fill-opacity="1"><g transform="translate(150.371851, 325.778974)"><g><path d="M 8.730469 -0.644531 L 8.730469 -5.242188 L 6.605469 -5.242188 L 6.605469 -2.09375 C 6.414062 -2.066406 6.210938 -2.035156 6.019531 -2.035156 C 1.976562 -2.035156 1.785156 -8.289062 6.019531 -8.4375 C 7.132812 -8.464844 7.808594 -8.230469 8.21875 -8.054688 L 8.464844 -10.179688 C 8.277344 -10.238281 7.265625 -10.605469 6.019531 -10.5625 C -1.246094 -10.296875 -0.894531 0.0585938 6.019531 0.0585938 C 7.015625 0.0585938 7.925781 -0.191406 8.730469 -0.644531 Z M 8.730469 -0.644531 "/></g></g></g><g fill="#ffffff" fill-opacity="1"><g transform="translate(161.511472, 325.778974)"><g><path d="M 6.589844 0 L 6.589844 -2.09375 L 3.265625 -2.09375 L 3.265625 -4.1875 L 6.019531 -4.1875 L 6.019531 -6.285156 L 3.265625 -6.285156 L 3.265625 -8.378906 L 6.414062 -8.378906 L 6.414062 -10.472656 L 1.171875 -10.472656 L 1.171875 0 Z M 6.589844 0 "/></g></g></g><g fill="#ffffff" fill-opacity="1"><g transform="translate(170.177498, 325.778974)"><g/></g></g><g fill="#ffffff" fill-opacity="1"><g transform="translate(175.623466, 325.778974)"><g><path d="M 4.453125 -10.609375 C 5.234375 -10.609375 5.847656 -10.410156 6.296875 -10.015625 C 6.753906 -9.617188 6.984375 -9.066406 6.984375 -8.359375 C 6.984375 -7.742188 6.785156 -7.222656 6.390625 -6.796875 C 5.992188 -6.367188 5.492188 -5.976562 4.890625 -5.625 L 7.71875 -2.90625 C 7.96875 -3.207031 8.171875 -3.550781 8.328125 -3.9375 C 8.492188 -4.332031 8.628906 -4.765625 8.734375 -5.234375 L 10.046875 -5.234375 C 9.890625 -4.597656 9.691406 -4.007812 9.453125 -3.46875 C 9.222656 -2.9375 8.921875 -2.472656 8.546875 -2.078125 L 10.6875 0 L 8.953125 0 L 7.671875 -1.234375 C 7.210938 -0.816406 6.695312 -0.484375 6.125 -0.234375 C 5.5625 0.015625 4.875 0.140625 4.0625 0.140625 C 3.050781 0.140625 2.25 -0.101562 1.65625 -0.59375 C 1.070312 -1.09375 0.78125 -1.800781 0.78125 -2.71875 C 0.78125 -3.457031 0.976562 -4.054688 1.375 -4.515625 C 1.78125 -4.984375 2.332031 -5.410156 3.03125 -5.796875 C 2.71875 -6.148438 2.425781 -6.523438 2.15625 -6.921875 C 1.882812 -7.328125 1.75 -7.796875 1.75 -8.328125 C 1.75 -9.046875 1.988281 -9.601562 2.46875 -10 C 2.945312 -10.40625 3.609375 -10.609375 4.453125 -10.609375 Z M 4.40625 -9.5625 C 4 -9.5625 3.664062 -9.453125 3.40625 -9.234375 C 3.144531 -9.023438 3.015625 -8.726562 3.015625 -8.34375 C 3.015625 -7.988281 3.109375 -7.660156 3.296875 -7.359375 C 3.484375 -7.066406 3.75 -6.742188 4.09375 -6.390625 C 4.675781 -6.710938 5.085938 -7.019531 5.328125 -7.3125 C 5.578125 -7.613281 5.703125 -7.960938 5.703125 -8.359375 C 5.703125 -8.710938 5.582031 -9 5.34375 -9.21875 C 5.113281 -9.445312 4.800781 -9.5625 4.40625 -9.5625 Z M 3.8125 -5 C 3.28125 -4.6875 2.863281 -4.367188 2.5625 -4.046875 C 2.269531 -3.722656 2.125 -3.296875 2.125 -2.765625 C 2.125 -2.234375 2.300781 -1.804688 2.65625 -1.484375 C 3.019531 -1.160156 3.503906 -1 4.109375 -1 C 4.734375 -1 5.269531 -1.097656 5.71875 -1.296875 C 6.164062 -1.503906 6.546875 -1.75 6.859375 -2.03125 Z M 3.8125 -5 "/></g></g></g><g fill="#ffffff" fill-opacity="1"><g transform="translate(187.626647, 325.778974)"><g/></g></g><g fill="#ffffff" fill-opacity="1"><g transform="translate(193.072615, 325.778974)"><g><path d="M 0.6875 -0.671875 C 2.109375 0.0585938 3.414062 0.132812 4 0.0859375 C 5.960938 -0.015625 7.164062 -1.347656 7.164062 -3.089844 C 7.164062 -4.761719 5.757812 -5.699219 4.128906 -6.296875 C 3.53125 -6.503906 3.015625 -6.765625 2.957031 -7.351562 C 2.914062 -7.9375 3.25 -8.480469 4 -8.523438 C 4.320312 -8.539062 4.980469 -8.554688 6.136719 -8.085938 L 6.402344 -10.105469 C 5.054688 -10.574219 4.335938 -10.574219 3.792969 -10.546875 C 2.050781 -10.457031 0.835938 -9.109375 0.835938 -7.351562 C 0.835938 -5.59375 2.300781 -4.761719 3.941406 -4.160156 C 4.527344 -3.953125 4.980469 -3.691406 5.023438 -3.089844 C 5.082031 -2.519531 4.554688 -2.078125 3.941406 -2.035156 C 3.457031 -1.992188 2.152344 -2.019531 0.953125 -2.871094 Z M 0.6875 -0.671875 "/></g></g></g><g fill="#ffffff" fill-opacity="1"><g transform="translate(202.104555, 325.778974)"><g><path d="M 6.589844 0 L 6.589844 -2.09375 L 3.265625 -2.09375 L 3.265625 -4.1875 L 6.019531 -4.1875 L 6.019531 -6.285156 L 3.265625 -6.285156 L 3.265625 -8.378906 L 6.414062 -8.378906 L 6.414062 -10.472656 L 1.171875 -10.472656 L 1.171875 0 Z M 6.589844 0 "/></g></g></g><g fill="#ffffff" fill-opacity="1"><g transform="translate(210.770582, 325.778974)"><g><path d="M 1.171875 -10.472656 L 1.171875 0 L 6.589844 0 L 6.589844 -2.09375 L 3.265625 -2.09375 L 3.265625 -10.472656 Z M 1.171875 -10.472656 "/></g></g></g><g fill="#ffffff" fill-opacity="1"><g transform="translate(219.275613, 325.778974)"><g><path d="M 1.171875 -10.472656 L 1.171875 0 L 6.589844 0 L 6.589844 -2.09375 L 3.265625 -2.09375 L 3.265625 -10.472656 Z M 1.171875 -10.472656 "/></g></g></g><g fill="#ffffff" fill-opacity="1"><g transform="translate(227.780644, 325.778974)"><g/></g></g><g fill="#ffffff" fill-opacity="1"><g transform="translate(233.226612, 325.778974)"><g><path d="M 5.976562 -6.035156 L 1.84375 -10.632812 L 1.171875 -10.632812 L 1.171875 0 L 3.296875 0 L 3.296875 -5.84375 L 5.976562 -3.03125 L 8.65625 -5.84375 L 8.640625 0 L 10.765625 0 L 10.765625 -10.632812 L 10.105469 -10.632812 Z M 5.976562 -6.035156 "/></g></g></g><g fill="#ffffff" fill-opacity="1"><g transform="translate(246.459277, 325.778974)"><g><path d="M 6.210938 0.144531 C 13.417969 0.144531 13.417969 -10.648438 6.210938 -10.648438 C -0.996094 -10.648438 -0.996094 0.144531 6.210938 0.144531 Z M 6.210938 -2.019531 C 2.019531 -2.019531 2.019531 -8.496094 6.210938 -8.496094 C 10.398438 -8.496094 10.398438 -2.019531 6.210938 -2.019531 Z M 6.210938 -2.019531 "/></g></g></g><g fill="#ffffff" fill-opacity="1"><g transform="translate(260.145678, 325.778974)"><g><path d="M 6.386719 0 L 8.757812 0 L 6.328125 -4.320312 C 9.402344 -5.214844 9.039062 -10.472656 5.300781 -10.472656 L 1.171875 -10.472656 L 1.171875 0 L 3.265625 0 L 3.265625 -4 L 4.277344 -4 Z M 3.265625 -6.035156 L 3.265625 -8.378906 L 5.113281 -8.378906 C 6.53125 -8.378906 6.53125 -6.035156 5.113281 -6.035156 Z M 3.265625 -6.035156 "/></g></g></g><g fill="#ffffff" fill-opacity="1"><g transform="translate(270.407102, 325.778974)"><g><path d="M 6.589844 0 L 6.589844 -2.09375 L 3.265625 -2.09375 L 3.265625 -4.1875 L 6.019531 -4.1875 L 6.019531 -6.285156 L 3.265625 -6.285156 L 3.265625 -8.378906 L 6.414062 -8.378906 L 6.414062 -10.472656 L 1.171875 -10.472656 L 1.171875 0 Z M 6.589844 0 "/></g></g></g></svg>