<svg xmlns="http://www.w3.org/2000/svg" xmlns:xlink="http://www.w3.org/1999/xlink" width="500" zoomAndPan="magnify" viewBox="0 0 375 374.999991" height="500" preserveAspectRatio="xMidYMid meet" version="1.0"><defs><filter x="0%" y="0%" width="100%" height="100%" id="6d0c224eb9"><feColorMatrix values="0 0 0 0 1 0 0 0 0 1 0 0 0 0 1 0 0 0 1 0" color-interpolation-filters="sRGB"/></filter><g/><mask id="4548d64f4a"><g filter="url(#6d0c224eb9)"><rect x="-37.5" width="450" fill="#000000" y="-37.499999" height="449.999989" fill-opacity="0.25"/></g></mask><clipPath id="9e0cf2a139"><path d="M 7 22 L 102 22 L 102 95 L 7 95 Z M 7 22 " clip-rule="nonzero"/></clipPath><clipPath id="4d5597c3ce"><path d="M 119.492188 78.109375 L 22.324219 117.902344 L -12.351562 33.226562 L 84.816406 -6.566406 Z M 119.492188 78.109375 " clip-rule="nonzero"/></clipPath><clipPath id="1fcc0a8a76"><path d="M 119.492188 78.109375 L 22.324219 117.902344 L -12.351562 33.226562 L 84.816406 -6.566406 Z M 119.492188 78.109375 " clip-rule="nonzero"/></clipPath><clipPath id="4025dca333"><rect x="0" width="108" y="0" height="110"/></clipPath><clipPath id="c371db483f"><path d="M 78 17 L 279 17 L 279 217.5 L 78 217.5 Z M 78 17 " clip-rule="nonzero"/></clipPath></defs><g mask="url(#4548d64f4a)"><g transform="matrix(1, 0, 0, 1, 114, 109)"><g clip-path="url(#4025dca333)"><g clip-path="url(#9e0cf2a139)"><g clip-path="url(#4d5597c3ce)"><g clip-path="url(#1fcc0a8a76)"><path fill="#0097b2" d="M 42.820312 91.621094 C 25.070312 85.203125 -8.3125 42.507812 17.089844 25.769531 C 34.269531 14.4375 36.996094 32.5625 60.535156 46.742188 C 68.335938 51.433594 106.496094 46.550781 100.878906 70.726562 C 97.546875 85.054688 66.027344 100.003906 42.820312 91.621094 Z M 42.820312 91.621094 " fill-opacity="1" fill-rule="nonzero"/></g></g></g></g></g></g><g clip-path="url(#c371db483f)"><path fill="#000000" d="M 238.039062 36.980469 C 237.910156 36.878906 237.761719 36.804688 237.601562 36.757812 C 237.441406 36.714844 237.28125 36.703125 237.113281 36.726562 C 236.949219 36.746094 236.796875 36.800781 236.652344 36.882812 C 236.507812 36.96875 236.386719 37.078125 236.289062 37.210938 C 236.1875 37.34375 236.121094 37.492188 236.078125 37.652344 C 236.039062 37.816406 236.035156 37.976562 236.058594 38.140625 C 236.085938 38.304688 236.144531 38.457031 236.230469 38.597656 C 236.320312 38.742188 236.433594 38.859375 236.570312 38.953125 C 261.140625 57.230469 275.441406 85.351562 275.8125 116.105469 C 275.9375 126.304688 274.503906 136.285156 271.515625 146.039062 C 269.621094 148.449219 267.738281 150.867188 265.792969 153.230469 C 263.597656 155.957031 261.265625 158.5625 258.796875 161.039062 C 258.238281 161.589844 257.667969 162.121094 257.082031 162.636719 C 256.800781 162.886719 256.515625 163.132812 256.230469 163.371094 L 255.828125 163.695312 L 255.652344 163.832031 C 255.785156 163.726562 255.617188 163.832031 255.582031 163.882812 C 254.171875 164.953125 252.65625 165.878906 251.207031 166.890625 C 249.625 167.929688 248.203125 169.15625 246.933594 170.5625 C 245.710938 171.984375 244.855469 173.597656 244.363281 175.40625 C 243.894531 177.148438 243.792969 178.914062 244.058594 180.703125 C 244.324219 182.488281 244.933594 184.148438 245.886719 185.679688 C 246.140625 186.066406 246.421875 186.433594 246.710938 186.792969 C 244.46875 189.019531 242.121094 191.128906 239.671875 193.121094 C 237.222656 195.117188 234.683594 196.984375 232.050781 198.730469 C 229.417969 200.476562 226.707031 202.089844 223.917969 203.570312 C 221.125 205.050781 218.269531 206.390625 215.347656 207.59375 C 212.429688 208.792969 209.453125 209.847656 206.429688 210.757812 C 203.40625 211.667969 200.34375 212.429688 197.246094 213.039062 C 194.144531 213.652344 191.023438 214.109375 187.882812 214.414062 C 184.738281 214.71875 181.585938 214.871094 178.425781 214.867188 L 178.257812 214.867188 C 175.136719 214.878906 172.019531 214.742188 168.910156 214.453125 C 165.800781 214.164062 162.710938 213.726562 159.644531 213.140625 C 156.578125 212.550781 153.546875 211.820312 150.550781 210.9375 C 147.550781 210.058594 144.605469 209.035156 141.707031 207.871094 C 138.808594 206.707031 135.976562 205.40625 133.203125 203.96875 C 130.429688 202.527344 127.734375 200.960938 125.113281 199.261719 C 122.492188 197.5625 119.960938 195.742188 117.515625 193.796875 C 115.070312 191.855469 112.726562 189.796875 110.480469 187.628906 C 111.21875 186.339844 111.789062 184.976562 112.183594 183.542969 C 112.582031 182.109375 112.796875 180.652344 112.828125 179.164062 C 112.859375 177.675781 112.707031 176.210938 112.367188 174.761719 C 112.03125 173.3125 111.519531 171.929688 110.835938 170.609375 C 109.46875 167.992188 107.308594 166.03125 105.277344 163.964844 C 104.765625 163.457031 104.304688 162.949219 103.855469 162.4375 L 103.546875 162.0625 L 103.515625 162.027344 C 103.46875 161.976562 103.429688 161.910156 103.386719 161.855469 C 103.191406 161.589844 103 161.316406 102.828125 161.03125 C 102.660156 160.765625 102.507812 160.492188 102.371094 160.210938 L 102.265625 159.976562 C 102.203125 159.820312 102.148438 159.660156 102.089844 159.5 C 101.996094 159.203125 101.917969 158.902344 101.863281 158.59375 C 101.863281 158.53125 101.832031 158.453125 101.828125 158.378906 L 101.828125 158.320312 C 101.828125 158.152344 101.828125 157.988281 101.796875 157.808594 C 101.796875 157.546875 101.796875 157.300781 101.832031 157.023438 C 101.832031 157.023438 101.832031 157.046875 101.832031 157.0625 C 101.847656 156.992188 101.859375 156.921875 101.867188 156.847656 C 101.867188 156.710938 101.917969 156.574219 101.953125 156.4375 C 102.011719 156.183594 102.085938 155.933594 102.171875 155.6875 C 102.21875 155.558594 102.269531 155.429688 102.316406 155.296875 L 102.390625 155.125 C 102.878906 154.09375 103.46875 153.128906 104.160156 152.226562 C 104.207031 152.164062 104.257812 152.101562 104.296875 152.042969 L 104.542969 151.730469 L 105.132812 151.007812 C 105.507812 150.546875 105.890625 150.09375 106.261719 149.628906 C 107.0625 148.679688 107.792969 147.679688 108.453125 146.628906 C 109.757812 144.46875 110.417969 141.882812 109.613281 139.417969 C 108.664062 136.523438 106.144531 134.441406 103.480469 133.148438 C 100.316406 131.6875 96.992188 130.878906 93.511719 130.714844 C 89.972656 130.496094 86.511719 130.898438 83.117188 131.917969 C 82.675781 132.050781 82.242188 132.199219 81.816406 132.351562 C 81.089844 127.589844 80.707031 122.800781 80.675781 117.988281 C 80.578125 106.535156 82.445312 95.414062 86.269531 84.621094 C 86.542969 83.878906 86.898438 83.179688 87.339844 82.523438 C 87.777344 81.867188 88.289062 81.273438 88.871094 80.738281 C 89.457031 80.203125 90.09375 79.746094 90.785156 79.367188 C 91.480469 78.984375 92.207031 78.691406 92.96875 78.488281 C 97.101562 77.332031 100.210938 77.324219 101.710938 78.488281 C 102.539062 79.113281 102.941406 80.140625 102.941406 81.617188 C 102.941406 86.449219 100.722656 91.082031 98.363281 95.992188 C 96.003906 100.898438 93.554688 106.039062 93.554688 111.429688 C 93.554688 114.359375 93.839844 117.476562 95.953125 118.351562 C 98.851562 119.554688 102.898438 116.164062 114.394531 104.667969 C 121.050781 98.015625 127.484375 96.53125 132.652344 95.316406 C 138.558594 93.941406 143.660156 92.773438 145.394531 84.5625 C 146.964844 77.121094 144.265625 69.957031 141.882812 63.636719 C 139.585938 57.53125 137.417969 51.796875 139.371094 46.847656 C 141.523438 41.394531 143.898438 39.121094 145.933594 37.609375 C 146.460938 37.230469 146.953125 36.8125 147.414062 36.355469 C 147.871094 35.894531 148.292969 35.402344 148.675781 34.878906 C 149.058594 34.355469 149.394531 33.800781 149.6875 33.222656 C 149.984375 32.644531 150.230469 32.046875 150.429688 31.429688 C 150.628906 30.8125 150.777344 30.179688 150.875 29.539062 C 150.976562 28.898438 151.023438 28.253906 151.019531 27.605469 C 151.015625 26.953125 150.960938 26.308594 150.855469 25.667969 C 150.75 25.03125 150.59375 24.402344 150.390625 23.785156 C 158.777344 21.296875 167.34375 19.960938 176.085938 19.773438 L 176.117188 19.773438 C 177.136719 19.773438 178.101562 19.742188 179.09375 19.773438 C 179.257812 19.773438 179.414062 19.742188 179.566406 19.679688 C 179.714844 19.617188 179.847656 19.527344 179.964844 19.410156 C 180.078125 19.296875 180.167969 19.164062 180.230469 19.011719 C 180.292969 18.863281 180.324219 18.703125 180.324219 18.542969 C 180.324219 18.378906 180.292969 18.222656 180.230469 18.070312 C 180.167969 17.917969 180.078125 17.785156 179.964844 17.671875 C 179.847656 17.554688 179.714844 17.464844 179.566406 17.402344 C 179.414062 17.339844 179.257812 17.308594 179.09375 17.308594 L 178.003906 17.308594 C 174.589844 17.3125 171.1875 17.488281 167.789062 17.839844 C 164.394531 18.191406 161.023438 18.714844 157.683594 19.410156 C 154.339844 20.105469 151.042969 20.96875 147.789062 22.003906 C 144.535156 23.035156 141.34375 24.234375 138.210938 25.59375 C 135.078125 26.953125 132.027344 28.472656 129.050781 30.144531 C 126.074219 31.820312 123.191406 33.640625 120.402344 35.609375 C 117.613281 37.574219 114.933594 39.683594 112.359375 41.925781 C 109.785156 44.167969 107.332031 46.535156 105 49.03125 C 104.886719 49.148438 104.800781 49.285156 104.742188 49.441406 C 104.683594 49.59375 104.65625 49.753906 104.660156 49.917969 C 104.664062 50.082031 104.699219 50.238281 104.769531 50.390625 C 104.835938 50.539062 104.929688 50.671875 105.050781 50.78125 C 105.171875 50.894531 105.308594 50.980469 105.464844 51.035156 C 105.617188 51.09375 105.777344 51.117188 105.941406 51.113281 C 106.105469 51.105469 106.261719 51.066406 106.410156 50.996094 C 106.5625 50.925781 106.691406 50.832031 106.800781 50.710938 C 112.445312 44.660156 118.753906 39.417969 125.734375 34.976562 C 132.710938 30.535156 140.136719 27.039062 148.003906 24.488281 C 148.34375 25.484375 148.515625 26.507812 148.527344 27.558594 C 148.535156 28.609375 148.378906 29.636719 148.058594 30.636719 C 147.738281 31.640625 147.269531 32.566406 146.652344 33.414062 C 146.03125 34.265625 145.296875 35 144.441406 35.613281 C 142.128906 37.328125 139.441406 39.890625 137.058594 45.921875 C 134.757812 51.753906 137.085938 57.9375 139.554688 64.480469 C 141.929688 70.777344 144.386719 77.289062 142.964844 84.027344 C 141.554688 90.679688 137.984375 91.515625 132.070312 92.886719 C 126.597656 94.164062 119.78125 95.746094 112.636719 102.898438 C 107.089844 108.4375 98.722656 116.800781 96.867188 116.046875 C 96.71875 115.988281 95.992188 115.480469 95.992188 111.402344 C 95.992188 106.570312 98.210938 101.9375 100.570312 97.027344 C 102.929688 92.121094 105.382812 86.984375 105.382812 81.589844 C 105.382812 79.320312 104.640625 77.609375 103.179688 76.503906 C 100.988281 74.839844 97.320312 74.707031 92.285156 76.117188 C 91.332031 76.378906 90.425781 76.75 89.566406 77.230469 C 88.703125 77.710938 87.910156 78.285156 87.1875 78.957031 C 86.460938 79.625 85.828125 80.371094 85.28125 81.195312 C 84.738281 82.015625 84.296875 82.890625 83.960938 83.820312 C 83.292969 85.695312 82.675781 87.59375 82.121094 89.507812 C 81.5625 91.421875 81.0625 93.355469 80.621094 95.296875 C 80.179688 97.242188 79.796875 99.199219 79.472656 101.167969 C 79.148438 103.136719 78.882812 105.113281 78.675781 107.09375 C 78.46875 109.078125 78.320312 111.066406 78.234375 113.058594 C 78.148438 115.050781 78.121094 117.046875 78.152344 119.039062 C 78.183594 121.035156 78.277344 123.027344 78.429688 125.015625 C 78.578125 127.003906 78.789062 128.984375 79.058594 130.960938 C 79.332031 132.9375 79.660156 134.902344 80.046875 136.859375 C 80.4375 138.816406 80.882812 140.757812 81.386719 142.6875 C 81.890625 144.617188 82.453125 146.53125 83.070312 148.425781 C 83.691406 150.324219 84.363281 152.199219 85.097656 154.054688 C 85.828125 155.910156 86.613281 157.742188 87.453125 159.550781 C 88.296875 161.359375 89.191406 163.140625 90.136719 164.894531 C 91.085938 166.652344 92.085938 168.375 93.136719 170.070312 C 94.1875 171.765625 95.285156 173.429688 96.4375 175.058594 C 97.589844 176.6875 98.785156 178.28125 100.03125 179.835938 C 101.277344 181.394531 102.570312 182.914062 103.90625 184.394531 C 105.242188 185.875 106.625 187.3125 108.046875 188.710938 C 109.46875 190.105469 110.933594 191.460938 112.4375 192.769531 C 113.941406 194.082031 115.484375 195.34375 117.0625 196.5625 C 118.644531 197.777344 120.257812 198.949219 121.90625 200.066406 C 123.558594 201.1875 125.238281 202.257812 126.953125 203.277344 C 128.667969 204.300781 130.410156 205.265625 132.183594 206.183594 C 133.953125 207.097656 135.753906 207.960938 137.574219 208.765625 C 139.398438 209.574219 141.246094 210.328125 143.113281 211.023438 C 144.980469 211.722656 146.871094 212.363281 148.777344 212.949219 C 150.683594 213.53125 152.605469 214.058594 154.546875 214.527344 C 156.484375 214.996094 158.433594 215.40625 160.398438 215.757812 C 162.359375 216.113281 164.332031 216.40625 166.3125 216.640625 C 168.292969 216.875 170.28125 217.046875 172.269531 217.164062 C 174.261719 217.277344 176.253906 217.335938 178.25 217.328125 L 178.425781 217.328125 C 180.074219 217.328125 181.722656 217.285156 183.367188 217.199219 C 185.015625 217.113281 186.65625 216.988281 188.296875 216.824219 C 189.9375 216.660156 191.570312 216.453125 193.199219 216.207031 C 194.832031 215.960938 196.453125 215.675781 198.066406 215.347656 C 199.683594 215.019531 201.289062 214.65625 202.886719 214.25 C 204.484375 213.84375 206.070312 213.398438 207.644531 212.914062 C 209.222656 212.429688 210.785156 211.90625 212.332031 211.34375 C 213.882812 210.785156 215.417969 210.183594 216.9375 209.546875 C 218.457031 208.910156 219.960938 208.234375 221.445312 207.523438 C 222.933594 206.8125 224.402344 206.0625 225.851562 205.28125 C 227.300781 204.496094 228.730469 203.675781 230.136719 202.820312 C 231.546875 201.96875 232.933594 201.078125 234.300781 200.15625 C 235.664062 199.230469 237.007812 198.273438 238.324219 197.285156 C 239.640625 196.296875 240.933594 195.273438 242.203125 194.21875 C 243.46875 193.167969 244.710938 192.082031 245.921875 190.96875 C 247.136719 189.851562 248.324219 188.707031 249.480469 187.535156 C 250.636719 186.363281 251.765625 185.160156 252.863281 183.929688 C 253.960938 182.703125 255.027344 181.445312 256.0625 180.164062 C 257.097656 178.882812 258.101562 177.574219 259.074219 176.246094 C 260.042969 174.914062 260.980469 173.558594 261.886719 172.179688 C 262.789062 170.800781 263.660156 169.402344 264.496094 167.980469 C 265.328125 166.5625 266.128906 165.121094 266.894531 163.660156 C 267.65625 162.199219 268.382812 160.722656 269.074219 159.226562 C 269.765625 157.730469 270.417969 156.21875 271.035156 154.6875 C 271.652344 153.160156 272.230469 151.617188 272.769531 150.058594 C 273.308594 148.503906 273.808594 146.933594 274.273438 145.351562 C 274.734375 143.769531 275.15625 142.175781 275.539062 140.574219 C 275.925781 138.972656 276.269531 137.359375 276.570312 135.738281 C 276.875 134.121094 277.140625 132.492188 277.363281 130.859375 C 277.585938 129.226562 277.769531 127.589844 277.914062 125.949219 C 278.054688 124.308594 278.15625 122.664062 278.21875 121.015625 C 278.277344 119.367188 278.300781 117.722656 278.28125 116.074219 C 277.898438 84.546875 263.234375 55.714844 238.039062 36.980469 Z M 82.234375 134.847656 C 83.539062 134.363281 84.871094 133.980469 86.234375 133.695312 C 86.636719 133.613281 87.042969 133.535156 87.453125 133.46875 L 88.09375 133.375 L 88.128906 133.375 L 88.574219 133.316406 C 89.394531 133.230469 90.21875 133.175781 91.046875 133.15625 C 91.878906 133.132812 92.773438 133.15625 93.636719 133.210938 C 94.050781 133.238281 94.457031 133.273438 94.867188 133.316406 L 95.347656 133.375 L 95.542969 133.402344 L 95.878906 133.453125 C 97.539062 133.710938 99.160156 134.117188 100.742188 134.675781 L 101.25 134.871094 L 101.5 134.972656 C 101.835938 135.109375 102.167969 135.265625 102.488281 135.429688 C 103.105469 135.738281 103.695312 136.085938 104.261719 136.476562 C 104.394531 136.574219 104.542969 136.664062 104.671875 136.773438 L 104.882812 136.945312 C 105.164062 137.179688 105.433594 137.421875 105.6875 137.683594 C 105.898438 137.886719 106.097656 138.105469 106.277344 138.339844 C 106.246094 138.296875 106.226562 138.277344 106.277344 138.382812 L 106.429688 138.597656 C 106.527344 138.738281 106.625 138.886719 106.710938 139.039062 C 106.800781 139.1875 106.882812 139.339844 106.960938 139.5 C 106.988281 139.550781 107.011719 139.601562 107.035156 139.65625 C 107.035156 139.667969 107.035156 139.683594 107.035156 139.695312 C 107.191406 140.007812 107.292969 140.332031 107.335938 140.679688 C 107.378906 140.808594 107.40625 140.941406 107.417969 141.074219 L 107.417969 141.144531 C 107.421875 141.210938 107.421875 141.277344 107.417969 141.34375 C 107.4375 141.621094 107.4375 141.898438 107.417969 142.171875 C 107.417969 142.285156 107.320312 142.757812 107.417969 142.335938 C 107.390625 142.453125 107.382812 142.570312 107.355469 142.683594 C 107.324219 142.957031 107.277344 143.226562 107.214844 143.496094 C 107.140625 143.71875 107.054688 143.933594 106.972656 144.152344 L 106.898438 144.320312 L 106.703125 144.707031 C 106.441406 145.203125 106.152344 145.683594 105.835938 146.144531 C 105.6875 146.363281 105.535156 146.578125 105.378906 146.792969 C 105.296875 146.90625 105.214844 147.015625 105.128906 147.125 C 105.078125 147.179688 105.035156 147.246094 104.984375 147.304688 C 104.269531 148.214844 103.515625 149.101562 102.789062 150.007812 C 101.332031 151.828125 99.859375 153.835938 99.445312 156.1875 C 99.1875 157.550781 99.273438 158.894531 99.707031 160.214844 C 100.207031 161.589844 100.933594 162.828125 101.886719 163.933594 C 102.78125 164.980469 103.722656 165.976562 104.714844 166.925781 C 105.222656 167.433594 105.703125 167.902344 106.175781 168.40625 C 106.394531 168.640625 106.609375 168.875 106.816406 169.113281 L 107.164062 169.523438 L 107.28125 169.667969 L 107.367188 169.773438 C 107.789062 170.339844 108.171875 170.933594 108.515625 171.554688 C 108.671875 171.839844 108.820312 172.132812 108.964844 172.429688 C 109.035156 172.585938 109.105469 172.738281 109.171875 172.898438 L 109.308594 173.25 C 109.558594 173.914062 109.765625 174.589844 109.929688 175.28125 C 110 175.605469 110.066406 175.929688 110.128906 176.253906 C 110.128906 176.414062 110.1875 176.582031 110.203125 176.761719 C 110.203125 176.890625 110.230469 177.011719 110.246094 177.140625 C 110.3125 177.828125 110.339844 178.519531 110.328125 179.210938 C 110.328125 179.554688 110.300781 179.902344 110.269531 180.226562 C 110.269531 180.414062 110.234375 180.605469 110.214844 180.792969 C 110.214844 180.792969 110.214844 180.925781 110.214844 180.960938 C 110.214844 180.996094 110.214844 181.066406 110.1875 181.117188 C 110.082031 181.804688 109.929688 182.484375 109.738281 183.152344 C 109.640625 183.484375 109.53125 183.808594 109.417969 184.132812 L 109.210938 184.644531 L 109.074219 184.953125 C 108.9375 185.242188 108.796875 185.523438 108.644531 185.800781 C 105.222656 182.34375 102.082031 178.644531 99.21875 174.710938 C 96.359375 170.777344 93.808594 166.648438 91.570312 162.332031 C 89.332031 158.011719 87.429688 153.546875 85.863281 148.941406 C 84.300781 144.335938 83.089844 139.636719 82.234375 134.847656 Z M 246.476562 177.277344 Z M 247.175781 182.847656 L 247.210938 182.933594 C 247.191406 182.902344 247.179688 182.871094 247.175781 182.835938 Z M 248.457031 185.054688 L 248.292969 184.832031 C 248.175781 184.667969 248.0625 184.5 247.957031 184.320312 C 247.738281 183.980469 247.542969 183.628906 247.367188 183.265625 L 247.230469 182.96875 C 247.148438 182.765625 247.074219 182.5625 247 182.359375 C 246.871094 181.976562 246.757812 181.585938 246.664062 181.195312 C 246.625 181.011719 246.589844 180.828125 246.554688 180.644531 C 246.554688 180.539062 246.519531 180.4375 246.503906 180.328125 C 246.488281 180.222656 246.503906 180.246094 246.503906 180.234375 C 246.457031 179.832031 246.433594 179.421875 246.421875 179.015625 C 246.410156 178.609375 246.421875 178.207031 246.460938 177.804688 C 246.460938 177.699219 246.460938 177.585938 246.496094 177.480469 L 246.496094 177.433594 C 246.558594 177.226562 246.59375 177.011719 246.605469 176.792969 C 246.6875 176.398438 246.789062 176.003906 246.90625 175.617188 C 246.960938 175.445312 247.023438 175.269531 247.089844 175.109375 C 247.152344 174.953125 247.167969 174.90625 247.203125 174.804688 C 247.242188 174.703125 247.167969 174.882812 247.167969 174.882812 C 247.1875 174.824219 247.214844 174.765625 247.246094 174.714844 C 247.410156 174.34375 247.597656 173.988281 247.804688 173.640625 C 247.90625 173.46875 248.019531 173.292969 248.128906 173.132812 L 248.304688 172.886719 L 248.425781 172.71875 C 248.96875 172.035156 249.570312 171.40625 250.226562 170.832031 C 250.558594 170.542969 250.898438 170.261719 251.242188 169.988281 L 251.316406 169.933594 L 251.601562 169.71875 L 252.140625 169.328125 C 253.59375 168.308594 255.109375 167.359375 256.550781 166.308594 C 257.777344 165.402344 258.941406 164.417969 260.042969 163.359375 C 262.46875 161 264.75 158.507812 266.886719 155.886719 C 267.632812 154.992188 268.367188 154.082031 269.097656 153.175781 C 266.738281 159.113281 263.820312 164.765625 260.347656 170.128906 C 256.875 175.488281 252.910156 180.460938 248.457031 185.042969 Z M 248.457031 185.054688 " fill-opacity="1" fill-rule="nonzero"/></g><path fill="#000000" d="M 174.761719 95.535156 C 175.113281 96.625 175.652344 97.617188 176.378906 98.507812 C 177.105469 99.398438 177.96875 100.125 178.964844 100.691406 C 180.09375 101.289062 181.289062 101.644531 182.558594 101.757812 C 183.828125 101.875 185.070312 101.738281 186.285156 101.351562 C 188.664062 100.625 190.78125 99.4375 192.640625 97.792969 C 193.058594 98.234375 193.488281 98.671875 193.9375 99.089844 C 195.820312 100.941406 198.046875 102.160156 200.625 102.738281 C 203.453125 103.296875 206.324219 103 209.171875 102.800781 C 211.75 102.582031 214.3125 102.6875 216.863281 103.121094 C 221.785156 104.0625 226.375 106.375 229.660156 110.199219 C 231.242188 112.007812 232.410156 114.050781 233.175781 116.328125 C 233.941406 118.605469 234.238281 120.941406 234.070312 123.335938 C 233.96875 124.433594 233.753906 125.507812 233.425781 126.558594 C 233.117188 127.582031 232.707031 128.5625 232.195312 129.496094 C 231.136719 131.46875 229.796875 133.222656 228.164062 134.753906 C 226.519531 136.34375 224.703125 137.699219 222.707031 138.820312 C 220.582031 140.03125 218.351562 140.988281 216.007812 141.691406 C 210.484375 143.40625 204.710938 144.035156 198.984375 144.707031 C 193.621094 145.332031 188.238281 146.015625 183.0625 147.601562 C 178.121094 149.128906 173.371094 151.457031 169.621094 155.070312 C 165.710938 158.832031 163.167969 163.777344 159.164062 167.453125 C 157.414062 169.148438 155.378906 170.359375 153.058594 171.089844 C 151.929688 171.433594 150.777344 171.546875 149.601562 171.433594 C 149.5 171.429688 149.398438 171.417969 149.296875 171.402344 L 148.878906 171.320312 C 148.578125 171.253906 148.285156 171.167969 148 171.0625 C 147.546875 170.871094 147.144531 170.613281 146.78125 170.28125 C 146.605469 170.121094 146.453125 169.9375 146.332031 169.726562 C 146.207031 169.527344 146.097656 169.320312 146 169.101562 C 145.890625 168.824219 145.808594 168.535156 145.746094 168.242188 C 145.6875 168.007812 145.652344 167.773438 145.632812 167.53125 C 145.578125 166.9375 145.578125 166.339844 145.632812 165.746094 C 145.632812 165.617188 145.660156 165.492188 145.675781 165.363281 C 145.675781 165.328125 145.675781 165.191406 145.710938 165.152344 C 145.75 164.890625 145.800781 164.640625 145.863281 164.378906 C 145.976562 163.859375 146.117188 163.351562 146.289062 162.851562 C 146.375 162.605469 146.46875 162.34375 146.5625 162.125 C 146.566406 162.097656 146.566406 162.074219 146.5625 162.046875 L 146.601562 161.976562 C 146.65625 161.847656 146.710938 161.71875 146.773438 161.589844 C 147.222656 160.636719 147.738281 159.726562 148.328125 158.851562 C 148.625 158.40625 148.933594 157.96875 149.261719 157.539062 C 149.53125 157.175781 149.769531 156.855469 150.152344 156.402344 C 150.847656 155.542969 151.574219 154.707031 152.3125 153.859375 C 153.792969 152.179688 155.308594 150.527344 156.691406 148.769531 C 158.226562 146.941406 159.476562 144.933594 160.445312 142.753906 C 161.414062 140.570312 162.0625 138.296875 162.394531 135.933594 C 163.164062 131.011719 162.933594 126.027344 162.738281 121.074219 C 162.644531 118.601562 162.558594 116.128906 162.609375 113.65625 C 162.636719 112.441406 162.695312 111.230469 162.8125 110.019531 C 162.914062 108.890625 163.085938 107.773438 163.320312 106.664062 C 163.746094 104.4375 164.476562 102.316406 165.511719 100.300781 C 165.589844 100.15625 165.640625 100.003906 165.660156 99.84375 C 165.679688 99.683594 165.667969 99.523438 165.625 99.367188 C 165.585938 99.210938 165.515625 99.066406 165.421875 98.9375 C 165.324219 98.804688 165.207031 98.695312 165.070312 98.609375 C 164.929688 98.53125 164.777344 98.480469 164.617188 98.460938 C 164.453125 98.4375 164.296875 98.449219 164.136719 98.488281 C 163.980469 98.53125 163.835938 98.601562 163.707031 98.699219 C 163.578125 98.796875 163.46875 98.914062 163.386719 99.054688 C 161 103.601562 160.261719 108.71875 160.160156 113.804688 C 160.058594 118.890625 160.546875 123.980469 160.488281 129.066406 C 160.5 131.519531 160.296875 133.957031 159.882812 136.375 C 159.453125 138.742188 158.683594 140.988281 157.570312 143.121094 C 155.425781 147.136719 152.195312 150.214844 149.210938 153.730469 C 146.222656 157.246094 143.566406 161.132812 143.160156 165.84375 C 142.933594 168.542969 143.730469 171.472656 146.214844 172.902344 C 148.574219 174.261719 151.65625 174.125 154.175781 173.300781 C 159.574219 171.535156 163.15625 166.992188 166.441406 162.617188 C 168.054688 160.328125 169.871094 158.210938 171.890625 156.269531 C 173.796875 154.574219 175.898438 153.179688 178.199219 152.082031 C 182.777344 149.828125 188.046875 148.648438 193.167969 147.882812 C 199.089844 146.996094 205.082031 146.605469 210.972656 145.449219 C 216.296875 144.402344 221.546875 142.683594 226.054688 139.589844 C 230.125 136.816406 233.523438 133.097656 235.335938 128.492188 C 237.261719 123.613281 236.828125 118.195312 234.660156 113.480469 C 233.519531 111.074219 231.992188 108.941406 230.085938 107.082031 C 228.175781 105.226562 226.007812 103.753906 223.570312 102.675781 C 221.015625 101.527344 218.351562 100.78125 215.570312 100.4375 C 212.796875 100.082031 210.058594 100.269531 207.28125 100.46875 C 205.824219 100.59375 204.367188 100.621094 202.910156 100.554688 C 202.253906 100.519531 201.601562 100.429688 200.960938 100.285156 C 200.652344 100.21875 200.347656 100.136719 200.039062 100.039062 L 199.53125 99.863281 L 199.191406 99.726562 C 197.367188 98.851562 195.792969 97.648438 194.464844 96.117188 C 196.023438 94.59375 197.480469 92.964844 198.972656 91.433594 C 200.675781 89.566406 202.640625 88.039062 204.875 86.855469 C 205.011719 86.773438 205.132812 86.664062 205.230469 86.535156 C 205.328125 86.40625 205.394531 86.261719 205.4375 86.105469 C 205.480469 85.945312 205.488281 85.789062 205.46875 85.625 C 205.445312 85.464844 205.394531 85.3125 205.316406 85.171875 C 205.230469 85.035156 205.121094 84.914062 204.992188 84.820312 C 204.863281 84.722656 204.71875 84.652344 204.558594 84.613281 C 204.402344 84.570312 204.242188 84.558594 204.082031 84.582031 C 203.921875 84.601562 203.769531 84.648438 203.628906 84.730469 C 199.203125 86.925781 196.296875 90.976562 192.832031 94.34375 C 191.535156 92.761719 190.085938 91.332031 188.492188 90.050781 C 186.640625 88.679688 184.570312 87.859375 182.285156 87.589844 C 181.207031 87.425781 180.144531 87.5 179.101562 87.8125 C 178.054688 88.121094 177.128906 88.640625 176.316406 89.367188 C 175.917969 89.761719 175.578125 90.199219 175.296875 90.6875 C 175.019531 91.171875 174.808594 91.6875 174.671875 92.230469 C 174.535156 92.777344 174.472656 93.328125 174.488281 93.890625 C 174.503906 94.449219 174.59375 94.996094 174.761719 95.535156 Z M 178.117188 96.746094 C 178.015625 96.621094 178.097656 96.722656 178.117188 96.746094 Z M 177.179688 92.335938 Z M 176.960938 93.15625 C 176.960938 93.230469 176.960938 93.234375 176.960938 93.15625 Z M 176.960938 93.285156 C 176.964844 93.238281 176.964844 93.195312 176.960938 93.148438 C 177.007812 92.933594 177.054688 92.726562 177.121094 92.515625 C 177.121094 92.457031 177.164062 92.394531 177.1875 92.328125 C 177.207031 92.261719 177.292969 92.109375 177.355469 92 L 177.53125 91.703125 L 177.648438 91.539062 C 177.792969 91.359375 177.953125 91.1875 178.121094 91.03125 C 178.179688 90.980469 178.238281 90.925781 178.304688 90.875 L 178.449219 90.765625 C 178.648438 90.632812 178.859375 90.511719 179.078125 90.40625 C 179.125 90.40625 179.214844 90.34375 179.242188 90.335938 L 179.460938 90.257812 C 179.695312 90.183594 179.933594 90.121094 180.175781 90.070312 L 180.410156 90.03125 L 180.59375 90.03125 C 180.851562 90.007812 181.109375 89.996094 181.367188 90.003906 C 181.589844 90.003906 181.816406 90.003906 182.039062 90.039062 L 182.242188 90.039062 L 182.625 90.105469 C 183.125 90.203125 183.621094 90.332031 184.105469 90.496094 C 184.316406 90.570312 184.519531 90.644531 184.730469 90.730469 L 184.980469 90.839844 L 185.359375 91.015625 C 185.824219 91.25 186.269531 91.511719 186.703125 91.792969 C 186.886719 91.917969 187.066406 92.042969 187.242188 92.175781 L 187.441406 92.335938 L 187.746094 92.597656 C 188.1875 92.996094 188.617188 93.414062 189.027344 93.84375 C 189.699219 94.535156 190.34375 95.257812 190.988281 95.980469 C 189.460938 97.300781 187.746094 98.285156 185.832031 98.925781 C 184.699219 99.285156 183.535156 99.410156 182.347656 99.308594 L 182.210938 99.308594 L 181.871094 99.242188 C 181.601562 99.179688 181.339844 99.105469 181.082031 99.007812 L 180.890625 98.9375 L 180.625 98.816406 C 180.375 98.691406 180.136719 98.554688 179.902344 98.40625 C 179.714844 98.289062 179.53125 98.164062 179.351562 98.03125 C 179.316406 97.996094 179.179688 97.882812 179.15625 97.863281 C 179.046875 97.773438 178.945312 97.679688 178.851562 97.582031 C 178.671875 97.421875 178.5 97.253906 178.339844 97.074219 C 178.253906 96.976562 178.171875 96.875 178.089844 96.773438 L 177.953125 96.589844 C 177.828125 96.398438 177.699219 96.203125 177.589844 96.007812 C 177.523438 95.890625 177.460938 95.773438 177.398438 95.65625 C 177.398438 95.613281 177.324219 95.484375 177.296875 95.4375 C 177.132812 95.027344 177.015625 94.601562 176.941406 94.164062 C 176.941406 94.125 176.941406 94.054688 176.941406 94.007812 C 176.941406 93.960938 176.941406 93.792969 176.941406 93.6875 C 176.941406 93.582031 176.945312 93.40625 176.953125 93.285156 Z M 176.960938 93.285156 " fill-opacity="1" fill-rule="nonzero"/><path fill="#000000" d="M 221.101562 194.632812 C 221.421875 194.632812 221.742188 194.632812 222.054688 194.632812 C 222.320312 194.625 222.582031 194.640625 222.839844 194.683594 L 222.914062 194.683594 L 223.082031 194.714844 C 223.25 194.75 223.414062 194.789062 223.59375 194.835938 C 223.726562 194.871094 223.855469 194.914062 223.984375 194.964844 L 224.035156 194.964844 L 224.136719 195.007812 C 224.253906 195.066406 224.371094 195.128906 224.484375 195.199219 L 224.644531 195.304688 C 224.742188 195.386719 224.835938 195.476562 224.925781 195.570312 L 225.027344 195.679688 C 225.09375 195.78125 225.160156 195.878906 225.214844 195.984375 C 225.269531 196.09375 225.277344 196.097656 225.300781 196.152344 C 225.304688 196.164062 225.304688 196.175781 225.300781 196.191406 C 225.347656 196.34375 225.421875 196.488281 225.527344 196.613281 C 225.628906 196.742188 225.75 196.84375 225.890625 196.925781 C 226.035156 197.003906 226.1875 197.054688 226.347656 197.078125 C 226.507812 197.097656 226.667969 197.089844 226.828125 197.050781 C 226.984375 197.003906 227.128906 196.929688 227.257812 196.828125 C 227.386719 196.726562 227.492188 196.605469 227.570312 196.460938 C 227.652344 196.320312 227.703125 196.167969 227.722656 196.003906 C 227.742188 195.839844 227.730469 195.679688 227.6875 195.523438 C 227.4375 194.835938 227.054688 194.234375 226.539062 193.714844 C 226.019531 193.199219 225.414062 192.820312 224.726562 192.574219 C 223.457031 192.132812 222.152344 191.984375 220.816406 192.128906 C 219.457031 192.296875 218.117188 192.5625 216.796875 192.925781 C 216.476562 192.996094 216.15625 193.066406 215.832031 193.121094 C 215.671875 193.152344 215.507812 193.183594 215.347656 193.203125 L 215.152344 193.234375 L 214.992188 193.234375 C 214.335938 193.335938 213.679688 193.375 213.015625 193.347656 L 212.808594 193.347656 C 212.660156 193.320312 212.519531 193.285156 212.375 193.25 C 212.234375 193.214844 212.097656 193.167969 211.960938 193.117188 L 211.882812 193.085938 L 211.820312 193.085938 L 211.710938 193.019531 C 211.582031 192.953125 211.464844 192.871094 211.34375 192.800781 L 211.210938 192.691406 C 211.105469 192.589844 211.007812 192.476562 210.90625 192.375 L 210.734375 192.105469 C 210.675781 192.007812 210.625 191.90625 210.574219 191.804688 L 210.574219 191.773438 C 210.5 191.589844 210.4375 191.398438 210.386719 191.203125 C 210.28125 190.824219 210.203125 190.425781 210.132812 190.035156 C 210.027344 189.265625 209.859375 188.515625 209.625 187.777344 C 209.132812 186.472656 208.398438 185.324219 207.425781 184.328125 C 206.453125 183.328125 205.320312 182.570312 204.027344 182.046875 C 202.710938 181.476562 201.332031 181.128906 199.902344 181.007812 C 198.46875 180.882812 197.054688 180.988281 195.65625 181.324219 C 192.394531 182.125 189.523438 183.996094 187.007812 186.199219 C 184.597656 188.324219 182.59375 190.816406 180.46875 193.214844 C 179.421875 194.410156 178.304688 195.53125 177.109375 196.582031 L 176.683594 196.9375 L 176.453125 197.121094 L 176.402344 197.15625 C 176.078125 197.398438 175.742188 197.664062 175.386719 197.863281 C 174.714844 198.300781 174.011719 198.683594 173.273438 199.003906 L 173.238281 199.003906 L 173.167969 199.027344 L 172.871094 199.140625 L 172.214844 199.367188 C 171.792969 199.507812 171.367188 199.625 170.941406 199.730469 C 170.054688 199.949219 169.160156 200.113281 168.265625 200.238281 C 166.523438 200.476562 164.796875 200.804688 163.085938 201.214844 C 160.222656 201.992188 157.292969 203.570312 155.746094 206.199219 C 155.359375 206.859375 155.078125 207.558594 154.90625 208.300781 C 154.863281 208.457031 154.851562 208.617188 154.871094 208.78125 C 154.890625 208.941406 154.941406 209.09375 155.023438 209.234375 C 155.105469 209.378906 155.210938 209.5 155.335938 209.597656 C 155.464844 209.699219 155.609375 209.769531 155.765625 209.816406 C 155.925781 209.859375 156.082031 209.871094 156.246094 209.851562 C 156.40625 209.828125 156.558594 209.78125 156.703125 209.699219 C 156.84375 209.617188 156.964844 209.515625 157.066406 209.386719 C 157.167969 209.257812 157.238281 209.113281 157.28125 208.957031 C 157.351562 208.667969 157.4375 208.382812 157.542969 208.101562 C 157.542969 208.132812 157.652344 207.84375 157.683594 207.78125 C 157.777344 207.609375 157.871094 207.441406 157.972656 207.273438 C 158.058594 207.136719 158.152344 207.003906 158.242188 206.871094 L 158.40625 206.671875 C 158.628906 206.414062 158.867188 206.167969 159.125 205.941406 C 159.246094 205.828125 159.371094 205.722656 159.5 205.613281 L 159.601562 205.539062 L 159.730469 205.441406 C 160.019531 205.238281 160.320312 205.046875 160.625 204.867188 C 160.929688 204.6875 161.222656 204.535156 161.53125 204.390625 L 161.953125 204.199219 L 162.039062 204.160156 L 162.375 204.035156 C 165.507812 202.859375 168.925781 202.832031 172.136719 201.949219 C 173.789062 201.5 175.328125 200.804688 176.757812 199.863281 C 178.101562 198.949219 179.339844 197.914062 180.472656 196.75 C 182.667969 194.535156 184.542969 192.042969 186.734375 189.8125 C 187.292969 189.230469 187.867188 188.671875 188.46875 188.132812 C 188.738281 187.886719 189.011719 187.652344 189.289062 187.421875 L 189.730469 187.054688 L 189.953125 186.875 L 190.011719 186.828125 L 190.066406 186.792969 C 191.308594 185.839844 192.640625 185.039062 194.0625 184.394531 L 194.203125 184.335938 L 194.390625 184.261719 L 194.898438 184.066406 C 195.269531 183.9375 195.644531 183.824219 196.027344 183.722656 C 196.410156 183.621094 196.6875 183.558594 197.042969 183.5 C 197.117188 183.5 197.605469 183.375 197.261719 183.460938 C 197.445312 183.425781 197.628906 183.40625 197.8125 183.40625 C 198.433594 183.359375 199.054688 183.359375 199.675781 183.40625 L 200.136719 183.453125 L 200.179688 183.453125 L 200.363281 183.476562 C 200.703125 183.539062 201.03125 183.605469 201.378906 183.691406 C 201.726562 183.777344 201.972656 183.855469 202.265625 183.957031 L 202.703125 184.113281 L 202.871094 184.179688 L 202.898438 184.179688 L 202.957031 184.207031 C 203.523438 184.460938 204.066406 184.761719 204.582031 185.105469 L 204.867188 185.3125 L 205.117188 185.507812 C 205.363281 185.722656 205.601562 185.945312 205.824219 186.179688 C 205.925781 186.285156 206.023438 186.398438 206.121094 186.507812 L 206.230469 186.640625 C 206.398438 186.878906 206.566406 187.121094 206.714844 187.375 C 206.84375 187.605469 206.964844 187.847656 207.070312 188.089844 C 207.070312 188.164062 207.164062 188.324219 207.183594 188.375 C 207.238281 188.550781 207.292969 188.722656 207.339844 188.886719 C 207.550781 189.664062 207.628906 190.46875 207.804688 191.25 C 207.933594 192.035156 208.21875 192.761719 208.664062 193.421875 C 209.105469 194.085938 209.667969 194.625 210.347656 195.046875 C 212.820312 196.433594 215.941406 195.765625 218.542969 195.074219 C 219.144531 194.886719 219.757812 194.757812 220.386719 194.6875 C 220.035156 194.714844 220.523438 194.6875 220.605469 194.6875 Z M 176.453125 196.976562 Z M 210.472656 191.617188 C 210.449219 191.570312 210.472656 191.585938 210.472656 191.617188 Z M 211.816406 193.027344 L 211.929688 193.070312 C 211.929688 193.070312 211.863281 193.050781 211.816406 193.027344 Z M 212.871094 193.320312 L 212.972656 193.320312 C 212.9375 193.335938 212.90625 193.34375 212.871094 193.347656 Z M 212.871094 193.320312 " fill-opacity="1" fill-rule="nonzero"/><path fill="#000000" d="M 104.308594 152.058594 L 104.269531 152.109375 C 104.222656 152.144531 104.160156 152.285156 104.308594 152.058594 Z M 104.308594 152.058594 " fill-opacity="1" fill-rule="nonzero"/><path fill="#000000" d="M 105.144531 147.128906 C 104.933594 147.363281 105.09375 147.195312 105.144531 147.128906 Z M 105.144531 147.128906 " fill-opacity="1" fill-rule="nonzero"/><path fill="#000000" d="M 101.820312 157 C 101.894531 156.722656 101.832031 156.90625 101.820312 157 Z M 101.820312 157 " fill-opacity="1" fill-rule="nonzero"/><path fill="#000000" d="M 189.273438 17.476562 L 189.308594 17.398438 Z M 189.273438 17.476562 " fill-opacity="1" fill-rule="nonzero"/><path fill="#000000" d="M 195.753906 58.546875 C 199.441406 64.550781 203.351562 70.410156 207.023438 76.421875 C 207.546875 77.28125 208.070312 78.144531 208.589844 79.011719 C 208.648438 79.101562 208.714844 79.183594 208.789062 79.257812 C 208.867188 79.332031 208.953125 79.398438 209.046875 79.449219 C 209.136719 79.5 209.238281 79.539062 209.339844 79.566406 C 209.441406 79.59375 209.546875 79.609375 209.65625 79.609375 C 209.761719 79.609375 209.867188 79.59375 209.96875 79.566406 C 210.074219 79.539062 210.171875 79.5 210.265625 79.449219 C 210.355469 79.398438 210.441406 79.332031 210.519531 79.257812 C 210.597656 79.183594 210.664062 79.101562 210.71875 79.011719 C 214.351562 73.695312 217.648438 68.171875 220.605469 62.449219 C 222.027344 59.789062 223.410156 57.109375 224.824219 54.449219 C 226.289062 51.691406 227.722656 48.949219 228.894531 46.058594 C 231.292969 40.242188 232.757812 34.199219 233.289062 27.929688 C 233.5625 24.949219 233.5625 21.964844 233.289062 18.984375 C 233.074219 16.457031 232.433594 14.046875 231.363281 11.75 C 230.273438 9.535156 228.714844 7.730469 226.679688 6.332031 C 224.289062 4.742188 221.660156 3.808594 218.800781 3.535156 C 215.878906 3.210938 213.121094 3.730469 210.519531 5.097656 C 209.257812 5.808594 208.09375 6.65625 207.03125 7.640625 C 206.035156 8.527344 205.125 9.492188 204.296875 10.539062 C 200.84375 14.914062 198.882812 20.457031 199.5625 26.058594 C 200.222656 31.421875 203.066406 37.011719 208.0625 39.523438 C 210.40625 40.703125 213.300781 41.304688 215.820312 40.296875 C 218.710938 39.140625 220.242188 36.441406 221.101562 33.585938 C 221.960938 30.734375 222.269531 27.371094 221.246094 24.429688 C 220.785156 23.050781 220.046875 21.839844 219.03125 20.796875 C 218.019531 19.753906 216.828125 18.980469 215.464844 18.476562 C 214.160156 18.019531 212.832031 17.929688 211.480469 18.210938 C 211.324219 18.253906 211.179688 18.328125 211.050781 18.429688 C 210.921875 18.53125 210.816406 18.652344 210.734375 18.792969 C 210.652344 18.9375 210.601562 19.089844 210.582031 19.253906 C 210.5625 19.417969 210.578125 19.578125 210.621094 19.738281 C 210.667969 19.894531 210.742188 20.035156 210.84375 20.164062 C 210.945312 20.289062 211.066406 20.394531 211.210938 20.476562 C 211.351562 20.554688 211.503906 20.609375 211.667969 20.628906 C 211.828125 20.652344 211.988281 20.640625 212.148438 20.601562 C 212.199219 20.601562 212.46875 20.554688 212.453125 20.550781 L 212.8125 20.550781 C 213.082031 20.546875 213.347656 20.558594 213.613281 20.585938 L 213.914062 20.636719 C 214.058594 20.667969 214.203125 20.699219 214.34375 20.738281 L 214.710938 20.855469 L 215.035156 20.976562 C 215.554688 21.207031 216.042969 21.492188 216.496094 21.832031 L 216.734375 22.027344 L 217.03125 22.289062 C 217.265625 22.511719 217.488281 22.75 217.695312 22.996094 L 217.824219 23.160156 L 217.855469 23.195312 C 217.929688 23.308594 218.007812 23.414062 218.078125 23.527344 C 218.257812 23.792969 218.417969 24.070312 218.5625 24.359375 C 218.683594 24.585938 218.78125 24.820312 218.863281 25.0625 C 218.984375 25.414062 219.089844 25.769531 219.175781 26.128906 C 219.335938 26.75 219.417969 27.378906 219.429688 28.019531 C 219.457031 28.730469 219.425781 29.4375 219.34375 30.144531 C 219.34375 30.210938 219.34375 30.277344 219.34375 30.34375 C 219.34375 30.359375 219.34375 30.378906 219.34375 30.398438 C 219.316406 30.578125 219.289062 30.75 219.253906 30.90625 C 219.191406 31.257812 219.117188 31.605469 219.03125 31.953125 C 218.867188 32.625 218.664062 33.285156 218.425781 33.933594 C 218.367188 34.089844 218.308594 34.25 218.246094 34.402344 L 218.246094 34.433594 L 218.105469 34.640625 C 217.949219 34.960938 217.78125 35.273438 217.59375 35.578125 C 217.316406 36.105469 216.960938 36.574219 216.523438 36.980469 C 216.40625 37.09375 216.289062 37.199219 216.160156 37.304688 L 216.128906 37.304688 L 215.988281 37.40625 C 215.734375 37.585938 215.46875 37.738281 215.1875 37.871094 L 215.078125 37.925781 L 215.042969 37.925781 L 214.640625 38.0625 C 214.355469 38.144531 214.066406 38.210938 213.773438 38.257812 L 213.605469 38.257812 C 213.464844 38.257812 213.324219 38.257812 213.175781 38.257812 C 212.867188 38.265625 212.558594 38.253906 212.253906 38.226562 L 212.003906 38.195312 L 211.652344 38.128906 C 211.359375 38.074219 211.070312 37.996094 210.785156 37.917969 C 210.5 37.835938 210.210938 37.722656 209.925781 37.617188 L 209.863281 37.691406 L 209.722656 37.625 C 209.578125 37.566406 209.441406 37.5 209.304688 37.429688 C 208.753906 37.152344 208.230469 36.835938 207.730469 36.480469 L 207.476562 36.289062 L 207.175781 36.042969 C 206.945312 35.847656 206.71875 35.636719 206.507812 35.425781 C 206.0625 34.980469 205.644531 34.511719 205.253906 34.019531 L 205.222656 33.980469 L 205.082031 33.785156 L 204.808594 33.40625 C 204.628906 33.144531 204.460938 32.894531 204.296875 32.605469 C 203.96875 32.066406 203.671875 31.511719 203.410156 30.9375 L 203.242188 30.5625 L 203.132812 30.308594 C 203.011719 29.996094 202.898438 29.679688 202.792969 29.359375 C 202.589844 28.757812 202.421875 28.148438 202.285156 27.53125 C 202.222656 27.238281 202.167969 26.945312 202.117188 26.65625 C 202.085938 26.496094 202.066406 26.339844 202.039062 26.179688 C 202.039062 26.078125 202.039062 25.972656 202 25.871094 C 201.933594 25.242188 201.898438 24.605469 201.890625 23.96875 C 201.886719 23.332031 201.917969 22.699219 201.980469 22.066406 L 202.023438 21.652344 L 202.023438 21.617188 L 202.054688 21.394531 C 202.105469 21.074219 202.160156 20.757812 202.226562 20.449219 C 202.359375 19.816406 202.523438 19.195312 202.710938 18.585938 C 202.804688 18.300781 202.898438 18.015625 203 17.738281 C 203.058594 17.585938 203.113281 17.4375 203.175781 17.285156 C 203.199219 17.214844 203.230469 17.136719 203.261719 17.066406 L 203.261719 16.96875 C 203.765625 15.785156 204.378906 14.660156 205.09375 13.589844 C 205.253906 13.34375 205.429688 13.082031 205.601562 12.847656 C 205.691406 12.714844 205.789062 12.589844 205.886719 12.460938 L 205.941406 12.386719 L 206.105469 12.1875 C 206.507812 11.679688 206.929688 11.199219 207.375 10.734375 C 207.824219 10.265625 208.257812 9.847656 208.71875 9.429688 C 208.957031 9.21875 209.226562 9.007812 209.453125 8.800781 L 209.828125 8.5 L 209.894531 8.449219 L 210.058594 8.328125 C 210.582031 7.929688 211.136719 7.574219 211.714844 7.257812 C 211.988281 7.109375 212.269531 6.972656 212.554688 6.847656 C 212.605469 6.847656 212.773438 6.761719 212.804688 6.746094 L 213.3125 6.5625 C 213.925781 6.359375 214.550781 6.203125 215.1875 6.09375 L 215.515625 6.046875 C 215.65625 6.027344 215.800781 6.011719 215.941406 6.003906 C 216.261719 5.972656 216.589844 5.957031 216.914062 5.953125 C 219.472656 5.902344 221.878906 6.480469 224.136719 7.679688 C 224.648438 7.957031 225.140625 8.261719 225.613281 8.597656 L 225.898438 8.808594 L 226.054688 8.941406 C 226.285156 9.132812 226.503906 9.324219 226.710938 9.523438 C 227.089844 9.882812 227.441406 10.265625 227.769531 10.671875 C 227.808594 10.722656 227.851562 10.769531 227.886719 10.820312 C 227.953125 10.917969 228.027344 11.007812 228.09375 11.097656 C 228.257812 11.332031 228.414062 11.574219 228.5625 11.8125 C 228.847656 12.269531 229.101562 12.742188 229.332031 13.230469 C 229.386719 13.351562 229.4375 13.480469 229.5 13.601562 C 229.515625 13.640625 229.535156 13.683594 229.550781 13.722656 C 229.660156 13.992188 229.761719 14.269531 229.855469 14.542969 C 230.21875 15.621094 230.488281 16.722656 230.667969 17.84375 C 230.667969 17.972656 230.703125 18.097656 230.722656 18.226562 C 230.722656 18.269531 230.722656 18.316406 230.722656 18.363281 C 230.726562 18.390625 230.726562 18.417969 230.722656 18.445312 C 230.757812 18.738281 230.796875 19.035156 230.820312 19.335938 C 230.882812 19.992188 230.917969 20.65625 230.941406 21.320312 C 231 22.792969 231 24.269531 230.941406 25.738281 C 230.828125 28.625 230.476562 31.484375 229.894531 34.316406 C 229.300781 37.214844 228.503906 40.054688 227.5 42.835938 C 226.523438 45.542969 225.359375 48.167969 224.003906 50.710938 C 222.6875 53.203125 221.355469 55.695312 220.042969 58.191406 C 217.238281 63.542969 214.378906 68.875 211.121094 73.960938 C 210.652344 74.691406 210.167969 75.425781 209.679688 76.148438 C 206.277344 70.554688 202.703125 65.074219 199.21875 59.535156 C 197.640625 57.023438 196.09375 54.488281 194.640625 51.90625 C 193.960938 50.683594 193.304688 49.441406 192.6875 48.1875 C 192.386719 47.582031 192.097656 46.972656 191.816406 46.355469 L 191.449219 45.53125 L 191.25 45.074219 L 191.210938 44.980469 C 191.210938 44.953125 191.113281 44.746094 191.105469 44.722656 C 190.09375 42.273438 189.285156 39.761719 188.675781 37.183594 C 188.363281 35.863281 188.101562 34.519531 187.902344 33.171875 L 187.84375 32.742188 C 187.84375 32.742188 187.808594 32.46875 187.796875 32.40625 C 187.75 32.035156 187.710938 31.664062 187.671875 31.292969 C 187.597656 30.578125 187.539062 29.855469 187.496094 29.125 C 187.394531 27.648438 187.394531 26.171875 187.496094 24.695312 C 187.496094 24.351562 187.558594 24.007812 187.597656 23.679688 C 187.597656 23.613281 187.644531 23.367188 187.597656 23.628906 L 187.628906 23.410156 C 187.660156 23.195312 187.695312 22.980469 187.734375 22.761719 C 187.863281 22.046875 188.019531 21.339844 188.214844 20.636719 C 188.40625 19.933594 188.625 19.238281 188.875 18.554688 C 188.996094 18.210938 189.136719 17.875 189.273438 17.539062 C 189.285156 17.511719 189.296875 17.484375 189.308594 17.457031 C 189.332031 17.40625 189.355469 17.351562 189.378906 17.300781 C 189.460938 17.113281 189.542969 16.933594 189.628906 16.75 C 190.25 15.425781 190.972656 14.15625 191.800781 12.945312 C 192.007812 12.644531 192.21875 12.34375 192.4375 12.050781 L 192.570312 11.878906 L 192.679688 11.730469 C 192.722656 11.679688 192.78125 11.597656 192.78125 11.601562 L 192.984375 11.347656 C 193.449219 10.777344 193.933594 10.230469 194.433594 9.699219 C 194.945312 9.191406 195.453125 8.683594 196.011719 8.175781 C 196.28125 7.929688 196.5625 7.695312 196.839844 7.460938 L 197.226562 7.152344 L 197.375 7.035156 L 197.539062 6.90625 C 198.707031 6.03125 199.941406 5.257812 201.242188 4.589844 C 201.5625 4.425781 201.890625 4.261719 202.222656 4.109375 L 202.730469 3.890625 L 202.792969 3.890625 L 203.042969 3.789062 C 203.71875 3.515625 204.410156 3.28125 205.105469 3.066406 C 205.804688 2.855469 206.519531 2.6875 207.238281 2.558594 C 207.398438 2.515625 207.539062 2.441406 207.667969 2.339844 C 207.796875 2.238281 207.902344 2.117188 207.984375 1.972656 C 208.0625 1.832031 208.113281 1.675781 208.132812 1.515625 C 208.152344 1.351562 208.140625 1.191406 208.097656 1.03125 C 208.050781 0.875 207.976562 0.734375 207.875 0.605469 C 207.773438 0.480469 207.652344 0.375 207.507812 0.292969 C 207.367188 0.214844 207.214844 0.164062 207.050781 0.144531 C 206.890625 0.121094 206.730469 0.132812 206.574219 0.171875 C 203.566406 0.816406 200.753906 1.941406 198.136719 3.550781 C 195.515625 5.160156 193.242188 7.160156 191.3125 9.554688 C 187.40625 14.320312 184.96875 20.304688 184.945312 26.511719 C 184.945312 32.296875 185.945312 37.90625 187.945312 43.332031 C 189.929688 48.644531 192.75 53.679688 195.753906 58.546875 Z M 217.792969 23.113281 Z M 217.792969 23.113281 " fill-opacity="1" fill-rule="nonzero"/><g fill="#000000" fill-opacity="1"><g transform="translate(3.214949, 274.828463)"><g><path d="M 17.890625 0 L 17.890625 -30.011719 L 27.230469 -30.011719 L 27.230469 -37.460938 L 1.050781 -37.460938 L 1.050781 -30.011719 L 10.386719 -30.011719 L 10.386719 0 Z M 17.890625 0 "/></g></g></g><g fill="#000000" fill-opacity="1"><g transform="translate(31.908773, 274.828463)"><g><path d="M 22.875 0 L 31.375 0 L 22.664062 -15.476562 C 33.683594 -18.675781 32.371094 -37.511719 18.992188 -37.511719 L 4.195312 -37.511719 L 4.195312 0 L 11.699219 0 L 11.699219 -14.324219 L 15.320312 -14.324219 Z M 11.699219 -21.617188 L 11.699219 -30.011719 L 18.308594 -30.011719 C 23.398438 -30.011719 23.398438 -21.617188 18.308594 -21.617188 Z M 11.699219 -21.617188 "/></g></g></g><g fill="#000000" fill-opacity="1"><g transform="translate(64.064742, 274.828463)"><g><path d="M 0.839844 0 L 9.339844 0 L 10.808594 -4.039062 L 23.242188 -4.039062 L 24.761719 0 L 33.210938 0 L 17.417969 -38.875 L 16.632812 -38.875 Z M 13.535156 -11.070312 L 17.050781 -20.828125 L 20.460938 -11.070312 Z M 13.535156 -11.070312 "/></g></g></g><g fill="#000000" fill-opacity="1"><g transform="translate(98.318989, 274.828463)"><g><path d="M 15.84375 0.785156 L 17.523438 0.785156 L 33.054688 -37.511719 L 24.394531 -37.511719 L 19.359375 -24.761719 L 16.683594 -17.261719 L 13.957031 -25.027344 L 8.972656 -37.511719 L 0.316406 -37.511719 Z M 15.84375 0.785156 "/></g></g></g><g fill="#000000" fill-opacity="1"><g transform="translate(131.733925, 274.828463)"><g><path d="M 23.609375 0 L 23.609375 -7.503906 L 11.699219 -7.503906 L 11.699219 -15.003906 L 21.5625 -15.003906 L 21.5625 -22.507812 L 11.699219 -22.507812 L 11.699219 -30.011719 L 22.980469 -30.011719 L 22.980469 -37.511719 L 4.195312 -37.511719 L 4.195312 0 Z M 23.609375 0 "/></g></g></g><g fill="#000000" fill-opacity="1"><g transform="translate(158.172115, 274.828463)"><g><path d="M 4.195312 -37.511719 L 4.195312 0 L 23.609375 0 L 23.609375 -7.503906 L 11.699219 -7.503906 L 11.699219 -37.511719 Z M 4.195312 -37.511719 "/></g></g></g><g fill="#000000" fill-opacity="1"><g transform="translate(184.033279, 274.828463)"><g/></g></g><g fill="#000000" fill-opacity="1"><g transform="translate(198.930997, 274.828463)"><g><path d="M 17.890625 0 L 17.890625 -30.011719 L 27.230469 -30.011719 L 27.230469 -37.460938 L 1.050781 -37.460938 L 1.050781 -30.011719 L 10.386719 -30.011719 L 10.386719 0 Z M 17.890625 0 "/></g></g></g><g fill="#000000" fill-opacity="1"><g transform="translate(227.624821, 274.828463)"><g><path d="M 22.246094 0.523438 C 48.058594 0.523438 48.058594 -38.140625 22.246094 -38.140625 C -3.566406 -38.140625 -3.566406 0.523438 22.246094 0.523438 Z M 22.246094 -7.238281 C 7.238281 -7.238281 7.238281 -30.429688 22.246094 -30.429688 C 37.25 -30.429688 37.25 -7.238281 22.246094 -7.238281 Z M 22.246094 -7.238281 "/></g></g></g><g fill="#000000" fill-opacity="1"><g transform="translate(272.055659, 274.828463)"><g><path d="M 22.875 0 L 31.375 0 L 22.664062 -15.476562 C 33.683594 -18.675781 32.371094 -37.511719 18.992188 -37.511719 L 4.195312 -37.511719 L 4.195312 0 L 11.699219 0 L 11.699219 -14.324219 L 15.320312 -14.324219 Z M 11.699219 -21.617188 L 11.699219 -30.011719 L 18.308594 -30.011719 C 23.398438 -30.011719 23.398438 -21.617188 18.308594 -21.617188 Z M 11.699219 -21.617188 "/></g></g></g><g fill="#000000" fill-opacity="1"><g transform="translate(304.211627, 274.828463)"><g><path d="M 28.070312 -28.804688 L 28.960938 -36.515625 C 26.703125 -37.511719 24.1875 -37.984375 21.5625 -37.984375 C -3.828125 -37.984375 -3.882812 0.105469 21.5625 0.105469 C 24.1875 0.105469 27.492188 -0.523438 29.800781 -1.46875 L 28.804688 -9.234375 C 27.386719 -8.5 24.816406 -7.554688 21.5625 -7.554688 C 6.714844 -7.554688 6.714844 -30.429688 21.5625 -30.429688 C 24.816406 -30.429688 26.652344 -29.539062 28.070312 -28.804688 Z M 28.070312 -28.804688 "/></g></g></g><g fill="#000000" fill-opacity="1"><g transform="translate(335.790601, 274.828463)"><g><path d="M 30.429688 0 L 30.429688 -37.511719 L 22.925781 -37.511719 L 22.925781 -22.507812 L 11.699219 -22.507812 L 11.699219 -37.511719 L 4.195312 -37.511719 L 4.195312 0 L 11.699219 0 L 11.699219 -15.003906 L 22.925781 -15.003906 L 22.925781 0 Z M 30.429688 0 "/></g></g></g><g fill="#ffffff" fill-opacity="1"><g transform="translate(40.470391, 333.4861)"><g><path d="M 9.246094 -9.335938 L 2.855469 -16.453125 L 1.8125 -16.453125 L 1.8125 0 L 5.097656 0 L 5.097656 -9.042969 L 9.246094 -4.691406 L 13.394531 -9.042969 L 13.371094 0 L 16.65625 0 L 16.65625 -16.453125 L 15.636719 -16.453125 Z M 9.246094 -9.335938 "/></g></g></g><g fill="#ffffff" fill-opacity="1"><g transform="translate(60.943317, 333.4861)"><g><path d="M 0.363281 0 L 4.035156 0 L 4.667969 -1.746094 L 10.039062 -1.746094 L 10.695312 0 L 14.34375 0 L 7.523438 -16.792969 L 7.183594 -16.792969 Z M 5.847656 -4.78125 L 7.363281 -8.996094 L 8.839844 -4.78125 Z M 5.847656 -4.78125 "/></g></g></g><g fill="#ffffff" fill-opacity="1"><g transform="translate(77.725093, 333.4861)"><g><path d="M 5.054688 -8.816406 L 13.257812 0.339844 L 14.117188 0.339844 L 14.117188 -16.179688 L 10.855469 -16.179688 L 10.855469 -7.023438 L 2.675781 -16.542969 L 1.8125 -16.542969 L 1.8125 0 L 5.054688 0 Z M 5.054688 -8.816406 "/></g></g></g><g fill="#ffffff" fill-opacity="1"><g transform="translate(95.66176, 333.4861)"><g><path d="M 0.363281 0 L 4.035156 0 L 4.667969 -1.746094 L 10.039062 -1.746094 L 10.695312 0 L 14.34375 0 L 7.523438 -16.792969 L 7.183594 -16.792969 Z M 5.847656 -4.78125 L 7.363281 -8.996094 L 8.839844 -4.78125 Z M 5.847656 -4.78125 "/></g></g></g><g fill="#ffffff" fill-opacity="1"><g transform="translate(112.443536, 333.4861)"><g><path d="M 13.507812 -0.996094 L 13.507812 -8.113281 L 10.21875 -8.113281 L 10.21875 -3.242188 C 9.925781 -3.195312 9.609375 -3.148438 9.3125 -3.148438 C 3.058594 -3.148438 2.765625 -12.828125 9.3125 -13.054688 C 11.035156 -13.097656 12.078125 -12.734375 12.714844 -12.464844 L 13.097656 -15.75 C 12.804688 -15.839844 11.242188 -16.40625 9.3125 -16.339844 C -1.925781 -15.929688 -1.382812 0.0898438 9.3125 0.0898438 C 10.855469 0.0898438 12.261719 -0.292969 13.507812 -0.996094 Z M 13.507812 -0.996094 "/></g></g></g><g fill="#ffffff" fill-opacity="1"><g transform="translate(129.678207, 333.4861)"><g><path d="M 10.199219 0 L 10.199219 -3.242188 L 5.054688 -3.242188 L 5.054688 -6.480469 L 9.3125 -6.480469 L 9.3125 -9.722656 L 5.054688 -9.722656 L 5.054688 -12.960938 L 9.925781 -12.960938 L 9.925781 -16.203125 L 1.8125 -16.203125 L 1.8125 0 Z M 10.199219 0 "/></g></g></g><g fill="#ffffff" fill-opacity="1"><g transform="translate(143.085855, 333.4861)"><g/></g></g><g fill="#ffffff" fill-opacity="1"><g transform="translate(151.511588, 333.4861)"><g><path d="M 6.777344 0.339844 L 7.34375 0.339844 L 10.289062 -6.910156 L 13.257812 0.273438 L 13.847656 0.273438 L 20.464844 -16.203125 L 16.816406 -16.203125 L 13.550781 -7.933594 L 10.378906 -16.042969 L 10.21875 -16.042969 L 7.046875 -7.933594 L 3.785156 -16.203125 L 0.136719 -16.203125 Z M 6.777344 0.339844 "/></g></g></g><g fill="#ffffff" fill-opacity="1"><g transform="translate(174.113149, 333.4861)"><g><path d="M 5.054688 0 L 5.054688 -16.203125 L 1.8125 -16.203125 L 1.8125 0 Z M 5.054688 0 "/></g></g></g><g fill="#ffffff" fill-opacity="1"><g transform="translate(182.991795, 333.4861)"><g><path d="M 7.726562 0 L 7.726562 -12.960938 L 11.761719 -12.960938 L 11.761719 -16.179688 L 0.453125 -16.179688 L 0.453125 -12.960938 L 4.488281 -12.960938 L 4.488281 0 Z M 7.726562 0 "/></g></g></g><g fill="#ffffff" fill-opacity="1"><g transform="translate(197.373187, 333.4861)"><g><path d="M 13.144531 0 L 13.144531 -16.203125 L 9.902344 -16.203125 L 9.902344 -9.722656 L 5.054688 -9.722656 L 5.054688 -16.203125 L 1.8125 -16.203125 L 1.8125 0 L 5.054688 0 L 5.054688 -6.480469 L 9.902344 -6.480469 L 9.902344 0 Z M 13.144531 0 "/></g></g></g><g fill="#ffffff" fill-opacity="1"><g transform="translate(214.33611, 333.4861)"><g/></g></g><g fill="#ffffff" fill-opacity="1"><g transform="translate(222.761843, 333.4861)"><g><path d="M 0.363281 0 L 4.035156 0 L 4.667969 -1.746094 L 10.039062 -1.746094 L 10.695312 0 L 14.34375 0 L 7.523438 -16.792969 L 7.183594 -16.792969 Z M 5.847656 -4.78125 L 7.363281 -8.996094 L 8.839844 -4.78125 Z M 5.847656 -4.78125 "/></g></g></g><g fill="#ffffff" fill-opacity="1"><g transform="translate(239.543619, 333.4861)"><g/></g></g><g fill="#ffffff" fill-opacity="1"><g transform="translate(247.969352, 333.4861)"><g><path d="M 6.84375 0.339844 L 7.570312 0.339844 L 14.277344 -16.203125 L 10.539062 -16.203125 L 8.363281 -10.695312 L 7.207031 -7.457031 L 6.027344 -10.808594 L 3.875 -16.203125 L 0.136719 -16.203125 Z M 6.84375 0.339844 "/></g></g></g><g fill="#ffffff" fill-opacity="1"><g transform="translate(264.388798, 333.4861)"><g><path d="M 5.054688 0 L 5.054688 -16.203125 L 1.8125 -16.203125 L 1.8125 0 Z M 5.054688 0 "/></g></g></g><g fill="#ffffff" fill-opacity="1"><g transform="translate(273.267443, 333.4861)"><g><path d="M 1.066406 -1.042969 C 3.261719 0.0898438 5.28125 0.203125 6.1875 0.136719 C 9.222656 -0.0234375 11.082031 -2.085938 11.082031 -4.78125 C 11.082031 -7.363281 8.90625 -8.816406 6.390625 -9.746094 C 5.460938 -10.0625 4.667969 -10.46875 4.578125 -11.375 C 4.507812 -12.28125 5.03125 -13.121094 6.1875 -13.1875 C 6.683594 -13.210938 7.703125 -13.234375 9.496094 -12.507812 L 9.902344 -15.636719 C 7.816406 -16.363281 6.707031 -16.363281 5.871094 -16.316406 C 3.171875 -16.179688 1.292969 -14.09375 1.292969 -11.375 C 1.292969 -8.65625 3.558594 -7.363281 6.097656 -6.4375 C 7.003906 -6.117188 7.703125 -5.710938 7.773438 -4.78125 C 7.863281 -3.898438 7.046875 -3.21875 6.097656 -3.148438 C 5.347656 -3.082031 3.332031 -3.128906 1.472656 -4.441406 Z M 1.066406 -1.042969 "/></g></g></g><g fill="#ffffff" fill-opacity="1"><g transform="translate(287.241214, 333.4861)"><g><path d="M 5.054688 0 L 5.054688 -16.203125 L 1.8125 -16.203125 L 1.8125 0 Z M 5.054688 0 "/></g></g></g><g fill="#ffffff" fill-opacity="1"><g transform="translate(296.119859, 333.4861)"><g><path d="M 9.609375 0.226562 C 20.757812 0.226562 20.757812 -16.476562 9.609375 -16.476562 C -1.539062 -16.476562 -1.539062 0.226562 9.609375 0.226562 Z M 9.609375 -3.128906 C 3.128906 -3.128906 3.128906 -13.144531 9.609375 -13.144531 C 16.089844 -13.144531 16.089844 -3.128906 9.609375 -3.128906 Z M 9.609375 -3.128906 "/></g></g></g><g fill="#ffffff" fill-opacity="1"><g transform="translate(317.294781, 333.4861)"><g><path d="M 5.054688 -8.816406 L 13.257812 0.339844 L 14.117188 0.339844 L 14.117188 -16.179688 L 10.855469 -16.179688 L 10.855469 -7.023438 L 2.675781 -16.542969 L 1.8125 -16.542969 L 1.8125 0 L 5.054688 0 Z M 5.054688 -8.816406 "/></g></g></g></svg>